  0
SECTION
  2
HEADER
  9
$ACADVER
  1
AC1014
  9
$HANDSEED
  5
FFFF
  9
$INSUNITS
 70
     4
  9
$MEASUREMENT
 70
     1
  0
ENDSEC
  0
SECTION
  2
TABLES
  0
TABLE
  2
VPORT
  5
8
330
0
100
AcDbSymbolTable
 70
     4
  0
VPORT
  5
2E
330
8
100
AcDbSymbolTableRecord
100
AcDbViewportTableRecord
  2
*ACTIVE
 70
     0
 10
0.0
 20
0.0
 11
1.0
 21
1.0
 12
210.0
 22
148.5
 13
0.0
 23
0.0
 14
10.0
 24
10.0
 15
10.0
 25
10.0
 16
0.0
 26
0.0
 36
1.0
 17
0.0
 27
0.0
 37
0.0
 40
341.0
 41
1.24
 42
50.0
 43
0.0
 44
0.0
 50
0.0
 51
0.0
 71
     0
 72
   100
 73
     1
 74
     3
 75
     0
 76
     0
 77
     0
 78
     0
  0
ENDTAB
  0
TABLE
  2
LTYPE
  5
5
330
0
100
AcDbSymbolTable
 70
     1
  0
LTYPE
  5
14
330
5
100
AcDbSymbolTableRecord
100
AcDbLinetypeTableRecord
  2
BYBLOCK
 70
     0
  3

 72
    65
 73
     0
 40
0.0
  0
LTYPE
  5
15
330
5
100
AcDbSymbolTableRecord
100
AcDbLinetypeTableRecord
  2
BYLAYER
 70
     0
  3

 72
    65
 73
     0
 40
0.0
  0
LTYPE
  5
16
330
5
100
AcDbSymbolTableRecord
100
AcDbLinetypeTableRecord
  2
CONTINUOUS
 70
     0
  3
Solid line
 72
    65
 73
     0
 40
0.0
  0
ENDTAB
  0
TABLE
  2
LAYER
  5
2
100
AcDbSymbolTable
 70
2
  0
LAYER
  5
50
100
AcDbSymbolTableRecord
100
AcDbLayerTableRecord
  2
0
 70
0
  6
CONTINUOUS
  0
LAYER
  5
51
100
AcDbSymbolTableRecord
100
AcDbLayerTableRecord
  2
Layer_1
 70
0
  6
CONTINUOUS
  0
ENDTAB
  0
TABLE
  2
STYLE
  5
3
330
0
100
AcDbSymbolTable
 70
     1
  0
STYLE
  5
11
330
3
100
AcDbSymbolTableRecord
100
AcDbTextStyleTableRecord
  2
STANDARD
 70
     0
 40
0.0
 41
1.0
 50
0.0
 71
     0
 42
2.5
  3
txt
  4

  0
ENDTAB
  0
TABLE
  2
VIEW
  5
6
330
0
100
AcDbSymbolTable
 70
     0
  0
ENDTAB
  0
TABLE
  2
UCS
  5
7
330
0
100
AcDbSymbolTable
 70
     0
  0
ENDTAB
  0
TABLE
  2
APPID
  5
9
330
0
100
AcDbSymbolTable
 70
     2
  0
APPID
  5
12
330
9
100
AcDbSymbolTableRecord
100
AcDbRegAppTableRecord
  2
ACAD
 70
     0
  0
ENDTAB
  0
TABLE
  2
DIMSTYLE
  5
A
330
0
100
AcDbSymbolTable
 70
     1
  0
DIMSTYLE
105
27
330
A
100
AcDbSymbolTableRecord
100
AcDbDimStyleTableRecord
  2
ISO-25
 70
     0
  3

  4

  5

  6

  7

 40
1.0
 41
2.5
 42
0.625
 43
3.75
 44
1.25
 45
0.0
 46
0.0
 47
0.0
 48
0.0
140
2.5
141
2.5
142
0.0
143
0.03937007874016
144
1.0
145
0.0
146
1.0
147
0.625
 71
     0
 72
     0
 73
     0
 74
     0
 75
     0
 76
     0
 77
     1
 78
     8
170
     0
171
     3
172
     1
173
     0
174
     0
175
     0
176
     0
177
     0
178
     0
270
     2
271
     2
272
     2
273
     2
274
     3
340
11
275
     0
280
     0
281
     0
282
     0
283
     0
284
     8
285
     0
286
     0
287
     3
288
     0
  0
ENDTAB
  0
TABLE
  2
BLOCK_RECORD
  5
1
330
0
100
AcDbSymbolTable
 70
     1
  0
BLOCK_RECORD
  5
1F
330
1
100
AcDbSymbolTableRecord
100
AcDbBlockTableRecord
  2
*MODEL_SPACE
  0
BLOCK_RECORD
  5
1B
330
1
100
AcDbSymbolTableRecord
100
AcDbBlockTableRecord
  2
*PAPER_SPACE
  0
ENDTAB
  0
ENDSEC
  0
SECTION
  2
BLOCKS
  0
BLOCK
  5
20
330
1F
100
AcDbEntity
  8
0
100
AcDbBlockBegin
  2
*MODEL_SPACE
 70
     0
 10
0.0
 20
0.0
 30
0.0
  3
*MODEL_SPACE
  1

  0
ENDBLK
  5
21
330
1F
100
AcDbEntity
  8
0
100
AcDbBlockEnd
  0
BLOCK
  5
1C
330
1B
100
AcDbEntity
 67
     1
  8
0
100
AcDbBlockBegin
  2
*PAPER_SPACE
  1

  0
ENDBLK
  5
1D
330
1B
100
AcDbEntity
 67
     1
  8
0
100
AcDbBlockEnd
  0
ENDSEC
  0
SECTION
  2
ENTITIES
  0
SPLINE
  5
100
100
AcDbEntity
  8
Layer_1
 62
7
100
AcDbSpline
 70
8
 71
3
 72
8
 73
4
 74
0
 40
0
 40
0
 40
0
 40
0
 40
1
 40
1
 40
1
 40
1
 10
99.241341
 20
252.520137
 30
0.0
 10
94.466749
 20
252.520137
 30
0.0
 10
90.162294
 20
249.643992
 30
0.0
 10
88.335137
 20
245.232845
 30
0.0
  0
SPLINE
  5
101
100
AcDbEntity
  8
Layer_1
 62
7
100
AcDbSpline
 70
8
 71
3
 72
8
 73
4
 74
0
 40
0
 40
0
 40
0
 40
0
 40
1
 40
1
 40
1
 40
1
 10
88.335137
 20
245.232845
 30
0.0
 10
86.507980
 20
240.821697
 30
0.0
 10
87.517948
 20
235.744246
 30
0.0
 10
90.894094
 20
232.368100
 30
0.0
  0
SPLINE
  5
102
100
AcDbEntity
  8
Layer_1
 62
7
100
AcDbSpline
 70
8
 71
3
 72
8
 73
4
 74
0
 40
0
 40
0
 40
0
 40
0
 40
1
 40
1
 40
1
 40
1
 10
90.894094
 20
232.368100
 30
0.0
 10
94.270240
 20
228.991954
 30
0.0
 10
99.347691
 20
227.981986
 30
0.0
 10
103.758839
 20
229.809143
 30
0.0
  0
SPLINE
  5
103
100
AcDbEntity
  8
Layer_1
 62
7
100
AcDbSpline
 70
8
 71
3
 72
8
 73
4
 74
0
 40
0
 40
0
 40
0
 40
0
 40
1
 40
1
 40
1
 40
1
 10
103.758839
 20
229.809143
 30
0.0
 10
108.169986
 20
231.636300
 30
0.0
 10
111.046131
 20
235.940755
 30
0.0
 10
111.046131
 20
240.715347
 30
0.0
  0
SPLINE
  5
104
100
AcDbEntity
  8
Layer_1
 62
7
100
AcDbSpline
 70
8
 71
3
 72
8
 73
4
 74
0
 40
0
 40
0
 40
0
 40
0
 40
1
 40
1
 40
1
 40
1
 10
111.046131
 20
240.715347
 30
0.0
 10
111.046131
 20
243.846172
 30
0.0
 10
109.802416
 20
246.848766
 30
0.0
 10
107.588588
 20
249.062594
 30
0.0
  0
SPLINE
  5
105
100
AcDbEntity
  8
Layer_1
 62
7
100
AcDbSpline
 70
8
 71
3
 72
8
 73
4
 74
0
 40
0
 40
0
 40
0
 40
0
 40
1
 40
1
 40
1
 40
1
 10
107.588588
 20
249.062594
 30
0.0
 10
105.374760
 20
251.276422
 30
0.0
 10
102.372166
 20
252.520137
 30
0.0
 10
99.241341
 20
252.520137
 30
0.0
  0
SPLINE
  5
106
100
AcDbEntity
  8
Layer_1
 62
7
100
AcDbSpline
 70
8
 71
3
 72
8
 73
4
 74
0
 40
0
 40
0
 40
0
 40
0
 40
1
 40
1
 40
1
 40
1
 10
129.241010
 20
252.520137
 30
0.0
 10
124.466418
 20
252.520137
 30
0.0
 10
120.161963
 20
249.643992
 30
0.0
 10
118.334806
 20
245.232845
 30
0.0
  0
SPLINE
  5
107
100
AcDbEntity
  8
Layer_1
 62
7
100
AcDbSpline
 70
8
 71
3
 72
8
 73
4
 74
0
 40
0
 40
0
 40
0
 40
0
 40
1
 40
1
 40
1
 40
1
 10
118.334806
 20
245.232845
 30
0.0
 10
116.507649
 20
240.821697
 30
0.0
 10
117.517617
 20
235.744246
 30
0.0
 10
120.893763
 20
232.368100
 30
0.0
  0
SPLINE
  5
108
100
AcDbEntity
  8
Layer_1
 62
7
100
AcDbSpline
 70
8
 71
3
 72
8
 73
4
 74
0
 40
0
 40
0
 40
0
 40
0
 40
1
 40
1
 40
1
 40
1
 10
120.893763
 20
232.368100
 30
0.0
 10
124.269909
 20
228.991954
 30
0.0
 10
129.347360
 20
227.981986
 30
0.0
 10
133.758508
 20
229.809143
 30
0.0
  0
SPLINE
  5
109
100
AcDbEntity
  8
Layer_1
 62
7
100
AcDbSpline
 70
8
 71
3
 72
8
 73
4
 74
0
 40
0
 40
0
 40
0
 40
0
 40
1
 40
1
 40
1
 40
1
 10
133.758508
 20
229.809143
 30
0.0
 10
138.169655
 20
231.636300
 30
0.0
 10
141.045800
 20
235.940755
 30
0.0
 10
141.045800
 20
240.715347
 30
0.0
  0
SPLINE
  5
10a
100
AcDbEntity
  8
Layer_1
 62
7
100
AcDbSpline
 70
8
 71
3
 72
8
 73
4
 74
0
 40
0
 40
0
 40
0
 40
0
 40
1
 40
1
 40
1
 40
1
 10
141.045800
 20
240.715347
 30
0.0
 10
141.045800
 20
243.846172
 30
0.0
 10
139.802085
 20
246.848766
 30
0.0
 10
137.588257
 20
249.062594
 30
0.0
  0
SPLINE
  5
10b
100
AcDbEntity
  8
Layer_1
 62
7
100
AcDbSpline
 70
8
 71
3
 72
8
 73
4
 74
0
 40
0
 40
0
 40
0
 40
0
 40
1
 40
1
 40
1
 40
1
 10
137.588257
 20
249.062594
 30
0.0
 10
135.374429
 20
251.276422
 30
0.0
 10
132.371835
 20
252.520137
 30
0.0
 10
129.241010
 20
252.520137
 30
0.0
  0
LWPOLYLINE
  5
10c
100
AcDbEntity
  8
Layer_1
 62
7
100
AcDbPolyline
 90
1
 70
1
 10
99.241341
 20
252.520137
 30
0.0
  0
SPLINE
  5
10d
100
AcDbEntity
  8
Layer_1
 62
7
100
AcDbSpline
 70
8
 71
3
 72
8
 73
4
 74
0
 40
0
 40
0
 40
0
 40
0
 40
1
 40
1
 40
1
 40
1
 10
154.436750
 20
237.520191
 30
0.0
 10
149.662158
 20
237.520191
 30
0.0
 10
145.357703
 20
234.644046
 30
0.0
 10
143.530546
 20
230.232899
 30
0.0
  0
SPLINE
  5
10e
100
AcDbEntity
  8
Layer_1
 62
7
100
AcDbSpline
 70
8
 71
3
 72
8
 73
4
 74
0
 40
0
 40
0
 40
0
 40
0
 40
1
 40
1
 40
1
 40
1
 10
143.530546
 20
230.232899
 30
0.0
 10
141.703389
 20
225.821751
 30
0.0
 10
142.713357
 20
220.744300
 30
0.0
 10
146.089503
 20
217.368154
 30
0.0
  0
SPLINE
  5
10f
100
AcDbEntity
  8
Layer_1
 62
7
100
AcDbSpline
 70
8
 71
3
 72
8
 73
4
 74
0
 40
0
 40
0
 40
0
 40
0
 40
1
 40
1
 40
1
 40
1
 10
146.089503
 20
217.368154
 30
0.0
 10
149.465649
 20
213.992008
 30
0.0
 10
154.543100
 20
212.982040
 30
0.0
 10
158.954248
 20
214.809197
 30
0.0
  0
SPLINE
  5
110
100
AcDbEntity
  8
Layer_1
 62
7
100
AcDbSpline
 70
8
 71
3
 72
8
 73
4
 74
0
 40
0
 40
0
 40
0
 40
0
 40
1
 40
1
 40
1
 40
1
 10
158.954248
 20
214.809197
 30
0.0
 10
163.365395
 20
216.636354
 30
0.0
 10
166.241540
 20
220.940809
 30
0.0
 10
166.241540
 20
225.715401
 30
0.0
  0
SPLINE
  5
111
100
AcDbEntity
  8
Layer_1
 62
7
100
AcDbSpline
 70
8
 71
3
 72
8
 73
4
 74
0
 40
0
 40
0
 40
0
 40
0
 40
1
 40
1
 40
1
 40
1
 10
166.241540
 20
225.715401
 30
0.0
 10
166.241540
 20
228.846226
 30
0.0
 10
164.997825
 20
231.848820
 30
0.0
 10
162.783997
 20
234.062648
 30
0.0
  0
SPLINE
  5
112
100
AcDbEntity
  8
Layer_1
 62
7
100
AcDbSpline
 70
8
 71
3
 72
8
 73
4
 74
0
 40
0
 40
0
 40
0
 40
0
 40
1
 40
1
 40
1
 40
1
 10
162.783997
 20
234.062648
 30
0.0
 10
160.570169
 20
236.276476
 30
0.0
 10
157.567575
 20
237.520191
 30
0.0
 10
154.436750
 20
237.520191
 30
0.0
  0
LWPOLYLINE
  5
113
100
AcDbEntity
  8
Layer_1
 62
7
100
AcDbPolyline
 90
1
 70
1
 10
129.241010
 20
252.520137
 30
0.0
  0
SPLINE
  5
114
100
AcDbEntity
  8
Layer_1
 62
7
100
AcDbSpline
 70
8
 71
3
 72
8
 73
4
 74
0
 40
0
 40
0
 40
0
 40
0
 40
1
 40
1
 40
1
 40
1
 10
265.455080
 20
232.124195
 30
0.0
 10
260.680488
 20
232.124195
 30
0.0
 10
256.376033
 20
229.248050
 30
0.0
 10
254.548876
 20
224.836903
 30
0.0
  0
SPLINE
  5
115
100
AcDbEntity
  8
Layer_1
 62
7
100
AcDbSpline
 70
8
 71
3
 72
8
 73
4
 74
0
 40
0
 40
0
 40
0
 40
0
 40
1
 40
1
 40
1
 40
1
 10
254.548876
 20
224.836903
 30
0.0
 10
252.721719
 20
220.425755
 30
0.0
 10
253.731687
 20
215.348304
 30
0.0
 10
257.107833
 20
211.972158
 30
0.0
  0
SPLINE
  5
116
100
AcDbEntity
  8
Layer_1
 62
7
100
AcDbSpline
 70
8
 71
3
 72
8
 73
4
 74
0
 40
0
 40
0
 40
0
 40
0
 40
1
 40
1
 40
1
 40
1
 10
257.107833
 20
211.972158
 30
0.0
 10
260.483979
 20
208.596012
 30
0.0
 10
265.561430
 20
207.586044
 30
0.0
 10
269.972578
 20
209.413201
 30
0.0
  0
SPLINE
  5
117
100
AcDbEntity
  8
Layer_1
 62
7
100
AcDbSpline
 70
8
 71
3
 72
8
 73
4
 74
0
 40
0
 40
0
 40
0
 40
0
 40
1
 40
1
 40
1
 40
1
 10
269.972578
 20
209.413201
 30
0.0
 10
274.383725
 20
211.240358
 30
0.0
 10
277.259870
 20
215.544813
 30
0.0
 10
277.259870
 20
220.319405
 30
0.0
  0
SPLINE
  5
118
100
AcDbEntity
  8
Layer_1
 62
7
100
AcDbSpline
 70
8
 71
3
 72
8
 73
4
 74
0
 40
0
 40
0
 40
0
 40
0
 40
1
 40
1
 40
1
 40
1
 10
277.259870
 20
220.319405
 30
0.0
 10
277.259870
 20
223.450230
 30
0.0
 10
276.016155
 20
226.452824
 30
0.0
 10
273.802327
 20
228.666652
 30
0.0
  0
SPLINE
  5
119
100
AcDbEntity
  8
Layer_1
 62
7
100
AcDbSpline
 70
8
 71
3
 72
8
 73
4
 74
0
 40
0
 40
0
 40
0
 40
0
 40
1
 40
1
 40
1
 40
1
 10
273.802327
 20
228.666652
 30
0.0
 10
271.588499
 20
230.880480
 30
0.0
 10
268.585905
 20
232.124195
 30
0.0
 10
265.455080
 20
232.124195
 30
0.0
  0
LWPOLYLINE
  5
11a
100
AcDbEntity
  8
Layer_1
 62
7
100
AcDbPolyline
 90
1
 70
1
 10
154.436750
 20
237.520191
 30
0.0
  0
SPLINE
  5
11b
100
AcDbEntity
  8
Layer_1
 62
7
100
AcDbSpline
 70
8
 71
3
 72
8
 73
4
 74
0
 40
0
 40
0
 40
0
 40
0
 40
1
 40
1
 40
1
 40
1
 10
236.805130
 20
237.520191
 30
0.0
 10
232.030538
 20
237.520191
 30
0.0
 10
227.726083
 20
234.644046
 30
0.0
 10
225.898926
 20
230.232899
 30
0.0
  0
SPLINE
  5
11c
100
AcDbEntity
  8
Layer_1
 62
7
100
AcDbSpline
 70
8
 71
3
 72
8
 73
4
 74
0
 40
0
 40
0
 40
0
 40
0
 40
1
 40
1
 40
1
 40
1
 10
225.898926
 20
230.232899
 30
0.0
 10
224.071769
 20
225.821751
 30
0.0
 10
225.081737
 20
220.744300
 30
0.0
 10
228.457883
 20
217.368154
 30
0.0
  0
SPLINE
  5
11d
100
AcDbEntity
  8
Layer_1
 62
7
100
AcDbSpline
 70
8
 71
3
 72
8
 73
4
 74
0
 40
0
 40
0
 40
0
 40
0
 40
1
 40
1
 40
1
 40
1
 10
228.457883
 20
217.368154
 30
0.0
 10
231.834029
 20
213.992008
 30
0.0
 10
236.911480
 20
212.982040
 30
0.0
 10
241.322628
 20
214.809197
 30
0.0
  0
SPLINE
  5
11e
100
AcDbEntity
  8
Layer_1
 62
7
100
AcDbSpline
 70
8
 71
3
 72
8
 73
4
 74
0
 40
0
 40
0
 40
0
 40
0
 40
1
 40
1
 40
1
 40
1
 10
241.322628
 20
214.809197
 30
0.0
 10
245.733775
 20
216.636354
 30
0.0
 10
248.609920
 20
220.940809
 30
0.0
 10
248.609920
 20
225.715401
 30
0.0
  0
SPLINE
  5
11f
100
AcDbEntity
  8
Layer_1
 62
7
100
AcDbSpline
 70
8
 71
3
 72
8
 73
4
 74
0
 40
0
 40
0
 40
0
 40
0
 40
1
 40
1
 40
1
 40
1
 10
248.609920
 20
225.715401
 30
0.0
 10
248.609920
 20
228.846226
 30
0.0
 10
247.366205
 20
231.848820
 30
0.0
 10
245.152377
 20
234.062648
 30
0.0
  0
SPLINE
  5
120
100
AcDbEntity
  8
Layer_1
 62
7
100
AcDbSpline
 70
8
 71
3
 72
8
 73
4
 74
0
 40
0
 40
0
 40
0
 40
0
 40
1
 40
1
 40
1
 40
1
 10
245.152377
 20
234.062648
 30
0.0
 10
242.938549
 20
236.276476
 30
0.0
 10
239.935955
 20
237.520191
 30
0.0
 10
236.805130
 20
237.520191
 30
0.0
  0
LWPOLYLINE
  5
121
100
AcDbEntity
  8
Layer_1
 62
7
100
AcDbPolyline
 90
1
 70
1
 10
265.455080
 20
232.124195
 30
0.0
  0
SPLINE
  5
122
100
AcDbEntity
  8
Layer_1
 62
7
100
AcDbSpline
 70
8
 71
3
 72
8
 73
4
 74
0
 40
0
 40
0
 40
0
 40
0
 40
1
 40
1
 40
1
 40
1
 10
207.745450
 20
237.520191
 30
0.0
 10
202.970858
 20
237.520191
 30
0.0
 10
198.666403
 20
234.644046
 30
0.0
 10
196.839246
 20
230.232899
 30
0.0
  0
SPLINE
  5
123
100
AcDbEntity
  8
Layer_1
 62
7
100
AcDbSpline
 70
8
 71
3
 72
8
 73
4
 74
0
 40
0
 40
0
 40
0
 40
0
 40
1
 40
1
 40
1
 40
1
 10
196.839246
 20
230.232899
 30
0.0
 10
195.012089
 20
225.821751
 30
0.0
 10
196.022057
 20
220.744300
 30
0.0
 10
199.398203
 20
217.368154
 30
0.0
  0
SPLINE
  5
124
100
AcDbEntity
  8
Layer_1
 62
7
100
AcDbSpline
 70
8
 71
3
 72
8
 73
4
 74
0
 40
0
 40
0
 40
0
 40
0
 40
1
 40
1
 40
1
 40
1
 10
199.398203
 20
217.368154
 30
0.0
 10
202.774349
 20
213.992008
 30
0.0
 10
207.851800
 20
212.982040
 30
0.0
 10
212.262948
 20
214.809197
 30
0.0
  0
SPLINE
  5
125
100
AcDbEntity
  8
Layer_1
 62
7
100
AcDbSpline
 70
8
 71
3
 72
8
 73
4
 74
0
 40
0
 40
0
 40
0
 40
0
 40
1
 40
1
 40
1
 40
1
 10
212.262948
 20
214.809197
 30
0.0
 10
216.674095
 20
216.636354
 30
0.0
 10
219.550240
 20
220.940809
 30
0.0
 10
219.550240
 20
225.715401
 30
0.0
  0
SPLINE
  5
126
100
AcDbEntity
  8
Layer_1
 62
7
100
AcDbSpline
 70
8
 71
3
 72
8
 73
4
 74
0
 40
0
 40
0
 40
0
 40
0
 40
1
 40
1
 40
1
 40
1
 10
219.550240
 20
225.715401
 30
0.0
 10
219.550240
 20
228.846226
 30
0.0
 10
218.306525
 20
231.848820
 30
0.0
 10
216.092697
 20
234.062648
 30
0.0
  0
SPLINE
  5
127
100
AcDbEntity
  8
Layer_1
 62
7
100
AcDbSpline
 70
8
 71
3
 72
8
 73
4
 74
0
 40
0
 40
0
 40
0
 40
0
 40
1
 40
1
 40
1
 40
1
 10
216.092697
 20
234.062648
 30
0.0
 10
213.878869
 20
236.276476
 30
0.0
 10
210.876275
 20
237.520191
 30
0.0
 10
207.745450
 20
237.520191
 30
0.0
  0
LWPOLYLINE
  5
128
100
AcDbEntity
  8
Layer_1
 62
7
100
AcDbPolyline
 90
1
 70
1
 10
236.805130
 20
237.520191
 30
0.0
  0
SPLINE
  5
129
100
AcDbEntity
  8
Layer_1
 62
7
100
AcDbSpline
 70
8
 71
3
 72
8
 73
4
 74
0
 40
0
 40
0
 40
0
 40
0
 40
1
 40
1
 40
1
 40
1
 10
170.495090
 20
190.754528
 30
0.0
 10
164.526850
 20
190.754528
 30
0.0
 10
159.146281
 20
187.159347
 30
0.0
 10
156.862335
 20
181.645412
 30
0.0
  0
SPLINE
  5
12a
100
AcDbEntity
  8
Layer_1
 62
7
100
AcDbSpline
 70
8
 71
3
 72
8
 73
4
 74
0
 40
0
 40
0
 40
0
 40
0
 40
1
 40
1
 40
1
 40
1
 10
156.862335
 20
181.645412
 30
0.0
 10
154.578388
 20
176.131477
 30
0.0
 10
155.840848
 20
169.784664
 30
0.0
 10
160.061031
 20
165.564481
 30
0.0
  0
SPLINE
  5
12b
100
AcDbEntity
  8
Layer_1
 62
7
100
AcDbSpline
 70
8
 71
3
 72
8
 73
4
 74
0
 40
0
 40
0
 40
0
 40
0
 40
1
 40
1
 40
1
 40
1
 10
160.061031
 20
165.564481
 30
0.0
 10
164.281214
 20
161.344298
 30
0.0
 10
170.628027
 20
160.081838
 30
0.0
 10
176.141962
 20
162.365785
 30
0.0
  0
SPLINE
  5
12c
100
AcDbEntity
  8
Layer_1
 62
7
100
AcDbSpline
 70
8
 71
3
 72
8
 73
4
 74
0
 40
0
 40
0
 40
0
 40
0
 40
1
 40
1
 40
1
 40
1
 10
176.141962
 20
162.365785
 30
0.0
 10
181.655897
 20
164.649731
 30
0.0
 10
185.251078
 20
170.030300
 30
0.0
 10
185.251078
 20
175.998540
 30
0.0
  0
SPLINE
  5
12d
100
AcDbEntity
  8
Layer_1
 62
7
100
AcDbSpline
 70
8
 71
3
 72
8
 73
4
 74
0
 40
0
 40
0
 40
0
 40
0
 40
1
 40
1
 40
1
 40
1
 10
185.251078
 20
175.998540
 30
0.0
 10
185.251078
 20
179.912071
 30
0.0
 10
183.696434
 20
183.665315
 30
0.0
 10
180.929149
 20
186.432599
 30
0.0
  0
SPLINE
  5
12e
100
AcDbEntity
  8
Layer_1
 62
7
100
AcDbSpline
 70
8
 71
3
 72
8
 73
4
 74
0
 40
0
 40
0
 40
0
 40
0
 40
1
 40
1
 40
1
 40
1
 10
180.929149
 20
186.432599
 30
0.0
 10
178.161865
 20
189.199884
 30
0.0
 10
174.408621
 20
190.754528
 30
0.0
 10
170.495090
 20
190.754528
 30
0.0
  0
LWPOLYLINE
  5
12f
100
AcDbEntity
  8
Layer_1
 62
7
100
AcDbPolyline
 90
1
 70
1
 10
207.745450
 20
237.520191
 30
0.0
  0
SPLINE
  5
130
100
AcDbEntity
  8
Layer_1
 62
7
100
AcDbSpline
 70
8
 71
3
 72
8
 73
4
 74
0
 40
0
 40
0
 40
0
 40
0
 40
1
 40
1
 40
1
 40
1
 10
265.455080
 20
262.520198
 30
0.0
 10
260.680488
 20
262.520198
 30
0.0
 10
256.376033
 20
259.644053
 30
0.0
 10
254.548876
 20
255.232906
 30
0.0
  0
SPLINE
  5
131
100
AcDbEntity
  8
Layer_1
 62
7
100
AcDbSpline
 70
8
 71
3
 72
8
 73
4
 74
0
 40
0
 40
0
 40
0
 40
0
 40
1
 40
1
 40
1
 40
1
 10
254.548876
 20
255.232906
 30
0.0
 10
252.721719
 20
250.821758
 30
0.0
 10
253.731687
 20
245.744307
 30
0.0
 10
257.107833
 20
242.368161
 30
0.0
  0
SPLINE
  5
132
100
AcDbEntity
  8
Layer_1
 62
7
100
AcDbSpline
 70
8
 71
3
 72
8
 73
4
 74
0
 40
0
 40
0
 40
0
 40
0
 40
1
 40
1
 40
1
 40
1
 10
257.107833
 20
242.368161
 30
0.0
 10
260.483979
 20
238.992015
 30
0.0
 10
265.561430
 20
237.982047
 30
0.0
 10
269.972578
 20
239.809204
 30
0.0
  0
SPLINE
  5
133
100
AcDbEntity
  8
Layer_1
 62
7
100
AcDbSpline
 70
8
 71
3
 72
8
 73
4
 74
0
 40
0
 40
0
 40
0
 40
0
 40
1
 40
1
 40
1
 40
1
 10
269.972578
 20
239.809204
 30
0.0
 10
274.383725
 20
241.636361
 30
0.0
 10
277.259870
 20
245.940816
 30
0.0
 10
277.259870
 20
250.715408
 30
0.0
  0
SPLINE
  5
134
100
AcDbEntity
  8
Layer_1
 62
7
100
AcDbSpline
 70
8
 71
3
 72
8
 73
4
 74
0
 40
0
 40
0
 40
0
 40
0
 40
1
 40
1
 40
1
 40
1
 10
277.259870
 20
250.715408
 30
0.0
 10
277.259870
 20
253.846233
 30
0.0
 10
276.016155
 20
256.848827
 30
0.0
 10
273.802327
 20
259.062655
 30
0.0
  0
SPLINE
  5
135
100
AcDbEntity
  8
Layer_1
 62
7
100
AcDbSpline
 70
8
 71
3
 72
8
 73
4
 74
0
 40
0
 40
0
 40
0
 40
0
 40
1
 40
1
 40
1
 40
1
 10
273.802327
 20
259.062655
 30
0.0
 10
271.588499
 20
261.276483
 30
0.0
 10
268.585905
 20
262.520198
 30
0.0
 10
265.455080
 20
262.520198
 30
0.0
  0
LWPOLYLINE
  5
136
100
AcDbEntity
  8
Layer_1
 62
7
100
AcDbPolyline
 90
1
 70
1
 10
170.495090
 20
190.754528
 30
0.0
  0
SPLINE
  5
137
100
AcDbEntity
  8
Layer_1
 62
7
100
AcDbSpline
 70
8
 71
3
 72
8
 73
4
 74
0
 40
0
 40
0
 40
0
 40
0
 40
1
 40
1
 40
1
 40
1
 10
181.734540
 20
254.124195
 30
0.0
 10
175.214935
 20
254.124195
 30
0.0
 10
169.929750
 20
248.839010
 30
0.0
 10
169.929750
 20
242.319405
 30
0.0
  0
SPLINE
  5
138
100
AcDbEntity
  8
Layer_1
 62
7
100
AcDbSpline
 70
8
 71
3
 72
8
 73
4
 74
0
 40
0
 40
0
 40
0
 40
0
 40
1
 40
1
 40
1
 40
1
 10
169.929750
 20
242.319405
 30
0.0
 10
169.929750
 20
235.799800
 30
0.0
 10
175.214935
 20
230.514615
 30
0.0
 10
181.734540
 20
230.514615
 30
0.0
  0
SPLINE
  5
139
100
AcDbEntity
  8
Layer_1
 62
7
100
AcDbSpline
 70
8
 71
3
 72
8
 73
4
 74
0
 40
0
 40
0
 40
0
 40
0
 40
1
 40
1
 40
1
 40
1
 10
181.734540
 20
230.514615
 30
0.0
 10
188.254145
 20
230.514615
 30
0.0
 10
193.539330
 20
235.799800
 30
0.0
 10
193.539330
 20
242.319405
 30
0.0
  0
SPLINE
  5
13a
100
AcDbEntity
  8
Layer_1
 62
7
100
AcDbSpline
 70
8
 71
3
 72
8
 73
4
 74
0
 40
0
 40
0
 40
0
 40
0
 40
1
 40
1
 40
1
 40
1
 10
193.539330
 20
242.319405
 30
0.0
 10
193.539330
 20
245.450230
 30
0.0
 10
192.295615
 20
248.452824
 30
0.0
 10
190.081787
 20
250.666652
 30
0.0
  0
SPLINE
  5
13b
100
AcDbEntity
  8
Layer_1
 62
7
100
AcDbSpline
 70
8
 71
3
 72
8
 73
4
 74
0
 40
0
 40
0
 40
0
 40
0
 40
1
 40
1
 40
1
 40
1
 10
190.081787
 20
250.666652
 30
0.0
 10
187.867959
 20
252.880480
 30
0.0
 10
184.865365
 20
254.124195
 30
0.0
 10
181.734540
 20
254.124195
 30
0.0
  0
LWPOLYLINE
  5
13c
100
AcDbEntity
  8
Layer_1
 62
7
100
AcDbPolyline
 90
1
 70
1
 10
265.455080
 20
262.520198
 30
0.0
  0
SPLINE
  5
13d
100
AcDbEntity
  8
Layer_1
 62
7
100
AcDbSpline
 70
8
 71
3
 72
8
 73
4
 74
0
 40
0
 40
0
 40
0
 40
0
 40
1
 40
1
 40
1
 40
1
 10
236.805130
 20
267.520198
 30
0.0
 10
232.030538
 20
267.520198
 30
0.0
 10
227.726083
 20
264.644053
 30
0.0
 10
225.898926
 20
260.232906
 30
0.0
  0
SPLINE
  5
13e
100
AcDbEntity
  8
Layer_1
 62
7
100
AcDbSpline
 70
8
 71
3
 72
8
 73
4
 74
0
 40
0
 40
0
 40
0
 40
0
 40
1
 40
1
 40
1
 40
1
 10
225.898926
 20
260.232906
 30
0.0
 10
224.071769
 20
255.821758
 30
0.0
 10
225.081737
 20
250.744307
 30
0.0
 10
228.457883
 20
247.368161
 30
0.0
  0
SPLINE
  5
13f
100
AcDbEntity
  8
Layer_1
 62
7
100
AcDbSpline
 70
8
 71
3
 72
8
 73
4
 74
0
 40
0
 40
0
 40
0
 40
0
 40
1
 40
1
 40
1
 40
1
 10
228.457883
 20
247.368161
 30
0.0
 10
231.834029
 20
243.992015
 30
0.0
 10
236.911480
 20
242.982047
 30
0.0
 10
241.322628
 20
244.809204
 30
0.0
  0
SPLINE
  5
140
100
AcDbEntity
  8
Layer_1
 62
7
100
AcDbSpline
 70
8
 71
3
 72
8
 73
4
 74
0
 40
0
 40
0
 40
0
 40
0
 40
1
 40
1
 40
1
 40
1
 10
241.322628
 20
244.809204
 30
0.0
 10
245.733775
 20
246.636361
 30
0.0
 10
248.609920
 20
250.940816
 30
0.0
 10
248.609920
 20
255.715408
 30
0.0
  0
SPLINE
  5
141
100
AcDbEntity
  8
Layer_1
 62
7
100
AcDbSpline
 70
8
 71
3
 72
8
 73
4
 74
0
 40
0
 40
0
 40
0
 40
0
 40
1
 40
1
 40
1
 40
1
 10
248.609920
 20
255.715408
 30
0.0
 10
248.609920
 20
258.846233
 30
0.0
 10
247.366205
 20
261.848827
 30
0.0
 10
245.152377
 20
264.062655
 30
0.0
  0
SPLINE
  5
142
100
AcDbEntity
  8
Layer_1
 62
7
100
AcDbSpline
 70
8
 71
3
 72
8
 73
4
 74
0
 40
0
 40
0
 40
0
 40
0
 40
1
 40
1
 40
1
 40
1
 10
245.152377
 20
264.062655
 30
0.0
 10
242.938549
 20
266.276483
 30
0.0
 10
239.935955
 20
267.520198
 30
0.0
 10
236.805130
 20
267.520198
 30
0.0
  0
LWPOLYLINE
  5
143
100
AcDbEntity
  8
Layer_1
 62
7
100
AcDbPolyline
 90
1
 70
1
 10
181.734540
 20
254.124195
 30
0.0
  0
SPLINE
  5
144
100
AcDbEntity
  8
Layer_1
 62
7
100
AcDbSpline
 70
8
 71
3
 72
8
 73
4
 74
0
 40
0
 40
0
 40
0
 40
0
 40
1
 40
1
 40
1
 40
1
 10
181.734540
 20
224.124660
 30
0.0
 10
175.214935
 20
224.124660
 30
0.0
 10
169.929750
 20
218.839475
 30
0.0
 10
169.929750
 20
212.319870
 30
0.0
  0
SPLINE
  5
145
100
AcDbEntity
  8
Layer_1
 62
7
100
AcDbSpline
 70
8
 71
3
 72
8
 73
4
 74
0
 40
0
 40
0
 40
0
 40
0
 40
1
 40
1
 40
1
 40
1
 10
169.929750
 20
212.319870
 30
0.0
 10
169.929750
 20
205.800265
 30
0.0
 10
175.214935
 20
200.515080
 30
0.0
 10
181.734540
 20
200.515080
 30
0.0
  0
SPLINE
  5
146
100
AcDbEntity
  8
Layer_1
 62
7
100
AcDbSpline
 70
8
 71
3
 72
8
 73
4
 74
0
 40
0
 40
0
 40
0
 40
0
 40
1
 40
1
 40
1
 40
1
 10
181.734540
 20
200.515080
 30
0.0
 10
188.254145
 20
200.515080
 30
0.0
 10
193.539330
 20
205.800265
 30
0.0
 10
193.539330
 20
212.319870
 30
0.0
  0
SPLINE
  5
147
100
AcDbEntity
  8
Layer_1
 62
7
100
AcDbSpline
 70
8
 71
3
 72
8
 73
4
 74
0
 40
0
 40
0
 40
0
 40
0
 40
1
 40
1
 40
1
 40
1
 10
193.539330
 20
212.319870
 30
0.0
 10
193.539330
 20
215.450695
 30
0.0
 10
192.295615
 20
218.453289
 30
0.0
 10
190.081787
 20
220.667117
 30
0.0
  0
SPLINE
  5
148
100
AcDbEntity
  8
Layer_1
 62
7
100
AcDbSpline
 70
8
 71
3
 72
8
 73
4
 74
0
 40
0
 40
0
 40
0
 40
0
 40
1
 40
1
 40
1
 40
1
 10
190.081787
 20
220.667117
 30
0.0
 10
187.867959
 20
222.880945
 30
0.0
 10
184.865365
 20
224.124660
 30
0.0
 10
181.734540
 20
224.124660
 30
0.0
  0
LWPOLYLINE
  5
149
100
AcDbEntity
  8
Layer_1
 62
7
100
AcDbPolyline
 90
1
 70
1
 10
236.805130
 20
267.520198
 30
0.0
  0
SPLINE
  5
14a
100
AcDbEntity
  8
Layer_1
 62
7
100
AcDbSpline
 70
8
 71
3
 72
8
 73
4
 74
0
 40
0
 40
0
 40
0
 40
0
 40
1
 40
1
 40
1
 40
1
 10
207.745450
 20
267.520198
 30
0.0
 10
202.970858
 20
267.520198
 30
0.0
 10
198.666403
 20
264.644053
 30
0.0
 10
196.839246
 20
260.232906
 30
0.0
  0
SPLINE
  5
14b
100
AcDbEntity
  8
Layer_1
 62
7
100
AcDbSpline
 70
8
 71
3
 72
8
 73
4
 74
0
 40
0
 40
0
 40
0
 40
0
 40
1
 40
1
 40
1
 40
1
 10
196.839246
 20
260.232906
 30
0.0
 10
195.012089
 20
255.821758
 30
0.0
 10
196.022057
 20
250.744307
 30
0.0
 10
199.398203
 20
247.368161
 30
0.0
  0
SPLINE
  5
14c
100
AcDbEntity
  8
Layer_1
 62
7
100
AcDbSpline
 70
8
 71
3
 72
8
 73
4
 74
0
 40
0
 40
0
 40
0
 40
0
 40
1
 40
1
 40
1
 40
1
 10
199.398203
 20
247.368161
 30
0.0
 10
202.774349
 20
243.992015
 30
0.0
 10
207.851800
 20
242.982047
 30
0.0
 10
212.262948
 20
244.809204
 30
0.0
  0
SPLINE
  5
14d
100
AcDbEntity
  8
Layer_1
 62
7
100
AcDbSpline
 70
8
 71
3
 72
8
 73
4
 74
0
 40
0
 40
0
 40
0
 40
0
 40
1
 40
1
 40
1
 40
1
 10
212.262948
 20
244.809204
 30
0.0
 10
216.674095
 20
246.636361
 30
0.0
 10
219.550240
 20
250.940816
 30
0.0
 10
219.550240
 20
255.715408
 30
0.0
  0
SPLINE
  5
14e
100
AcDbEntity
  8
Layer_1
 62
7
100
AcDbSpline
 70
8
 71
3
 72
8
 73
4
 74
0
 40
0
 40
0
 40
0
 40
0
 40
1
 40
1
 40
1
 40
1
 10
219.550240
 20
255.715408
 30
0.0
 10
219.550240
 20
258.846233
 30
0.0
 10
218.306525
 20
261.848827
 30
0.0
 10
216.092697
 20
264.062655
 30
0.0
  0
SPLINE
  5
14f
100
AcDbEntity
  8
Layer_1
 62
7
100
AcDbSpline
 70
8
 71
3
 72
8
 73
4
 74
0
 40
0
 40
0
 40
0
 40
0
 40
1
 40
1
 40
1
 40
1
 10
216.092697
 20
264.062655
 30
0.0
 10
213.878869
 20
266.276483
 30
0.0
 10
210.876275
 20
267.520198
 30
0.0
 10
207.745450
 20
267.520198
 30
0.0
  0
LWPOLYLINE
  5
150
100
AcDbEntity
  8
Layer_1
 62
7
100
AcDbPolyline
 90
1
 70
1
 10
181.734540
 20
224.124660
 30
0.0
  0
LWPOLYLINE
  5
151
100
AcDbEntity
  8
Layer_1
 62
7
100
AcDbPolyline
 90
1
 70
1
 10
207.745450
 20
267.520198
 30
0.0
  0
SPLINE
  5
152
100
AcDbEntity
  8
Layer_1
 62
7
100
AcDbSpline
 70
8
 71
3
 72
8
 73
4
 74
0
 40
0
 40
0
 40
0
 40
0
 40
1
 40
1
 40
1
 40
1
 10
10.191668
 20
287.894928
 30
0.0
 10
9.752047
 20
287.894928
 30
0.0
 10
9.355714
 20
287.630107
 30
0.0
 10
9.187478
 20
287.223950
 30
0.0
  0
SPLINE
  5
153
100
AcDbEntity
  8
Layer_1
 62
7
100
AcDbSpline
 70
8
 71
3
 72
8
 73
4
 74
0
 40
0
 40
0
 40
0
 40
0
 40
1
 40
1
 40
1
 40
1
 10
9.187478
 20
287.223950
 30
0.0
 10
9.019242
 20
286.817793
 30
0.0
 10
9.112235
 20
286.350286
 30
0.0
 10
9.423094
 20
286.039427
 30
0.0
  0
SPLINE
  5
154
100
AcDbEntity
  8
Layer_1
 62
7
100
AcDbSpline
 70
8
 71
3
 72
8
 73
4
 74
0
 40
0
 40
0
 40
0
 40
0
 40
1
 40
1
 40
1
 40
1
 10
9.423094
 20
286.039427
 30
0.0
 10
9.733953
 20
285.728568
 30
0.0
 10
10.201460
 20
285.635575
 30
0.0
 10
10.607617
 20
285.803811
 30
0.0
  0
SPLINE
  5
155
100
AcDbEntity
  8
Layer_1
 62
7
100
AcDbSpline
 70
8
 71
3
 72
8
 73
4
 74
0
 40
0
 40
0
 40
0
 40
0
 40
1
 40
1
 40
1
 40
1
 10
10.607617
 20
285.803811
 30
0.0
 10
11.013774
 20
285.972047
 30
0.0
 10
11.278595
 20
286.368380
 30
0.0
 10
11.278595
 20
286.808001
 30
0.0
  0
SPLINE
  5
156
100
AcDbEntity
  8
Layer_1
 62
7
100
AcDbSpline
 70
8
 71
3
 72
8
 73
4
 74
0
 40
0
 40
0
 40
0
 40
0
 40
1
 40
1
 40
1
 40
1
 10
11.278595
 20
286.808001
 30
0.0
 10
11.278595
 20
287.096272
 30
0.0
 10
11.164080
 20
287.372736
 30
0.0
 10
10.960242
 20
287.576575
 30
0.0
  0
SPLINE
  5
157
100
AcDbEntity
  8
Layer_1
 62
7
100
AcDbSpline
 70
8
 71
3
 72
8
 73
4
 74
0
 40
0
 40
0
 40
0
 40
0
 40
1
 40
1
 40
1
 40
1
 10
10.960242
 20
287.576575
 30
0.0
 10
10.756403
 20
287.780413
 30
0.0
 10
10.479939
 20
287.894928
 30
0.0
 10
10.191668
 20
287.894928
 30
0.0
  0
LWPOLYLINE
  5
158
100
AcDbEntity
  8
Layer_1
 62
7
100
AcDbPolyline
 90
14
 70
1
 10
0.300634
 20
296.699366
 30
0.0
 10
327.559664
 20
296.699366
 30
0.0
 10
327.559664
 20
296.699366
 30
0.0
 10
327.559664
 20
296.699366
 30
0.0
 10
327.559664
 20
296.699366
 30
0.0
 10
327.559664
 20
126.910376
 30
0.0
 10
327.559664
 20
126.910376
 30
0.0
 10
0.300634
 20
126.910376
 30
0.0
 10
0.300634
 20
126.910376
 30
0.0
 10
0.300634
 20
126.910376
 30
0.0
 10
0.300634
 20
126.910376
 30
0.0
 10
0.300634
 20
296.699366
 30
0.0
 10
0.300634
 20
296.699366
 30
0.0
 10
0.300634
 20
296.699366
 30
0.0
  0
SPLINE
  5
159
100
AcDbEntity
  8
Layer_1
 62
7
100
AcDbSpline
 70
8
 71
3
 72
8
 73
4
 74
0
 40
0
 40
0
 40
0
 40
0
 40
1
 40
1
 40
1
 40
1
 10
139.458300
 20
280.932498
 30
0.0
 10
134.683708
 20
280.932498
 30
0.0
 10
130.379253
 20
278.056353
 30
0.0
 10
128.552096
 20
273.645206
 30
0.0
  0
SPLINE
  5
15a
100
AcDbEntity
  8
Layer_1
 62
7
100
AcDbSpline
 70
8
 71
3
 72
8
 73
4
 74
0
 40
0
 40
0
 40
0
 40
0
 40
1
 40
1
 40
1
 40
1
 10
128.552096
 20
273.645206
 30
0.0
 10
126.724939
 20
269.234058
 30
0.0
 10
127.734907
 20
264.156607
 30
0.0
 10
131.111053
 20
260.780461
 30
0.0
  0
SPLINE
  5
15b
100
AcDbEntity
  8
Layer_1
 62
7
100
AcDbSpline
 70
8
 71
3
 72
8
 73
4
 74
0
 40
0
 40
0
 40
0
 40
0
 40
1
 40
1
 40
1
 40
1
 10
131.111053
 20
260.780461
 30
0.0
 10
134.487199
 20
257.404315
 30
0.0
 10
139.564650
 20
256.394347
 30
0.0
 10
143.975798
 20
258.221504
 30
0.0
  0
SPLINE
  5
15c
100
AcDbEntity
  8
Layer_1
 62
7
100
AcDbSpline
 70
8
 71
3
 72
8
 73
4
 74
0
 40
0
 40
0
 40
0
 40
0
 40
1
 40
1
 40
1
 40
1
 10
143.975798
 20
258.221504
 30
0.0
 10
148.386945
 20
260.048661
 30
0.0
 10
151.263090
 20
264.353116
 30
0.0
 10
151.263090
 20
269.127708
 30
0.0
  0
SPLINE
  5
15d
100
AcDbEntity
  8
Layer_1
 62
7
100
AcDbSpline
 70
8
 71
3
 72
8
 73
4
 74
0
 40
0
 40
0
 40
0
 40
0
 40
1
 40
1
 40
1
 40
1
 10
151.263090
 20
269.127708
 30
0.0
 10
151.263090
 20
272.258533
 30
0.0
 10
150.019375
 20
275.261127
 30
0.0
 10
147.805547
 20
277.474955
 30
0.0
  0
SPLINE
  5
15e
100
AcDbEntity
  8
Layer_1
 62
7
100
AcDbSpline
 70
8
 71
3
 72
8
 73
4
 74
0
 40
0
 40
0
 40
0
 40
0
 40
1
 40
1
 40
1
 40
1
 10
147.805547
 20
277.474955
 30
0.0
 10
145.591719
 20
279.688783
 30
0.0
 10
142.589125
 20
280.932498
 30
0.0
 10
139.458300
 20
280.932498
 30
0.0
  0
LWPOLYLINE
  5
15f
100
AcDbEntity
  8
Layer_1
 62
7
100
AcDbPolyline
 90
1
 70
1
 10
10.191668
 20
287.894928
 30
0.0
  0
SPLINE
  5
160
100
AcDbEntity
  8
Layer_1
 62
7
100
AcDbSpline
 70
8
 71
3
 72
8
 73
4
 74
0
 40
0
 40
0
 40
0
 40
0
 40
1
 40
1
 40
1
 40
1
 10
169.456910
 20
280.932498
 30
0.0
 10
164.682318
 20
280.932498
 30
0.0
 10
160.377863
 20
278.056353
 30
0.0
 10
158.550706
 20
273.645206
 30
0.0
  0
SPLINE
  5
161
100
AcDbEntity
  8
Layer_1
 62
7
100
AcDbSpline
 70
8
 71
3
 72
8
 73
4
 74
0
 40
0
 40
0
 40
0
 40
0
 40
1
 40
1
 40
1
 40
1
 10
158.550706
 20
273.645206
 30
0.0
 10
156.723549
 20
269.234058
 30
0.0
 10
157.733517
 20
264.156607
 30
0.0
 10
161.109663
 20
260.780461
 30
0.0
  0
SPLINE
  5
162
100
AcDbEntity
  8
Layer_1
 62
7
100
AcDbSpline
 70
8
 71
3
 72
8
 73
4
 74
0
 40
0
 40
0
 40
0
 40
0
 40
1
 40
1
 40
1
 40
1
 10
161.109663
 20
260.780461
 30
0.0
 10
164.485809
 20
257.404315
 30
0.0
 10
169.563260
 20
256.394347
 30
0.0
 10
173.974408
 20
258.221504
 30
0.0
  0
SPLINE
  5
163
100
AcDbEntity
  8
Layer_1
 62
7
100
AcDbSpline
 70
8
 71
3
 72
8
 73
4
 74
0
 40
0
 40
0
 40
0
 40
0
 40
1
 40
1
 40
1
 40
1
 10
173.974408
 20
258.221504
 30
0.0
 10
178.385555
 20
260.048661
 30
0.0
 10
181.261700
 20
264.353116
 30
0.0
 10
181.261700
 20
269.127708
 30
0.0
  0
SPLINE
  5
164
100
AcDbEntity
  8
Layer_1
 62
7
100
AcDbSpline
 70
8
 71
3
 72
8
 73
4
 74
0
 40
0
 40
0
 40
0
 40
0
 40
1
 40
1
 40
1
 40
1
 10
181.261700
 20
269.127708
 30
0.0
 10
181.261700
 20
272.258533
 30
0.0
 10
180.017985
 20
275.261127
 30
0.0
 10
177.804157
 20
277.474955
 30
0.0
  0
SPLINE
  5
165
100
AcDbEntity
  8
Layer_1
 62
7
100
AcDbSpline
 70
8
 71
3
 72
8
 73
4
 74
0
 40
0
 40
0
 40
0
 40
0
 40
1
 40
1
 40
1
 40
1
 10
177.804157
 20
277.474955
 30
0.0
 10
175.590329
 20
279.688783
 30
0.0
 10
172.587735
 20
280.932498
 30
0.0
 10
169.456910
 20
280.932498
 30
0.0
  0
LWPOLYLINE
  5
166
100
AcDbEntity
  8
Layer_1
 62
7
100
AcDbPolyline
 90
1
 70
1
 10
139.458300
 20
280.932498
 30
0.0
  0
SPLINE
  5
167
100
AcDbEntity
  8
Layer_1
 62
7
100
AcDbSpline
 70
8
 71
3
 72
8
 73
4
 74
0
 40
0
 40
0
 40
0
 40
0
 40
1
 40
1
 40
1
 40
1
 10
163.258060
 20
287.894928
 30
0.0
 10
162.818439
 20
287.894928
 30
0.0
 10
162.422106
 20
287.630107
 30
0.0
 10
162.253870
 20
287.223950
 30
0.0
  0
SPLINE
  5
168
100
AcDbEntity
  8
Layer_1
 62
7
100
AcDbSpline
 70
8
 71
3
 72
8
 73
4
 74
0
 40
0
 40
0
 40
0
 40
0
 40
1
 40
1
 40
1
 40
1
 10
162.253870
 20
287.223950
 30
0.0
 10
162.085634
 20
286.817793
 30
0.0
 10
162.178627
 20
286.350286
 30
0.0
 10
162.489486
 20
286.039427
 30
0.0
  0
SPLINE
  5
169
100
AcDbEntity
  8
Layer_1
 62
7
100
AcDbSpline
 70
8
 71
3
 72
8
 73
4
 74
0
 40
0
 40
0
 40
0
 40
0
 40
1
 40
1
 40
1
 40
1
 10
162.489486
 20
286.039427
 30
0.0
 10
162.800345
 20
285.728568
 30
0.0
 10
163.267852
 20
285.635575
 30
0.0
 10
163.674009
 20
285.803811
 30
0.0
  0
SPLINE
  5
16a
100
AcDbEntity
  8
Layer_1
 62
7
100
AcDbSpline
 70
8
 71
3
 72
8
 73
4
 74
0
 40
0
 40
0
 40
0
 40
0
 40
1
 40
1
 40
1
 40
1
 10
163.674009
 20
285.803811
 30
0.0
 10
164.080166
 20
285.972047
 30
0.0
 10
164.344987
 20
286.368380
 30
0.0
 10
164.344987
 20
286.808001
 30
0.0
  0
SPLINE
  5
16b
100
AcDbEntity
  8
Layer_1
 62
7
100
AcDbSpline
 70
8
 71
3
 72
8
 73
4
 74
0
 40
0
 40
0
 40
0
 40
0
 40
1
 40
1
 40
1
 40
1
 10
164.344987
 20
286.808001
 30
0.0
 10
164.344987
 20
287.096272
 30
0.0
 10
164.230472
 20
287.372736
 30
0.0
 10
164.026634
 20
287.576575
 30
0.0
  0
SPLINE
  5
16c
100
AcDbEntity
  8
Layer_1
 62
7
100
AcDbSpline
 70
8
 71
3
 72
8
 73
4
 74
0
 40
0
 40
0
 40
0
 40
0
 40
1
 40
1
 40
1
 40
1
 10
164.026634
 20
287.576575
 30
0.0
 10
163.822795
 20
287.780413
 30
0.0
 10
163.546331
 20
287.894928
 30
0.0
 10
163.258060
 20
287.894928
 30
0.0
  0
LWPOLYLINE
  5
16d
100
AcDbEntity
  8
Layer_1
 62
7
100
AcDbPolyline
 90
1
 70
1
 10
169.456910
 20
280.932498
 30
0.0
  0
SPLINE
  5
16e
100
AcDbEntity
  8
Layer_1
 62
7
100
AcDbSpline
 70
8
 71
3
 72
8
 73
4
 74
0
 40
0
 40
0
 40
0
 40
0
 40
1
 40
1
 40
1
 40
1
 10
163.258000
 20
137.361247
 30
0.0
 10
162.818379
 20
137.361247
 30
0.0
 10
162.422046
 20
137.096426
 30
0.0
 10
162.253810
 20
136.690269
 30
0.0
  0
SPLINE
  5
16f
100
AcDbEntity
  8
Layer_1
 62
7
100
AcDbSpline
 70
8
 71
3
 72
8
 73
4
 74
0
 40
0
 40
0
 40
0
 40
0
 40
1
 40
1
 40
1
 40
1
 10
162.253810
 20
136.690269
 30
0.0
 10
162.085574
 20
136.284112
 30
0.0
 10
162.178567
 20
135.816605
 30
0.0
 10
162.489426
 20
135.505746
 30
0.0
  0
SPLINE
  5
170
100
AcDbEntity
  8
Layer_1
 62
7
100
AcDbSpline
 70
8
 71
3
 72
8
 73
4
 74
0
 40
0
 40
0
 40
0
 40
0
 40
1
 40
1
 40
1
 40
1
 10
162.489426
 20
135.505746
 30
0.0
 10
162.800285
 20
135.194887
 30
0.0
 10
163.267792
 20
135.101894
 30
0.0
 10
163.673949
 20
135.270130
 30
0.0
  0
SPLINE
  5
171
100
AcDbEntity
  8
Layer_1
 62
7
100
AcDbSpline
 70
8
 71
3
 72
8
 73
4
 74
0
 40
0
 40
0
 40
0
 40
0
 40
1
 40
1
 40
1
 40
1
 10
163.673949
 20
135.270130
 30
0.0
 10
164.080106
 20
135.438366
 30
0.0
 10
164.344927
 20
135.834699
 30
0.0
 10
164.344927
 20
136.274320
 30
0.0
  0
SPLINE
  5
172
100
AcDbEntity
  8
Layer_1
 62
7
100
AcDbSpline
 70
8
 71
3
 72
8
 73
4
 74
0
 40
0
 40
0
 40
0
 40
0
 40
1
 40
1
 40
1
 40
1
 10
164.344927
 20
136.274320
 30
0.0
 10
164.344927
 20
136.562591
 30
0.0
 10
164.230412
 20
136.839055
 30
0.0
 10
164.026574
 20
137.042894
 30
0.0
  0
SPLINE
  5
173
100
AcDbEntity
  8
Layer_1
 62
7
100
AcDbSpline
 70
8
 71
3
 72
8
 73
4
 74
0
 40
0
 40
0
 40
0
 40
0
 40
1
 40
1
 40
1
 40
1
 10
164.026574
 20
137.042894
 30
0.0
 10
163.822735
 20
137.246732
 30
0.0
 10
163.546271
 20
137.361247
 30
0.0
 10
163.258000
 20
137.361247
 30
0.0
  0
LWPOLYLINE
  5
174
100
AcDbEntity
  8
Layer_1
 62
7
100
AcDbPolyline
 90
1
 70
1
 10
163.258060
 20
287.894928
 30
0.0
  0
SPLINE
  5
175
100
AcDbEntity
  8
Layer_1
 62
7
100
AcDbSpline
 70
8
 71
3
 72
8
 73
4
 74
0
 40
0
 40
0
 40
0
 40
0
 40
1
 40
1
 40
1
 40
1
 10
10.191668
 20
137.361247
 30
0.0
 10
9.752047
 20
137.361247
 30
0.0
 10
9.355714
 20
137.096426
 30
0.0
 10
9.187478
 20
136.690269
 30
0.0
  0
SPLINE
  5
176
100
AcDbEntity
  8
Layer_1
 62
7
100
AcDbSpline
 70
8
 71
3
 72
8
 73
4
 74
0
 40
0
 40
0
 40
0
 40
0
 40
1
 40
1
 40
1
 40
1
 10
9.187478
 20
136.690269
 30
0.0
 10
9.019242
 20
136.284112
 30
0.0
 10
9.112235
 20
135.816605
 30
0.0
 10
9.423094
 20
135.505746
 30
0.0
  0
SPLINE
  5
177
100
AcDbEntity
  8
Layer_1
 62
7
100
AcDbSpline
 70
8
 71
3
 72
8
 73
4
 74
0
 40
0
 40
0
 40
0
 40
0
 40
1
 40
1
 40
1
 40
1
 10
9.423094
 20
135.505746
 30
0.0
 10
9.733953
 20
135.194887
 30
0.0
 10
10.201460
 20
135.101894
 30
0.0
 10
10.607617
 20
135.270130
 30
0.0
  0
SPLINE
  5
178
100
AcDbEntity
  8
Layer_1
 62
7
100
AcDbSpline
 70
8
 71
3
 72
8
 73
4
 74
0
 40
0
 40
0
 40
0
 40
0
 40
1
 40
1
 40
1
 40
1
 10
10.607617
 20
135.270130
 30
0.0
 10
11.013774
 20
135.438366
 30
0.0
 10
11.278595
 20
135.834699
 30
0.0
 10
11.278595
 20
136.274320
 30
0.0
  0
SPLINE
  5
179
100
AcDbEntity
  8
Layer_1
 62
7
100
AcDbSpline
 70
8
 71
3
 72
8
 73
4
 74
0
 40
0
 40
0
 40
0
 40
0
 40
1
 40
1
 40
1
 40
1
 10
11.278595
 20
136.274320
 30
0.0
 10
11.278595
 20
136.562591
 30
0.0
 10
11.164080
 20
136.839055
 30
0.0
 10
10.960242
 20
137.042894
 30
0.0
  0
SPLINE
  5
17a
100
AcDbEntity
  8
Layer_1
 62
7
100
AcDbSpline
 70
8
 71
3
 72
8
 73
4
 74
0
 40
0
 40
0
 40
0
 40
0
 40
1
 40
1
 40
1
 40
1
 10
10.960242
 20
137.042894
 30
0.0
 10
10.756403
 20
137.246732
 30
0.0
 10
10.479939
 20
137.361247
 30
0.0
 10
10.191668
 20
137.361247
 30
0.0
  0
LWPOLYLINE
  5
17b
100
AcDbEntity
  8
Layer_1
 62
7
100
AcDbPolyline
 90
1
 70
1
 10
163.258000
 20
137.361247
 30
0.0
  0
SPLINE
  5
17c
100
AcDbEntity
  8
Layer_1
 62
7
100
AcDbSpline
 70
8
 71
3
 72
8
 73
4
 74
0
 40
0
 40
0
 40
0
 40
0
 40
1
 40
1
 40
1
 40
1
 10
317.308010
 20
287.894928
 30
0.0
 10
316.868389
 20
287.894928
 30
0.0
 10
316.472056
 20
287.630107
 30
0.0
 10
316.303820
 20
287.223950
 30
0.0
  0
SPLINE
  5
17d
100
AcDbEntity
  8
Layer_1
 62
7
100
AcDbSpline
 70
8
 71
3
 72
8
 73
4
 74
0
 40
0
 40
0
 40
0
 40
0
 40
1
 40
1
 40
1
 40
1
 10
316.303820
 20
287.223950
 30
0.0
 10
316.135584
 20
286.817793
 30
0.0
 10
316.228577
 20
286.350286
 30
0.0
 10
316.539436
 20
286.039427
 30
0.0
  0
SPLINE
  5
17e
100
AcDbEntity
  8
Layer_1
 62
7
100
AcDbSpline
 70
8
 71
3
 72
8
 73
4
 74
0
 40
0
 40
0
 40
0
 40
0
 40
1
 40
1
 40
1
 40
1
 10
316.539436
 20
286.039427
 30
0.0
 10
316.850295
 20
285.728568
 30
0.0
 10
317.317802
 20
285.635575
 30
0.0
 10
317.723959
 20
285.803811
 30
0.0
  0
SPLINE
  5
17f
100
AcDbEntity
  8
Layer_1
 62
7
100
AcDbSpline
 70
8
 71
3
 72
8
 73
4
 74
0
 40
0
 40
0
 40
0
 40
0
 40
1
 40
1
 40
1
 40
1
 10
317.723959
 20
285.803811
 30
0.0
 10
318.130116
 20
285.972047
 30
0.0
 10
318.394937
 20
286.368380
 30
0.0
 10
318.394937
 20
286.808001
 30
0.0
  0
SPLINE
  5
180
100
AcDbEntity
  8
Layer_1
 62
7
100
AcDbSpline
 70
8
 71
3
 72
8
 73
4
 74
0
 40
0
 40
0
 40
0
 40
0
 40
1
 40
1
 40
1
 40
1
 10
318.394937
 20
286.808001
 30
0.0
 10
318.394937
 20
287.096272
 30
0.0
 10
318.280422
 20
287.372736
 30
0.0
 10
318.076584
 20
287.576575
 30
0.0
  0
SPLINE
  5
181
100
AcDbEntity
  8
Layer_1
 62
7
100
AcDbSpline
 70
8
 71
3
 72
8
 73
4
 74
0
 40
0
 40
0
 40
0
 40
0
 40
1
 40
1
 40
1
 40
1
 10
318.076584
 20
287.576575
 30
0.0
 10
317.872745
 20
287.780413
 30
0.0
 10
317.596281
 20
287.894928
 30
0.0
 10
317.308010
 20
287.894928
 30
0.0
  0
LWPOLYLINE
  5
182
100
AcDbEntity
  8
Layer_1
 62
7
100
AcDbPolyline
 90
1
 70
1
 10
10.191668
 20
137.361247
 30
0.0
  0
SPLINE
  5
183
100
AcDbEntity
  8
Layer_1
 62
7
100
AcDbSpline
 70
8
 71
3
 72
8
 73
4
 74
0
 40
0
 40
0
 40
0
 40
0
 40
1
 40
1
 40
1
 40
1
 10
317.308010
 20
137.361247
 30
0.0
 10
316.868389
 20
137.361247
 30
0.0
 10
316.472056
 20
137.096426
 30
0.0
 10
316.303820
 20
136.690269
 30
0.0
  0
SPLINE
  5
184
100
AcDbEntity
  8
Layer_1
 62
7
100
AcDbSpline
 70
8
 71
3
 72
8
 73
4
 74
0
 40
0
 40
0
 40
0
 40
0
 40
1
 40
1
 40
1
 40
1
 10
316.303820
 20
136.690269
 30
0.0
 10
316.135584
 20
136.284112
 30
0.0
 10
316.228577
 20
135.816605
 30
0.0
 10
316.539436
 20
135.505746
 30
0.0
  0
SPLINE
  5
185
100
AcDbEntity
  8
Layer_1
 62
7
100
AcDbSpline
 70
8
 71
3
 72
8
 73
4
 74
0
 40
0
 40
0
 40
0
 40
0
 40
1
 40
1
 40
1
 40
1
 10
316.539436
 20
135.505746
 30
0.0
 10
316.850295
 20
135.194887
 30
0.0
 10
317.317802
 20
135.101894
 30
0.0
 10
317.723959
 20
135.270130
 30
0.0
  0
SPLINE
  5
186
100
AcDbEntity
  8
Layer_1
 62
7
100
AcDbSpline
 70
8
 71
3
 72
8
 73
4
 74
0
 40
0
 40
0
 40
0
 40
0
 40
1
 40
1
 40
1
 40
1
 10
317.723959
 20
135.270130
 30
0.0
 10
318.130116
 20
135.438366
 30
0.0
 10
318.394937
 20
135.834699
 30
0.0
 10
318.394937
 20
136.274320
 30
0.0
  0
SPLINE
  5
187
100
AcDbEntity
  8
Layer_1
 62
7
100
AcDbSpline
 70
8
 71
3
 72
8
 73
4
 74
0
 40
0
 40
0
 40
0
 40
0
 40
1
 40
1
 40
1
 40
1
 10
318.394937
 20
136.274320
 30
0.0
 10
318.394937
 20
136.562591
 30
0.0
 10
318.280422
 20
136.839055
 30
0.0
 10
318.076584
 20
137.042894
 30
0.0
  0
SPLINE
  5
188
100
AcDbEntity
  8
Layer_1
 62
7
100
AcDbSpline
 70
8
 71
3
 72
8
 73
4
 74
0
 40
0
 40
0
 40
0
 40
0
 40
1
 40
1
 40
1
 40
1
 10
318.076584
 20
137.042894
 30
0.0
 10
317.872745
 20
137.246732
 30
0.0
 10
317.596281
 20
137.361247
 30
0.0
 10
317.308010
 20
137.361247
 30
0.0
  0
LWPOLYLINE
  5
189
100
AcDbEntity
  8
Layer_1
 62
7
100
AcDbPolyline
 90
1
 70
1
 10
317.308010
 20
287.894928
 30
0.0
  0
LWPOLYLINE
  5
18a
100
AcDbEntity
  8
Layer_1
 62
7
100
AcDbPolyline
 90
1
 70
1
 10
317.308010
 20
137.361247
 30
0.0
  0
ENDSEC
  0
SECTION
  2
OBJECTS
  0
DICTIONARY
  5
C
330
0
100
AcDbDictionary
  3
ACAD_GROUP
350
D
  3
ACAD_MLINESTYLE
350
17
  0
DICTIONARY
  5
D
330
C
100
AcDbDictionary
  0
DICTIONARY
  5
1A
330
C
100
AcDbDictionary
  0
DICTIONARY
  5
17
330
C
100
AcDbDictionary
  3
STANDARD
350
18
  0
DICTIONARY
  5
19
330
C
100
AcDbDictionary
  0
ENDSEC
  0
EOF
