  0
SECTION
  2
HEADER
  9
$ACADVER
  1
AC1014
  9
$HANDSEED
  5
FFFF
  9
$INSUNITS
 70
     4
  9
$MEASUREMENT
 70
     1
  0
ENDSEC
  0
SECTION
  2
TABLES
  0
TABLE
  2
VPORT
  5
8
330
0
100
AcDbSymbolTable
 70
     4
  0
VPORT
  5
2E
330
8
100
AcDbSymbolTableRecord
100
AcDbViewportTableRecord
  2
*ACTIVE
 70
     0
 10
0.0
 20
0.0
 11
1.0
 21
1.0
 12
210.0
 22
148.5
 13
0.0
 23
0.0
 14
10.0
 24
10.0
 15
10.0
 25
10.0
 16
0.0
 26
0.0
 36
1.0
 17
0.0
 27
0.0
 37
0.0
 40
341.0
 41
1.24
 42
50.0
 43
0.0
 44
0.0
 50
0.0
 51
0.0
 71
     0
 72
   100
 73
     1
 74
     3
 75
     0
 76
     0
 77
     0
 78
     0
  0
ENDTAB
  0
TABLE
  2
LTYPE
  5
5
330
0
100
AcDbSymbolTable
 70
     1
  0
LTYPE
  5
14
330
5
100
AcDbSymbolTableRecord
100
AcDbLinetypeTableRecord
  2
BYBLOCK
 70
     0
  3

 72
    65
 73
     0
 40
0.0
  0
LTYPE
  5
15
330
5
100
AcDbSymbolTableRecord
100
AcDbLinetypeTableRecord
  2
BYLAYER
 70
     0
  3

 72
    65
 73
     0
 40
0.0
  0
LTYPE
  5
16
330
5
100
AcDbSymbolTableRecord
100
AcDbLinetypeTableRecord
  2
CONTINUOUS
 70
     0
  3
Solid line
 72
    65
 73
     0
 40
0.0
  0
ENDTAB
  0
TABLE
  2
LAYER
  5
2
100
AcDbSymbolTable
 70
2
  0
LAYER
  5
50
100
AcDbSymbolTableRecord
100
AcDbLayerTableRecord
  2
0
 70
0
  6
CONTINUOUS
  0
LAYER
  5
51
100
AcDbSymbolTableRecord
100
AcDbLayerTableRecord
  2
Layer_1
 70
0
  6
CONTINUOUS
  0
ENDTAB
  0
TABLE
  2
STYLE
  5
3
330
0
100
AcDbSymbolTable
 70
     1
  0
STYLE
  5
11
330
3
100
AcDbSymbolTableRecord
100
AcDbTextStyleTableRecord
  2
STANDARD
 70
     0
 40
0.0
 41
1.0
 50
0.0
 71
     0
 42
2.5
  3
txt
  4

  0
ENDTAB
  0
TABLE
  2
VIEW
  5
6
330
0
100
AcDbSymbolTable
 70
     0
  0
ENDTAB
  0
TABLE
  2
UCS
  5
7
330
0
100
AcDbSymbolTable
 70
     0
  0
ENDTAB
  0
TABLE
  2
APPID
  5
9
330
0
100
AcDbSymbolTable
 70
     2
  0
APPID
  5
12
330
9
100
AcDbSymbolTableRecord
100
AcDbRegAppTableRecord
  2
ACAD
 70
     0
  0
ENDTAB
  0
TABLE
  2
DIMSTYLE
  5
A
330
0
100
AcDbSymbolTable
 70
     1
  0
DIMSTYLE
105
27
330
A
100
AcDbSymbolTableRecord
100
AcDbDimStyleTableRecord
  2
ISO-25
 70
     0
  3

  4

  5

  6

  7

 40
1.0
 41
2.5
 42
0.625
 43
3.75
 44
1.25
 45
0.0
 46
0.0
 47
0.0
 48
0.0
140
2.5
141
2.5
142
0.0
143
0.03937007874016
144
1.0
145
0.0
146
1.0
147
0.625
 71
     0
 72
     0
 73
     0
 74
     0
 75
     0
 76
     0
 77
     1
 78
     8
170
     0
171
     3
172
     1
173
     0
174
     0
175
     0
176
     0
177
     0
178
     0
270
     2
271
     2
272
     2
273
     2
274
     3
340
11
275
     0
280
     0
281
     0
282
     0
283
     0
284
     8
285
     0
286
     0
287
     3
288
     0
  0
ENDTAB
  0
TABLE
  2
BLOCK_RECORD
  5
1
330
0
100
AcDbSymbolTable
 70
     1
  0
BLOCK_RECORD
  5
1F
330
1
100
AcDbSymbolTableRecord
100
AcDbBlockTableRecord
  2
*MODEL_SPACE
  0
BLOCK_RECORD
  5
1B
330
1
100
AcDbSymbolTableRecord
100
AcDbBlockTableRecord
  2
*PAPER_SPACE
  0
ENDTAB
  0
ENDSEC
  0
SECTION
  2
BLOCKS
  0
BLOCK
  5
20
330
1F
100
AcDbEntity
  8
0
100
AcDbBlockBegin
  2
*MODEL_SPACE
 70
     0
 10
0.0
 20
0.0
 30
0.0
  3
*MODEL_SPACE
  1

  0
ENDBLK
  5
21
330
1F
100
AcDbEntity
  8
0
100
AcDbBlockEnd
  0
BLOCK
  5
1C
330
1B
100
AcDbEntity
 67
     1
  8
0
100
AcDbBlockBegin
  2
*PAPER_SPACE
  1

  0
ENDBLK
  5
1D
330
1B
100
AcDbEntity
 67
     1
  8
0
100
AcDbBlockEnd
  0
ENDSEC
  0
SECTION
  2
ENTITIES
  0
SPLINE
  5
100
100
AcDbEntity
  8
Layer_1
 62
7
100
AcDbSpline
 70
8
 71
3
 72
8
 73
4
 74
0
 40
0
 40
0
 40
0
 40
0
 40
1
 40
1
 40
1
 40
1
 10
26.988708
 20
240.014873
 30
0.0
 10
22.214116
 20
240.014873
 30
0.0
 10
17.909661
 20
237.138728
 30
0.0
 10
16.082504
 20
232.727581
 30
0.0
  0
SPLINE
  5
101
100
AcDbEntity
  8
Layer_1
 62
7
100
AcDbSpline
 70
8
 71
3
 72
8
 73
4
 74
0
 40
0
 40
0
 40
0
 40
0
 40
1
 40
1
 40
1
 40
1
 10
16.082504
 20
232.727581
 30
0.0
 10
14.255347
 20
228.316433
 30
0.0
 10
15.265315
 20
223.238982
 30
0.0
 10
18.641461
 20
219.862836
 30
0.0
  0
SPLINE
  5
102
100
AcDbEntity
  8
Layer_1
 62
7
100
AcDbSpline
 70
8
 71
3
 72
8
 73
4
 74
0
 40
0
 40
0
 40
0
 40
0
 40
1
 40
1
 40
1
 40
1
 10
18.641461
 20
219.862836
 30
0.0
 10
22.017607
 20
216.486690
 30
0.0
 10
27.095058
 20
215.476722
 30
0.0
 10
31.506206
 20
217.303879
 30
0.0
  0
SPLINE
  5
103
100
AcDbEntity
  8
Layer_1
 62
7
100
AcDbSpline
 70
8
 71
3
 72
8
 73
4
 74
0
 40
0
 40
0
 40
0
 40
0
 40
1
 40
1
 40
1
 40
1
 10
31.506206
 20
217.303879
 30
0.0
 10
35.917353
 20
219.131036
 30
0.0
 10
38.793498
 20
223.435491
 30
0.0
 10
38.793498
 20
228.210083
 30
0.0
  0
SPLINE
  5
104
100
AcDbEntity
  8
Layer_1
 62
7
100
AcDbSpline
 70
8
 71
3
 72
8
 73
4
 74
0
 40
0
 40
0
 40
0
 40
0
 40
1
 40
1
 40
1
 40
1
 10
38.793498
 20
228.210083
 30
0.0
 10
38.793498
 20
231.340908
 30
0.0
 10
37.549783
 20
234.343502
 30
0.0
 10
35.335955
 20
236.557330
 30
0.0
  0
SPLINE
  5
105
100
AcDbEntity
  8
Layer_1
 62
7
100
AcDbSpline
 70
8
 71
3
 72
8
 73
4
 74
0
 40
0
 40
0
 40
0
 40
0
 40
1
 40
1
 40
1
 40
1
 10
35.335955
 20
236.557330
 30
0.0
 10
33.122127
 20
238.771158
 30
0.0
 10
30.119533
 20
240.014873
 30
0.0
 10
26.988708
 20
240.014873
 30
0.0
  0
SPLINE
  5
106
100
AcDbEntity
  8
Layer_1
 62
7
100
AcDbSpline
 70
8
 71
3
 72
8
 73
4
 74
0
 40
0
 40
0
 40
0
 40
0
 40
1
 40
1
 40
1
 40
1
 10
56.988380
 20
240.014873
 30
0.0
 10
52.213788
 20
240.014873
 30
0.0
 10
47.909333
 20
237.138728
 30
0.0
 10
46.082176
 20
232.727581
 30
0.0
  0
SPLINE
  5
107
100
AcDbEntity
  8
Layer_1
 62
7
100
AcDbSpline
 70
8
 71
3
 72
8
 73
4
 74
0
 40
0
 40
0
 40
0
 40
0
 40
1
 40
1
 40
1
 40
1
 10
46.082176
 20
232.727581
 30
0.0
 10
44.255019
 20
228.316433
 30
0.0
 10
45.264987
 20
223.238982
 30
0.0
 10
48.641133
 20
219.862836
 30
0.0
  0
SPLINE
  5
108
100
AcDbEntity
  8
Layer_1
 62
7
100
AcDbSpline
 70
8
 71
3
 72
8
 73
4
 74
0
 40
0
 40
0
 40
0
 40
0
 40
1
 40
1
 40
1
 40
1
 10
48.641133
 20
219.862836
 30
0.0
 10
52.017279
 20
216.486690
 30
0.0
 10
57.094730
 20
215.476722
 30
0.0
 10
61.505878
 20
217.303879
 30
0.0
  0
SPLINE
  5
109
100
AcDbEntity
  8
Layer_1
 62
7
100
AcDbSpline
 70
8
 71
3
 72
8
 73
4
 74
0
 40
0
 40
0
 40
0
 40
0
 40
1
 40
1
 40
1
 40
1
 10
61.505878
 20
217.303879
 30
0.0
 10
65.917025
 20
219.131036
 30
0.0
 10
68.793170
 20
223.435491
 30
0.0
 10
68.793170
 20
228.210083
 30
0.0
  0
SPLINE
  5
10a
100
AcDbEntity
  8
Layer_1
 62
7
100
AcDbSpline
 70
8
 71
3
 72
8
 73
4
 74
0
 40
0
 40
0
 40
0
 40
0
 40
1
 40
1
 40
1
 40
1
 10
68.793170
 20
228.210083
 30
0.0
 10
68.793170
 20
231.340908
 30
0.0
 10
67.549455
 20
234.343502
 30
0.0
 10
65.335627
 20
236.557330
 30
0.0
  0
SPLINE
  5
10b
100
AcDbEntity
  8
Layer_1
 62
7
100
AcDbSpline
 70
8
 71
3
 72
8
 73
4
 74
0
 40
0
 40
0
 40
0
 40
0
 40
1
 40
1
 40
1
 40
1
 10
65.335627
 20
236.557330
 30
0.0
 10
63.121799
 20
238.771158
 30
0.0
 10
60.119205
 20
240.014873
 30
0.0
 10
56.988380
 20
240.014873
 30
0.0
  0
LWPOLYLINE
  5
10c
100
AcDbEntity
  8
Layer_1
 62
7
100
AcDbPolyline
 90
1
 70
1
 10
26.988708
 20
240.014873
 30
0.0
  0
SPLINE
  5
10d
100
AcDbEntity
  8
Layer_1
 62
7
100
AcDbSpline
 70
8
 71
3
 72
8
 73
4
 74
0
 40
0
 40
0
 40
0
 40
0
 40
1
 40
1
 40
1
 40
1
 10
82.184120
 20
225.014926
 30
0.0
 10
77.409528
 20
225.014926
 30
0.0
 10
73.105073
 20
222.138781
 30
0.0
 10
71.277916
 20
217.727634
 30
0.0
  0
SPLINE
  5
10e
100
AcDbEntity
  8
Layer_1
 62
7
100
AcDbSpline
 70
8
 71
3
 72
8
 73
4
 74
0
 40
0
 40
0
 40
0
 40
0
 40
1
 40
1
 40
1
 40
1
 10
71.277916
 20
217.727634
 30
0.0
 10
69.450759
 20
213.316486
 30
0.0
 10
70.460727
 20
208.239035
 30
0.0
 10
73.836873
 20
204.862889
 30
0.0
  0
SPLINE
  5
10f
100
AcDbEntity
  8
Layer_1
 62
7
100
AcDbSpline
 70
8
 71
3
 72
8
 73
4
 74
0
 40
0
 40
0
 40
0
 40
0
 40
1
 40
1
 40
1
 40
1
 10
73.836873
 20
204.862889
 30
0.0
 10
77.213019
 20
201.486743
 30
0.0
 10
82.290470
 20
200.476775
 30
0.0
 10
86.701618
 20
202.303932
 30
0.0
  0
SPLINE
  5
110
100
AcDbEntity
  8
Layer_1
 62
7
100
AcDbSpline
 70
8
 71
3
 72
8
 73
4
 74
0
 40
0
 40
0
 40
0
 40
0
 40
1
 40
1
 40
1
 40
1
 10
86.701618
 20
202.303932
 30
0.0
 10
91.112765
 20
204.131089
 30
0.0
 10
93.988910
 20
208.435544
 30
0.0
 10
93.988910
 20
213.210136
 30
0.0
  0
SPLINE
  5
111
100
AcDbEntity
  8
Layer_1
 62
7
100
AcDbSpline
 70
8
 71
3
 72
8
 73
4
 74
0
 40
0
 40
0
 40
0
 40
0
 40
1
 40
1
 40
1
 40
1
 10
93.988910
 20
213.210136
 30
0.0
 10
93.988910
 20
216.340961
 30
0.0
 10
92.745195
 20
219.343555
 30
0.0
 10
90.531367
 20
221.557383
 30
0.0
  0
SPLINE
  5
112
100
AcDbEntity
  8
Layer_1
 62
7
100
AcDbSpline
 70
8
 71
3
 72
8
 73
4
 74
0
 40
0
 40
0
 40
0
 40
0
 40
1
 40
1
 40
1
 40
1
 10
90.531367
 20
221.557383
 30
0.0
 10
88.317539
 20
223.771211
 30
0.0
 10
85.314945
 20
225.014926
 30
0.0
 10
82.184120
 20
225.014926
 30
0.0
  0
LWPOLYLINE
  5
113
100
AcDbEntity
  8
Layer_1
 62
7
100
AcDbPolyline
 90
1
 70
1
 10
56.988380
 20
240.014873
 30
0.0
  0
SPLINE
  5
114
100
AcDbEntity
  8
Layer_1
 62
7
100
AcDbSpline
 70
8
 71
3
 72
8
 73
4
 74
0
 40
0
 40
0
 40
0
 40
0
 40
1
 40
1
 40
1
 40
1
 10
193.202450
 20
219.618930
 30
0.0
 10
188.427858
 20
219.618930
 30
0.0
 10
184.123403
 20
216.742785
 30
0.0
 10
182.296246
 20
212.331638
 30
0.0
  0
SPLINE
  5
115
100
AcDbEntity
  8
Layer_1
 62
7
100
AcDbSpline
 70
8
 71
3
 72
8
 73
4
 74
0
 40
0
 40
0
 40
0
 40
0
 40
1
 40
1
 40
1
 40
1
 10
182.296246
 20
212.331638
 30
0.0
 10
180.469089
 20
207.920490
 30
0.0
 10
181.479057
 20
202.843039
 30
0.0
 10
184.855203
 20
199.466893
 30
0.0
  0
SPLINE
  5
116
100
AcDbEntity
  8
Layer_1
 62
7
100
AcDbSpline
 70
8
 71
3
 72
8
 73
4
 74
0
 40
0
 40
0
 40
0
 40
0
 40
1
 40
1
 40
1
 40
1
 10
184.855203
 20
199.466893
 30
0.0
 10
188.231349
 20
196.090747
 30
0.0
 10
193.308800
 20
195.080779
 30
0.0
 10
197.719948
 20
196.907936
 30
0.0
  0
SPLINE
  5
117
100
AcDbEntity
  8
Layer_1
 62
7
100
AcDbSpline
 70
8
 71
3
 72
8
 73
4
 74
0
 40
0
 40
0
 40
0
 40
0
 40
1
 40
1
 40
1
 40
1
 10
197.719948
 20
196.907936
 30
0.0
 10
202.131095
 20
198.735093
 30
0.0
 10
205.007240
 20
203.039548
 30
0.0
 10
205.007240
 20
207.814140
 30
0.0
  0
SPLINE
  5
118
100
AcDbEntity
  8
Layer_1
 62
7
100
AcDbSpline
 70
8
 71
3
 72
8
 73
4
 74
0
 40
0
 40
0
 40
0
 40
0
 40
1
 40
1
 40
1
 40
1
 10
205.007240
 20
207.814140
 30
0.0
 10
205.007240
 20
210.944965
 30
0.0
 10
203.763525
 20
213.947559
 30
0.0
 10
201.549697
 20
216.161387
 30
0.0
  0
SPLINE
  5
119
100
AcDbEntity
  8
Layer_1
 62
7
100
AcDbSpline
 70
8
 71
3
 72
8
 73
4
 74
0
 40
0
 40
0
 40
0
 40
0
 40
1
 40
1
 40
1
 40
1
 10
201.549697
 20
216.161387
 30
0.0
 10
199.335869
 20
218.375215
 30
0.0
 10
196.333275
 20
219.618930
 30
0.0
 10
193.202450
 20
219.618930
 30
0.0
  0
LWPOLYLINE
  5
11a
100
AcDbEntity
  8
Layer_1
 62
7
100
AcDbPolyline
 90
1
 70
1
 10
82.184120
 20
225.014926
 30
0.0
  0
SPLINE
  5
11b
100
AcDbEntity
  8
Layer_1
 62
7
100
AcDbSpline
 70
8
 71
3
 72
8
 73
4
 74
0
 40
0
 40
0
 40
0
 40
0
 40
1
 40
1
 40
1
 40
1
 10
164.552510
 20
225.014926
 30
0.0
 10
159.777918
 20
225.014926
 30
0.0
 10
155.473463
 20
222.138781
 30
0.0
 10
153.646306
 20
217.727634
 30
0.0
  0
SPLINE
  5
11c
100
AcDbEntity
  8
Layer_1
 62
7
100
AcDbSpline
 70
8
 71
3
 72
8
 73
4
 74
0
 40
0
 40
0
 40
0
 40
0
 40
1
 40
1
 40
1
 40
1
 10
153.646306
 20
217.727634
 30
0.0
 10
151.819149
 20
213.316486
 30
0.0
 10
152.829117
 20
208.239035
 30
0.0
 10
156.205263
 20
204.862889
 30
0.0
  0
SPLINE
  5
11d
100
AcDbEntity
  8
Layer_1
 62
7
100
AcDbSpline
 70
8
 71
3
 72
8
 73
4
 74
0
 40
0
 40
0
 40
0
 40
0
 40
1
 40
1
 40
1
 40
1
 10
156.205263
 20
204.862889
 30
0.0
 10
159.581409
 20
201.486743
 30
0.0
 10
164.658860
 20
200.476775
 30
0.0
 10
169.070008
 20
202.303932
 30
0.0
  0
SPLINE
  5
11e
100
AcDbEntity
  8
Layer_1
 62
7
100
AcDbSpline
 70
8
 71
3
 72
8
 73
4
 74
0
 40
0
 40
0
 40
0
 40
0
 40
1
 40
1
 40
1
 40
1
 10
169.070008
 20
202.303932
 30
0.0
 10
173.481155
 20
204.131089
 30
0.0
 10
176.357300
 20
208.435544
 30
0.0
 10
176.357300
 20
213.210136
 30
0.0
  0
SPLINE
  5
11f
100
AcDbEntity
  8
Layer_1
 62
7
100
AcDbSpline
 70
8
 71
3
 72
8
 73
4
 74
0
 40
0
 40
0
 40
0
 40
0
 40
1
 40
1
 40
1
 40
1
 10
176.357300
 20
213.210136
 30
0.0
 10
176.357300
 20
216.340961
 30
0.0
 10
175.113585
 20
219.343555
 30
0.0
 10
172.899757
 20
221.557383
 30
0.0
  0
SPLINE
  5
120
100
AcDbEntity
  8
Layer_1
 62
7
100
AcDbSpline
 70
8
 71
3
 72
8
 73
4
 74
0
 40
0
 40
0
 40
0
 40
0
 40
1
 40
1
 40
1
 40
1
 10
172.899757
 20
221.557383
 30
0.0
 10
170.685929
 20
223.771211
 30
0.0
 10
167.683335
 20
225.014926
 30
0.0
 10
164.552510
 20
225.014926
 30
0.0
  0
LWPOLYLINE
  5
121
100
AcDbEntity
  8
Layer_1
 62
7
100
AcDbPolyline
 90
1
 70
1
 10
193.202450
 20
219.618930
 30
0.0
  0
SPLINE
  5
122
100
AcDbEntity
  8
Layer_1
 62
7
100
AcDbSpline
 70
8
 71
3
 72
8
 73
4
 74
0
 40
0
 40
0
 40
0
 40
0
 40
1
 40
1
 40
1
 40
1
 10
135.492830
 20
225.014926
 30
0.0
 10
130.718238
 20
225.014926
 30
0.0
 10
126.413783
 20
222.138781
 30
0.0
 10
124.586626
 20
217.727634
 30
0.0
  0
SPLINE
  5
123
100
AcDbEntity
  8
Layer_1
 62
7
100
AcDbSpline
 70
8
 71
3
 72
8
 73
4
 74
0
 40
0
 40
0
 40
0
 40
0
 40
1
 40
1
 40
1
 40
1
 10
124.586626
 20
217.727634
 30
0.0
 10
122.759469
 20
213.316486
 30
0.0
 10
123.769437
 20
208.239035
 30
0.0
 10
127.145583
 20
204.862889
 30
0.0
  0
SPLINE
  5
124
100
AcDbEntity
  8
Layer_1
 62
7
100
AcDbSpline
 70
8
 71
3
 72
8
 73
4
 74
0
 40
0
 40
0
 40
0
 40
0
 40
1
 40
1
 40
1
 40
1
 10
127.145583
 20
204.862889
 30
0.0
 10
130.521729
 20
201.486743
 30
0.0
 10
135.599180
 20
200.476775
 30
0.0
 10
140.010328
 20
202.303932
 30
0.0
  0
SPLINE
  5
125
100
AcDbEntity
  8
Layer_1
 62
7
100
AcDbSpline
 70
8
 71
3
 72
8
 73
4
 74
0
 40
0
 40
0
 40
0
 40
0
 40
1
 40
1
 40
1
 40
1
 10
140.010328
 20
202.303932
 30
0.0
 10
144.421475
 20
204.131089
 30
0.0
 10
147.297620
 20
208.435544
 30
0.0
 10
147.297620
 20
213.210136
 30
0.0
  0
SPLINE
  5
126
100
AcDbEntity
  8
Layer_1
 62
7
100
AcDbSpline
 70
8
 71
3
 72
8
 73
4
 74
0
 40
0
 40
0
 40
0
 40
0
 40
1
 40
1
 40
1
 40
1
 10
147.297620
 20
213.210136
 30
0.0
 10
147.297620
 20
216.340961
 30
0.0
 10
146.053905
 20
219.343555
 30
0.0
 10
143.840077
 20
221.557383
 30
0.0
  0
SPLINE
  5
127
100
AcDbEntity
  8
Layer_1
 62
7
100
AcDbSpline
 70
8
 71
3
 72
8
 73
4
 74
0
 40
0
 40
0
 40
0
 40
0
 40
1
 40
1
 40
1
 40
1
 10
143.840077
 20
221.557383
 30
0.0
 10
141.626249
 20
223.771211
 30
0.0
 10
138.623655
 20
225.014926
 30
0.0
 10
135.492830
 20
225.014926
 30
0.0
  0
LWPOLYLINE
  5
128
100
AcDbEntity
  8
Layer_1
 62
7
100
AcDbPolyline
 90
1
 70
1
 10
164.552510
 20
225.014926
 30
0.0
  0
SPLINE
  5
129
100
AcDbEntity
  8
Layer_1
 62
7
100
AcDbSpline
 70
8
 71
3
 72
8
 73
4
 74
0
 40
0
 40
0
 40
0
 40
0
 40
1
 40
1
 40
1
 40
1
 10
98.242455
 20
183.011768
 30
0.0
 10
92.274215
 20
183.011768
 30
0.0
 10
86.893646
 20
179.416587
 30
0.0
 10
84.609700
 20
173.902652
 30
0.0
  0
SPLINE
  5
12a
100
AcDbEntity
  8
Layer_1
 62
7
100
AcDbSpline
 70
8
 71
3
 72
8
 73
4
 74
0
 40
0
 40
0
 40
0
 40
0
 40
1
 40
1
 40
1
 40
1
 10
84.609700
 20
173.902652
 30
0.0
 10
82.325753
 20
168.388717
 30
0.0
 10
83.588213
 20
162.041904
 30
0.0
 10
87.808396
 20
157.821721
 30
0.0
  0
SPLINE
  5
12b
100
AcDbEntity
  8
Layer_1
 62
7
100
AcDbSpline
 70
8
 71
3
 72
8
 73
4
 74
0
 40
0
 40
0
 40
0
 40
0
 40
1
 40
1
 40
1
 40
1
 10
87.808396
 20
157.821721
 30
0.0
 10
92.028579
 20
153.601538
 30
0.0
 10
98.375392
 20
152.339078
 30
0.0
 10
103.889327
 20
154.623025
 30
0.0
  0
SPLINE
  5
12c
100
AcDbEntity
  8
Layer_1
 62
7
100
AcDbSpline
 70
8
 71
3
 72
8
 73
4
 74
0
 40
0
 40
0
 40
0
 40
0
 40
1
 40
1
 40
1
 40
1
 10
103.889327
 20
154.623025
 30
0.0
 10
109.403262
 20
156.906971
 30
0.0
 10
112.998443
 20
162.287540
 30
0.0
 10
112.998443
 20
168.255780
 30
0.0
  0
SPLINE
  5
12d
100
AcDbEntity
  8
Layer_1
 62
7
100
AcDbSpline
 70
8
 71
3
 72
8
 73
4
 74
0
 40
0
 40
0
 40
0
 40
0
 40
1
 40
1
 40
1
 40
1
 10
112.998443
 20
168.255780
 30
0.0
 10
112.998443
 20
172.169311
 30
0.0
 10
111.443799
 20
175.922555
 30
0.0
 10
108.676514
 20
178.689839
 30
0.0
  0
SPLINE
  5
12e
100
AcDbEntity
  8
Layer_1
 62
7
100
AcDbSpline
 70
8
 71
3
 72
8
 73
4
 74
0
 40
0
 40
0
 40
0
 40
0
 40
1
 40
1
 40
1
 40
1
 10
108.676514
 20
178.689839
 30
0.0
 10
105.909230
 20
181.457124
 30
0.0
 10
102.155986
 20
183.011768
 30
0.0
 10
98.242455
 20
183.011768
 30
0.0
  0
LWPOLYLINE
  5
12f
100
AcDbEntity
  8
Layer_1
 62
7
100
AcDbPolyline
 90
1
 70
1
 10
135.492830
 20
225.014926
 30
0.0
  0
SPLINE
  5
130
100
AcDbEntity
  8
Layer_1
 62
7
100
AcDbSpline
 70
8
 71
3
 72
8
 73
4
 74
0
 40
0
 40
0
 40
0
 40
0
 40
1
 40
1
 40
1
 40
1
 10
193.202450
 20
250.014934
 30
0.0
 10
188.427858
 20
250.014934
 30
0.0
 10
184.123403
 20
247.138789
 30
0.0
 10
182.296246
 20
242.727642
 30
0.0
  0
SPLINE
  5
131
100
AcDbEntity
  8
Layer_1
 62
7
100
AcDbSpline
 70
8
 71
3
 72
8
 73
4
 74
0
 40
0
 40
0
 40
0
 40
0
 40
1
 40
1
 40
1
 40
1
 10
182.296246
 20
242.727642
 30
0.0
 10
180.469089
 20
238.316494
 30
0.0
 10
181.479057
 20
233.239043
 30
0.0
 10
184.855203
 20
229.862897
 30
0.0
  0
SPLINE
  5
132
100
AcDbEntity
  8
Layer_1
 62
7
100
AcDbSpline
 70
8
 71
3
 72
8
 73
4
 74
0
 40
0
 40
0
 40
0
 40
0
 40
1
 40
1
 40
1
 40
1
 10
184.855203
 20
229.862897
 30
0.0
 10
188.231349
 20
226.486751
 30
0.0
 10
193.308800
 20
225.476783
 30
0.0
 10
197.719948
 20
227.303940
 30
0.0
  0
SPLINE
  5
133
100
AcDbEntity
  8
Layer_1
 62
7
100
AcDbSpline
 70
8
 71
3
 72
8
 73
4
 74
0
 40
0
 40
0
 40
0
 40
0
 40
1
 40
1
 40
1
 40
1
 10
197.719948
 20
227.303940
 30
0.0
 10
202.131095
 20
229.131097
 30
0.0
 10
205.007240
 20
233.435552
 30
0.0
 10
205.007240
 20
238.210144
 30
0.0
  0
SPLINE
  5
134
100
AcDbEntity
  8
Layer_1
 62
7
100
AcDbSpline
 70
8
 71
3
 72
8
 73
4
 74
0
 40
0
 40
0
 40
0
 40
0
 40
1
 40
1
 40
1
 40
1
 10
205.007240
 20
238.210144
 30
0.0
 10
205.007240
 20
241.340969
 30
0.0
 10
203.763525
 20
244.343563
 30
0.0
 10
201.549697
 20
246.557391
 30
0.0
  0
SPLINE
  5
135
100
AcDbEntity
  8
Layer_1
 62
7
100
AcDbSpline
 70
8
 71
3
 72
8
 73
4
 74
0
 40
0
 40
0
 40
0
 40
0
 40
1
 40
1
 40
1
 40
1
 10
201.549697
 20
246.557391
 30
0.0
 10
199.335869
 20
248.771219
 30
0.0
 10
196.333275
 20
250.014934
 30
0.0
 10
193.202450
 20
250.014934
 30
0.0
  0
LWPOLYLINE
  5
136
100
AcDbEntity
  8
Layer_1
 62
7
100
AcDbPolyline
 90
1
 70
1
 10
98.242455
 20
183.011768
 30
0.0
  0
SPLINE
  5
137
100
AcDbEntity
  8
Layer_1
 62
7
100
AcDbSpline
 70
8
 71
3
 72
8
 73
4
 74
0
 40
0
 40
0
 40
0
 40
0
 40
1
 40
1
 40
1
 40
1
 10
109.481910
 20
241.618930
 30
0.0
 10
104.707318
 20
241.618930
 30
0.0
 10
100.402863
 20
238.742785
 30
0.0
 10
98.575706
 20
234.331638
 30
0.0
  0
SPLINE
  5
138
100
AcDbEntity
  8
Layer_1
 62
7
100
AcDbSpline
 70
8
 71
3
 72
8
 73
4
 74
0
 40
0
 40
0
 40
0
 40
0
 40
1
 40
1
 40
1
 40
1
 10
98.575706
 20
234.331638
 30
0.0
 10
96.748549
 20
229.920490
 30
0.0
 10
97.758517
 20
224.843039
 30
0.0
 10
101.134663
 20
221.466893
 30
0.0
  0
SPLINE
  5
139
100
AcDbEntity
  8
Layer_1
 62
7
100
AcDbSpline
 70
8
 71
3
 72
8
 73
4
 74
0
 40
0
 40
0
 40
0
 40
0
 40
1
 40
1
 40
1
 40
1
 10
101.134663
 20
221.466893
 30
0.0
 10
104.510809
 20
218.090747
 30
0.0
 10
109.588260
 20
217.080779
 30
0.0
 10
113.999408
 20
218.907936
 30
0.0
  0
SPLINE
  5
13a
100
AcDbEntity
  8
Layer_1
 62
7
100
AcDbSpline
 70
8
 71
3
 72
8
 73
4
 74
0
 40
0
 40
0
 40
0
 40
0
 40
1
 40
1
 40
1
 40
1
 10
113.999408
 20
218.907936
 30
0.0
 10
118.410555
 20
220.735093
 30
0.0
 10
121.286700
 20
225.039548
 30
0.0
 10
121.286700
 20
229.814140
 30
0.0
  0
SPLINE
  5
13b
100
AcDbEntity
  8
Layer_1
 62
7
100
AcDbSpline
 70
8
 71
3
 72
8
 73
4
 74
0
 40
0
 40
0
 40
0
 40
0
 40
1
 40
1
 40
1
 40
1
 10
121.286700
 20
229.814140
 30
0.0
 10
121.286700
 20
232.944965
 30
0.0
 10
120.042985
 20
235.947559
 30
0.0
 10
117.829157
 20
238.161387
 30
0.0
  0
SPLINE
  5
13c
100
AcDbEntity
  8
Layer_1
 62
7
100
AcDbSpline
 70
8
 71
3
 72
8
 73
4
 74
0
 40
0
 40
0
 40
0
 40
0
 40
1
 40
1
 40
1
 40
1
 10
117.829157
 20
238.161387
 30
0.0
 10
115.615329
 20
240.375215
 30
0.0
 10
112.612735
 20
241.618930
 30
0.0
 10
109.481910
 20
241.618930
 30
0.0
  0
LWPOLYLINE
  5
13d
100
AcDbEntity
  8
Layer_1
 62
7
100
AcDbPolyline
 90
1
 70
1
 10
193.202450
 20
250.014934
 30
0.0
  0
SPLINE
  5
13e
100
AcDbEntity
  8
Layer_1
 62
7
100
AcDbSpline
 70
8
 71
3
 72
8
 73
4
 74
0
 40
0
 40
0
 40
0
 40
0
 40
1
 40
1
 40
1
 40
1
 10
164.552510
 20
255.014934
 30
0.0
 10
159.777918
 20
255.014934
 30
0.0
 10
155.473463
 20
252.138789
 30
0.0
 10
153.646306
 20
247.727642
 30
0.0
  0
SPLINE
  5
13f
100
AcDbEntity
  8
Layer_1
 62
7
100
AcDbSpline
 70
8
 71
3
 72
8
 73
4
 74
0
 40
0
 40
0
 40
0
 40
0
 40
1
 40
1
 40
1
 40
1
 10
153.646306
 20
247.727642
 30
0.0
 10
151.819149
 20
243.316494
 30
0.0
 10
152.829117
 20
238.239043
 30
0.0
 10
156.205263
 20
234.862897
 30
0.0
  0
SPLINE
  5
140
100
AcDbEntity
  8
Layer_1
 62
7
100
AcDbSpline
 70
8
 71
3
 72
8
 73
4
 74
0
 40
0
 40
0
 40
0
 40
0
 40
1
 40
1
 40
1
 40
1
 10
156.205263
 20
234.862897
 30
0.0
 10
159.581409
 20
231.486751
 30
0.0
 10
164.658860
 20
230.476783
 30
0.0
 10
169.070008
 20
232.303940
 30
0.0
  0
SPLINE
  5
141
100
AcDbEntity
  8
Layer_1
 62
7
100
AcDbSpline
 70
8
 71
3
 72
8
 73
4
 74
0
 40
0
 40
0
 40
0
 40
0
 40
1
 40
1
 40
1
 40
1
 10
169.070008
 20
232.303940
 30
0.0
 10
173.481155
 20
234.131097
 30
0.0
 10
176.357300
 20
238.435552
 30
0.0
 10
176.357300
 20
243.210144
 30
0.0
  0
SPLINE
  5
142
100
AcDbEntity
  8
Layer_1
 62
7
100
AcDbSpline
 70
8
 71
3
 72
8
 73
4
 74
0
 40
0
 40
0
 40
0
 40
0
 40
1
 40
1
 40
1
 40
1
 10
176.357300
 20
243.210144
 30
0.0
 10
176.357300
 20
246.340969
 30
0.0
 10
175.113585
 20
249.343563
 30
0.0
 10
172.899757
 20
251.557391
 30
0.0
  0
SPLINE
  5
143
100
AcDbEntity
  8
Layer_1
 62
7
100
AcDbSpline
 70
8
 71
3
 72
8
 73
4
 74
0
 40
0
 40
0
 40
0
 40
0
 40
1
 40
1
 40
1
 40
1
 10
172.899757
 20
251.557391
 30
0.0
 10
170.685929
 20
253.771219
 30
0.0
 10
167.683335
 20
255.014934
 30
0.0
 10
164.552510
 20
255.014934
 30
0.0
  0
LWPOLYLINE
  5
144
100
AcDbEntity
  8
Layer_1
 62
7
100
AcDbPolyline
 90
1
 70
1
 10
109.481910
 20
241.618930
 30
0.0
  0
SPLINE
  5
145
100
AcDbEntity
  8
Layer_1
 62
7
100
AcDbSpline
 70
8
 71
3
 72
8
 73
4
 74
0
 40
0
 40
0
 40
0
 40
0
 40
1
 40
1
 40
1
 40
1
 10
109.481910
 20
211.619396
 30
0.0
 10
104.707318
 20
211.619396
 30
0.0
 10
100.402863
 20
208.743251
 30
0.0
 10
98.575706
 20
204.332104
 30
0.0
  0
SPLINE
  5
146
100
AcDbEntity
  8
Layer_1
 62
7
100
AcDbSpline
 70
8
 71
3
 72
8
 73
4
 74
0
 40
0
 40
0
 40
0
 40
0
 40
1
 40
1
 40
1
 40
1
 10
98.575706
 20
204.332104
 30
0.0
 10
96.748549
 20
199.920956
 30
0.0
 10
97.758517
 20
194.843505
 30
0.0
 10
101.134663
 20
191.467359
 30
0.0
  0
SPLINE
  5
147
100
AcDbEntity
  8
Layer_1
 62
7
100
AcDbSpline
 70
8
 71
3
 72
8
 73
4
 74
0
 40
0
 40
0
 40
0
 40
0
 40
1
 40
1
 40
1
 40
1
 10
101.134663
 20
191.467359
 30
0.0
 10
104.510809
 20
188.091213
 30
0.0
 10
109.588260
 20
187.081245
 30
0.0
 10
113.999408
 20
188.908402
 30
0.0
  0
SPLINE
  5
148
100
AcDbEntity
  8
Layer_1
 62
7
100
AcDbSpline
 70
8
 71
3
 72
8
 73
4
 74
0
 40
0
 40
0
 40
0
 40
0
 40
1
 40
1
 40
1
 40
1
 10
113.999408
 20
188.908402
 30
0.0
 10
118.410555
 20
190.735559
 30
0.0
 10
121.286700
 20
195.040014
 30
0.0
 10
121.286700
 20
199.814606
 30
0.0
  0
SPLINE
  5
149
100
AcDbEntity
  8
Layer_1
 62
7
100
AcDbSpline
 70
8
 71
3
 72
8
 73
4
 74
0
 40
0
 40
0
 40
0
 40
0
 40
1
 40
1
 40
1
 40
1
 10
121.286700
 20
199.814606
 30
0.0
 10
121.286700
 20
202.945431
 30
0.0
 10
120.042985
 20
205.948025
 30
0.0
 10
117.829157
 20
208.161853
 30
0.0
  0
SPLINE
  5
14a
100
AcDbEntity
  8
Layer_1
 62
7
100
AcDbSpline
 70
8
 71
3
 72
8
 73
4
 74
0
 40
0
 40
0
 40
0
 40
0
 40
1
 40
1
 40
1
 40
1
 10
117.829157
 20
208.161853
 30
0.0
 10
115.615329
 20
210.375681
 30
0.0
 10
112.612735
 20
211.619396
 30
0.0
 10
109.481910
 20
211.619396
 30
0.0
  0
LWPOLYLINE
  5
14b
100
AcDbEntity
  8
Layer_1
 62
7
100
AcDbPolyline
 90
1
 70
1
 10
164.552510
 20
255.014934
 30
0.0
  0
SPLINE
  5
14c
100
AcDbEntity
  8
Layer_1
 62
7
100
AcDbSpline
 70
8
 71
3
 72
8
 73
4
 74
0
 40
0
 40
0
 40
0
 40
0
 40
1
 40
1
 40
1
 40
1
 10
135.492830
 20
255.014934
 30
0.0
 10
130.718238
 20
255.014934
 30
0.0
 10
126.413783
 20
252.138789
 30
0.0
 10
124.586626
 20
247.727642
 30
0.0
  0
SPLINE
  5
14d
100
AcDbEntity
  8
Layer_1
 62
7
100
AcDbSpline
 70
8
 71
3
 72
8
 73
4
 74
0
 40
0
 40
0
 40
0
 40
0
 40
1
 40
1
 40
1
 40
1
 10
124.586626
 20
247.727642
 30
0.0
 10
122.759469
 20
243.316494
 30
0.0
 10
123.769437
 20
238.239043
 30
0.0
 10
127.145583
 20
234.862897
 30
0.0
  0
SPLINE
  5
14e
100
AcDbEntity
  8
Layer_1
 62
7
100
AcDbSpline
 70
8
 71
3
 72
8
 73
4
 74
0
 40
0
 40
0
 40
0
 40
0
 40
1
 40
1
 40
1
 40
1
 10
127.145583
 20
234.862897
 30
0.0
 10
130.521729
 20
231.486751
 30
0.0
 10
135.599180
 20
230.476783
 30
0.0
 10
140.010328
 20
232.303940
 30
0.0
  0
SPLINE
  5
14f
100
AcDbEntity
  8
Layer_1
 62
7
100
AcDbSpline
 70
8
 71
3
 72
8
 73
4
 74
0
 40
0
 40
0
 40
0
 40
0
 40
1
 40
1
 40
1
 40
1
 10
140.010328
 20
232.303940
 30
0.0
 10
144.421475
 20
234.131097
 30
0.0
 10
147.297620
 20
238.435552
 30
0.0
 10
147.297620
 20
243.210144
 30
0.0
  0
SPLINE
  5
150
100
AcDbEntity
  8
Layer_1
 62
7
100
AcDbSpline
 70
8
 71
3
 72
8
 73
4
 74
0
 40
0
 40
0
 40
0
 40
0
 40
1
 40
1
 40
1
 40
1
 10
147.297620
 20
243.210144
 30
0.0
 10
147.297620
 20
246.340969
 30
0.0
 10
146.053905
 20
249.343563
 30
0.0
 10
143.840077
 20
251.557391
 30
0.0
  0
SPLINE
  5
151
100
AcDbEntity
  8
Layer_1
 62
7
100
AcDbSpline
 70
8
 71
3
 72
8
 73
4
 74
0
 40
0
 40
0
 40
0
 40
0
 40
1
 40
1
 40
1
 40
1
 10
143.840077
 20
251.557391
 30
0.0
 10
141.626249
 20
253.771219
 30
0.0
 10
138.623655
 20
255.014934
 30
0.0
 10
135.492830
 20
255.014934
 30
0.0
  0
LWPOLYLINE
  5
152
100
AcDbEntity
  8
Layer_1
 62
7
100
AcDbPolyline
 90
1
 70
1
 10
109.481910
 20
211.619396
 30
0.0
  0
SPLINE
  5
153
100
AcDbEntity
  8
Layer_1
 62
7
100
AcDbSpline
 70
8
 71
3
 72
8
 73
4
 74
0
 40
0
 40
0
 40
0
 40
0
 40
1
 40
1
 40
1
 40
1
 10
67.326378
 20
273.025840
 30
0.0
 10
62.551786
 20
273.025840
 30
0.0
 10
58.247331
 20
270.149695
 30
0.0
 10
56.420174
 20
265.738548
 30
0.0
  0
SPLINE
  5
154
100
AcDbEntity
  8
Layer_1
 62
7
100
AcDbSpline
 70
8
 71
3
 72
8
 73
4
 74
0
 40
0
 40
0
 40
0
 40
0
 40
1
 40
1
 40
1
 40
1
 10
56.420174
 20
265.738548
 30
0.0
 10
54.593017
 20
261.327400
 30
0.0
 10
55.602985
 20
256.249949
 30
0.0
 10
58.979131
 20
252.873803
 30
0.0
  0
SPLINE
  5
155
100
AcDbEntity
  8
Layer_1
 62
7
100
AcDbSpline
 70
8
 71
3
 72
8
 73
4
 74
0
 40
0
 40
0
 40
0
 40
0
 40
1
 40
1
 40
1
 40
1
 10
58.979131
 20
252.873803
 30
0.0
 10
62.355277
 20
249.497657
 30
0.0
 10
67.432728
 20
248.487689
 30
0.0
 10
71.843876
 20
250.314846
 30
0.0
  0
SPLINE
  5
156
100
AcDbEntity
  8
Layer_1
 62
7
100
AcDbSpline
 70
8
 71
3
 72
8
 73
4
 74
0
 40
0
 40
0
 40
0
 40
0
 40
1
 40
1
 40
1
 40
1
 10
71.843876
 20
250.314846
 30
0.0
 10
76.255023
 20
252.142003
 30
0.0
 10
79.131168
 20
256.446458
 30
0.0
 10
79.131168
 20
261.221050
 30
0.0
  0
SPLINE
  5
157
100
AcDbEntity
  8
Layer_1
 62
7
100
AcDbSpline
 70
8
 71
3
 72
8
 73
4
 74
0
 40
0
 40
0
 40
0
 40
0
 40
1
 40
1
 40
1
 40
1
 10
79.131168
 20
261.221050
 30
0.0
 10
79.131168
 20
264.351875
 30
0.0
 10
77.887453
 20
267.354469
 30
0.0
 10
75.673625
 20
269.568297
 30
0.0
  0
SPLINE
  5
158
100
AcDbEntity
  8
Layer_1
 62
7
100
AcDbSpline
 70
8
 71
3
 72
8
 73
4
 74
0
 40
0
 40
0
 40
0
 40
0
 40
1
 40
1
 40
1
 40
1
 10
75.673625
 20
269.568297
 30
0.0
 10
73.459797
 20
271.782125
 30
0.0
 10
70.457203
 20
273.025840
 30
0.0
 10
67.326378
 20
273.025840
 30
0.0
  0
LWPOLYLINE
  5
159
100
AcDbEntity
  8
Layer_1
 62
7
100
AcDbPolyline
 90
1
 70
1
 10
135.492830
 20
255.014934
 30
0.0
  0
SPLINE
  5
15a
100
AcDbEntity
  8
Layer_1
 62
7
100
AcDbSpline
 70
8
 71
3
 72
8
 73
4
 74
0
 40
0
 40
0
 40
0
 40
0
 40
1
 40
1
 40
1
 40
1
 10
97.326050
 20
273.025840
 30
0.0
 10
92.551458
 20
273.025840
 30
0.0
 10
88.247003
 20
270.149695
 30
0.0
 10
86.419846
 20
265.738548
 30
0.0
  0
SPLINE
  5
15b
100
AcDbEntity
  8
Layer_1
 62
7
100
AcDbSpline
 70
8
 71
3
 72
8
 73
4
 74
0
 40
0
 40
0
 40
0
 40
0
 40
1
 40
1
 40
1
 40
1
 10
86.419846
 20
265.738548
 30
0.0
 10
84.592689
 20
261.327400
 30
0.0
 10
85.602657
 20
256.249949
 30
0.0
 10
88.978803
 20
252.873803
 30
0.0
  0
SPLINE
  5
15c
100
AcDbEntity
  8
Layer_1
 62
7
100
AcDbSpline
 70
8
 71
3
 72
8
 73
4
 74
0
 40
0
 40
0
 40
0
 40
0
 40
1
 40
1
 40
1
 40
1
 10
88.978803
 20
252.873803
 30
0.0
 10
92.354949
 20
249.497657
 30
0.0
 10
97.432400
 20
248.487689
 30
0.0
 10
101.843548
 20
250.314846
 30
0.0
  0
SPLINE
  5
15d
100
AcDbEntity
  8
Layer_1
 62
7
100
AcDbSpline
 70
8
 71
3
 72
8
 73
4
 74
0
 40
0
 40
0
 40
0
 40
0
 40
1
 40
1
 40
1
 40
1
 10
101.843548
 20
250.314846
 30
0.0
 10
106.254695
 20
252.142003
 30
0.0
 10
109.130840
 20
256.446458
 30
0.0
 10
109.130840
 20
261.221050
 30
0.0
  0
SPLINE
  5
15e
100
AcDbEntity
  8
Layer_1
 62
7
100
AcDbSpline
 70
8
 71
3
 72
8
 73
4
 74
0
 40
0
 40
0
 40
0
 40
0
 40
1
 40
1
 40
1
 40
1
 10
109.130840
 20
261.221050
 30
0.0
 10
109.130840
 20
264.351875
 30
0.0
 10
107.887125
 20
267.354469
 30
0.0
 10
105.673297
 20
269.568297
 30
0.0
  0
SPLINE
  5
15f
100
AcDbEntity
  8
Layer_1
 62
7
100
AcDbSpline
 70
8
 71
3
 72
8
 73
4
 74
0
 40
0
 40
0
 40
0
 40
0
 40
1
 40
1
 40
1
 40
1
 10
105.673297
 20
269.568297
 30
0.0
 10
103.459469
 20
271.782125
 30
0.0
 10
100.456875
 20
273.025840
 30
0.0
 10
97.326050
 20
273.025840
 30
0.0
  0
LWPOLYLINE
  5
160
100
AcDbEntity
  8
Layer_1
 62
7
100
AcDbPolyline
 90
1
 70
1
 10
67.326378
 20
273.025840
 30
0.0
  0
LWPOLYLINE
  5
161
100
AcDbEntity
  8
Layer_1
 62
7
100
AcDbPolyline
 90
1
 70
1
 10
97.326050
 20
273.025840
 30
0.0
  0
ENDSEC
  0
SECTION
  2
OBJECTS
  0
DICTIONARY
  5
C
330
0
100
AcDbDictionary
  3
ACAD_GROUP
350
D
  3
ACAD_MLINESTYLE
350
17
  0
DICTIONARY
  5
D
330
C
100
AcDbDictionary
  0
DICTIONARY
  5
1A
330
C
100
AcDbDictionary
  0
DICTIONARY
  5
17
330
C
100
AcDbDictionary
  3
STANDARD
350
18
  0
DICTIONARY
  5
19
330
C
100
AcDbDictionary
  0
ENDSEC
  0
EOF
