  0
SECTION
  2
HEADER
  9
$ACADVER
  1
AC1014
  9
$HANDSEED
  5
FFFF
  9
$MEASUREMENT
 70
     1
  0
ENDSEC
  0
SECTION
  2
TABLES
  0
TABLE
  2
VPORT
  5
8
330
0
100
AcDbSymbolTable
 70
     4
  0
VPORT
  5
2E
330
8
100
AcDbSymbolTableRecord
100
AcDbViewportTableRecord
  2
*ACTIVE
 70
     0
 10
0.0
 20
0.0
 11
1.0
 21
1.0
 12
210.0
 22
148.5
 13
0.0
 23
0.0
 14
10.0
 24
10.0
 15
10.0
 25
10.0
 16
0.0
 26
0.0
 36
1.0
 17
0.0
 27
0.0
 37
0.0
 40
341.0
 41
1.24
 42
50.0
 43
0.0
 44
0.0
 50
0.0
 51
0.0
 71
     0
 72
   100
 73
     1
 74
     3
 75
     0
 76
     0
 77
     0
 78
     0
  0
ENDTAB
  0
TABLE
  2
LTYPE
  5
5
330
0
100
AcDbSymbolTable
 70
     1
  0
LTYPE
  5
14
330
5
100
AcDbSymbolTableRecord
100
AcDbLinetypeTableRecord
  2
BYBLOCK
 70
     0
  3

 72
    65
 73
     0
 40
0.0
  0
LTYPE
  5
15
330
5
100
AcDbSymbolTableRecord
100
AcDbLinetypeTableRecord
  2
BYLAYER
 70
     0
  3

 72
    65
 73
     0
 40
0.0
  0
LTYPE
  5
16
330
5
100
AcDbSymbolTableRecord
100
AcDbLinetypeTableRecord
  2
CONTINUOUS
 70
     0
  3
Solid line
 72
    65
 73
     0
 40
0.0
  0
ENDTAB
  0
TABLE
  2
LAYER
  5
2
100
AcDbSymbolTable
 70
2
  0
LAYER
  5
50
100
AcDbSymbolTableRecord
100
AcDbLayerTableRecord
  2
0
 70
0
  6
CONTINUOUS
  0
LAYER
  5
51
100
AcDbSymbolTableRecord
100
AcDbLayerTableRecord
  2
Layer_1
 70
0
  6
CONTINUOUS
  0
ENDTAB
  0
TABLE
  2
STYLE
  5
3
330
0
100
AcDbSymbolTable
 70
     1
  0
STYLE
  5
11
330
3
100
AcDbSymbolTableRecord
100
AcDbTextStyleTableRecord
  2
STANDARD
 70
     0
 40
0.0
 41
1.0
 50
0.0
 71
     0
 42
2.5
  3
txt
  4

  0
ENDTAB
  0
TABLE
  2
VIEW
  5
6
330
0
100
AcDbSymbolTable
 70
     0
  0
ENDTAB
  0
TABLE
  2
UCS
  5
7
330
0
100
AcDbSymbolTable
 70
     0
  0
ENDTAB
  0
TABLE
  2
APPID
  5
9
330
0
100
AcDbSymbolTable
 70
     2
  0
APPID
  5
12
330
9
100
AcDbSymbolTableRecord
100
AcDbRegAppTableRecord
  2
ACAD
 70
     0
  0
ENDTAB
  0
TABLE
  2
DIMSTYLE
  5
A
330
0
100
AcDbSymbolTable
 70
     1
  0
DIMSTYLE
105
27
330
A
100
AcDbSymbolTableRecord
100
AcDbDimStyleTableRecord
  2
ISO-25
 70
     0
  3

  4

  5

  6

  7

 40
1.0
 41
2.5
 42
0.625
 43
3.75
 44
1.25
 45
0.0
 46
0.0
 47
0.0
 48
0.0
140
2.5
141
2.5
142
0.0
143
0.03937007874016
144
1.0
145
0.0
146
1.0
147
0.625
 71
     0
 72
     0
 73
     0
 74
     0
 75
     0
 76
     0
 77
     1
 78
     8
170
     0
171
     3
172
     1
173
     0
174
     0
175
     0
176
     0
177
     0
178
     0
270
     2
271
     2
272
     2
273
     2
274
     3
340
11
275
     0
280
     0
281
     0
282
     0
283
     0
284
     8
285
     0
286
     0
287
     3
288
     0
  0
ENDTAB
  0
TABLE
  2
BLOCK_RECORD
  5
1
330
0
100
AcDbSymbolTable
 70
     1
  0
BLOCK_RECORD
  5
1F
330
1
100
AcDbSymbolTableRecord
100
AcDbBlockTableRecord
  2
*MODEL_SPACE
  0
BLOCK_RECORD
  5
1B
330
1
100
AcDbSymbolTableRecord
100
AcDbBlockTableRecord
  2
*PAPER_SPACE
  0
ENDTAB
  0
ENDSEC
  0
SECTION
  2
BLOCKS
  0
BLOCK
  5
20
330
1F
100
AcDbEntity
  8
0
100
AcDbBlockBegin
  2
*MODEL_SPACE
 70
     0
 10
0.0
 20
0.0
 30
0.0
  3
*MODEL_SPACE
  1

  0
ENDBLK
  5
21
330
1F
100
AcDbEntity
  8
0
100
AcDbBlockEnd
  0
BLOCK
  5
1C
330
1B
100
AcDbEntity
 67
     1
  8
0
100
AcDbBlockBegin
  2
*PAPER_SPACE
  1

  0
ENDBLK
  5
1D
330
1B
100
AcDbEntity
 67
     1
  8
0
100
AcDbBlockEnd
  0
ENDSEC
  0
SECTION
  2
ENTITIES
  0
SPLINE
  5
100
100
AcDbEntity
  8
Layer_1
 62
7
100
AcDbSpline
 70
8
 71
3
 72
8
 73
4
 74
0
 40
0
 40
0
 40
0
 40
0
 40
1
 40
1
 40
1
 40
1
 10
92.362167
 20
253.049304
 30
0.0
 10
87.587575
 20
253.049304
 30
0.0
 10
83.283120
 20
250.173159
 30
0.0
 10
81.455963
 20
245.762012
 30
0.0
  0
SPLINE
  5
101
100
AcDbEntity
  8
Layer_1
 62
7
100
AcDbSpline
 70
8
 71
3
 72
8
 73
4
 74
0
 40
0
 40
0
 40
0
 40
0
 40
1
 40
1
 40
1
 40
1
 10
81.455963
 20
245.762012
 30
0.0
 10
79.628806
 20
241.350864
 30
0.0
 10
80.638774
 20
236.273413
 30
0.0
 10
84.014920
 20
232.897267
 30
0.0
  0
SPLINE
  5
102
100
AcDbEntity
  8
Layer_1
 62
7
100
AcDbSpline
 70
8
 71
3
 72
8
 73
4
 74
0
 40
0
 40
0
 40
0
 40
0
 40
1
 40
1
 40
1
 40
1
 10
84.014920
 20
232.897267
 30
0.0
 10
87.391066
 20
229.521121
 30
0.0
 10
92.468517
 20
228.511153
 30
0.0
 10
96.879665
 20
230.338310
 30
0.0
  0
SPLINE
  5
103
100
AcDbEntity
  8
Layer_1
 62
7
100
AcDbSpline
 70
8
 71
3
 72
8
 73
4
 74
0
 40
0
 40
0
 40
0
 40
0
 40
1
 40
1
 40
1
 40
1
 10
96.879665
 20
230.338310
 30
0.0
 10
101.290812
 20
232.165467
 30
0.0
 10
104.166957
 20
236.469922
 30
0.0
 10
104.166957
 20
241.244514
 30
0.0
  0
SPLINE
  5
104
100
AcDbEntity
  8
Layer_1
 62
7
100
AcDbSpline
 70
8
 71
3
 72
8
 73
4
 74
0
 40
0
 40
0
 40
0
 40
0
 40
1
 40
1
 40
1
 40
1
 10
104.166957
 20
241.244514
 30
0.0
 10
104.166957
 20
244.375339
 30
0.0
 10
102.923242
 20
247.377933
 30
0.0
 10
100.709414
 20
249.591761
 30
0.0
  0
SPLINE
  5
105
100
AcDbEntity
  8
Layer_1
 62
7
100
AcDbSpline
 70
8
 71
3
 72
8
 73
4
 74
0
 40
0
 40
0
 40
0
 40
0
 40
1
 40
1
 40
1
 40
1
 10
100.709414
 20
249.591761
 30
0.0
 10
98.495586
 20
251.805589
 30
0.0
 10
95.492992
 20
253.049304
 30
0.0
 10
92.362167
 20
253.049304
 30
0.0
  0
LINE
  5
106
100
AcDbEntity
  8
Layer_1
 62
7
100
AcDbLine
 10
92.362167
 20
253.049304
 30
0.0
 11
92.362167
 21
253.049304
 31
0.0
  0
SPLINE
  5
107
100
AcDbEntity
  8
Layer_1
 62
7
100
AcDbSpline
 70
8
 71
3
 72
8
 73
4
 74
0
 40
0
 40
0
 40
0
 40
0
 40
1
 40
1
 40
1
 40
1
 10
122.361860
 20
253.049304
 30
0.0
 10
115.842255
 20
253.049304
 30
0.0
 10
110.557070
 20
247.764119
 30
0.0
 10
110.557070
 20
241.244514
 30
0.0
  0
SPLINE
  5
108
100
AcDbEntity
  8
Layer_1
 62
7
100
AcDbSpline
 70
8
 71
3
 72
8
 73
4
 74
0
 40
0
 40
0
 40
0
 40
0
 40
1
 40
1
 40
1
 40
1
 10
110.557070
 20
241.244514
 30
0.0
 10
110.557070
 20
234.724909
 30
0.0
 10
115.842255
 20
229.439724
 30
0.0
 10
122.361860
 20
229.439724
 30
0.0
  0
SPLINE
  5
109
100
AcDbEntity
  8
Layer_1
 62
7
100
AcDbSpline
 70
8
 71
3
 72
8
 73
4
 74
0
 40
0
 40
0
 40
0
 40
0
 40
1
 40
1
 40
1
 40
1
 10
122.361860
 20
229.439724
 30
0.0
 10
128.881465
 20
229.439724
 30
0.0
 10
134.166650
 20
234.724909
 30
0.0
 10
134.166650
 20
241.244514
 30
0.0
  0
SPLINE
  5
10a
100
AcDbEntity
  8
Layer_1
 62
7
100
AcDbSpline
 70
8
 71
3
 72
8
 73
4
 74
0
 40
0
 40
0
 40
0
 40
0
 40
1
 40
1
 40
1
 40
1
 10
134.166650
 20
241.244514
 30
0.0
 10
134.166650
 20
244.375339
 30
0.0
 10
132.922935
 20
247.377933
 30
0.0
 10
130.709107
 20
249.591761
 30
0.0
  0
SPLINE
  5
10b
100
AcDbEntity
  8
Layer_1
 62
7
100
AcDbSpline
 70
8
 71
3
 72
8
 73
4
 74
0
 40
0
 40
0
 40
0
 40
0
 40
1
 40
1
 40
1
 40
1
 10
130.709107
 20
249.591761
 30
0.0
 10
128.495279
 20
251.805589
 30
0.0
 10
125.492685
 20
253.049304
 30
0.0
 10
122.361860
 20
253.049304
 30
0.0
  0
LINE
  5
10c
100
AcDbEntity
  8
Layer_1
 62
7
100
AcDbLine
 10
122.361860
 20
253.049304
 30
0.0
 11
122.361860
 21
253.049304
 31
0.0
  0
SPLINE
  5
10d
100
AcDbEntity
  8
Layer_1
 62
7
100
AcDbSpline
 70
8
 71
3
 72
8
 73
4
 74
0
 40
0
 40
0
 40
0
 40
0
 40
1
 40
1
 40
1
 40
1
 10
147.557680
 20
238.049358
 30
0.0
 10
142.783088
 20
238.049358
 30
0.0
 10
138.478633
 20
235.173213
 30
0.0
 10
136.651476
 20
230.762066
 30
0.0
  0
SPLINE
  5
10e
100
AcDbEntity
  8
Layer_1
 62
7
100
AcDbSpline
 70
8
 71
3
 72
8
 73
4
 74
0
 40
0
 40
0
 40
0
 40
0
 40
1
 40
1
 40
1
 40
1
 10
136.651476
 20
230.762066
 30
0.0
 10
134.824319
 20
226.350918
 30
0.0
 10
135.834287
 20
221.273467
 30
0.0
 10
139.210433
 20
217.897321
 30
0.0
  0
SPLINE
  5
10f
100
AcDbEntity
  8
Layer_1
 62
7
100
AcDbSpline
 70
8
 71
3
 72
8
 73
4
 74
0
 40
0
 40
0
 40
0
 40
0
 40
1
 40
1
 40
1
 40
1
 10
139.210433
 20
217.897321
 30
0.0
 10
142.586579
 20
214.521175
 30
0.0
 10
147.664030
 20
213.511207
 30
0.0
 10
152.075178
 20
215.338364
 30
0.0
  0
SPLINE
  5
110
100
AcDbEntity
  8
Layer_1
 62
7
100
AcDbSpline
 70
8
 71
3
 72
8
 73
4
 74
0
 40
0
 40
0
 40
0
 40
0
 40
1
 40
1
 40
1
 40
1
 10
152.075178
 20
215.338364
 30
0.0
 10
156.486325
 20
217.165521
 30
0.0
 10
159.362470
 20
221.469976
 30
0.0
 10
159.362470
 20
226.244568
 30
0.0
  0
SPLINE
  5
111
100
AcDbEntity
  8
Layer_1
 62
7
100
AcDbSpline
 70
8
 71
3
 72
8
 73
4
 74
0
 40
0
 40
0
 40
0
 40
0
 40
1
 40
1
 40
1
 40
1
 10
159.362470
 20
226.244568
 30
0.0
 10
159.362470
 20
229.375393
 30
0.0
 10
158.118755
 20
232.377987
 30
0.0
 10
155.904927
 20
234.591815
 30
0.0
  0
SPLINE
  5
112
100
AcDbEntity
  8
Layer_1
 62
7
100
AcDbSpline
 70
8
 71
3
 72
8
 73
4
 74
0
 40
0
 40
0
 40
0
 40
0
 40
1
 40
1
 40
1
 40
1
 10
155.904927
 20
234.591815
 30
0.0
 10
153.691099
 20
236.805643
 30
0.0
 10
150.688505
 20
238.049358
 30
0.0
 10
147.557680
 20
238.049358
 30
0.0
  0
LINE
  5
113
100
AcDbEntity
  8
Layer_1
 62
7
100
AcDbLine
 10
147.557680
 20
238.049358
 30
0.0
 11
147.557680
 21
238.049358
 31
0.0
  0
SPLINE
  5
114
100
AcDbEntity
  8
Layer_1
 62
7
100
AcDbSpline
 70
8
 71
3
 72
8
 73
4
 74
0
 40
0
 40
0
 40
0
 40
0
 40
1
 40
1
 40
1
 40
1
 10
258.575810
 20
232.653362
 30
0.0
 10
253.801218
 20
232.653362
 30
0.0
 10
249.496763
 20
229.777217
 30
0.0
 10
247.669606
 20
225.366070
 30
0.0
  0
SPLINE
  5
115
100
AcDbEntity
  8
Layer_1
 62
7
100
AcDbSpline
 70
8
 71
3
 72
8
 73
4
 74
0
 40
0
 40
0
 40
0
 40
0
 40
1
 40
1
 40
1
 40
1
 10
247.669606
 20
225.366070
 30
0.0
 10
245.842449
 20
220.954922
 30
0.0
 10
246.852417
 20
215.877471
 30
0.0
 10
250.228563
 20
212.501325
 30
0.0
  0
SPLINE
  5
116
100
AcDbEntity
  8
Layer_1
 62
7
100
AcDbSpline
 70
8
 71
3
 72
8
 73
4
 74
0
 40
0
 40
0
 40
0
 40
0
 40
1
 40
1
 40
1
 40
1
 10
250.228563
 20
212.501325
 30
0.0
 10
253.604709
 20
209.125179
 30
0.0
 10
258.682160
 20
208.115211
 30
0.0
 10
263.093308
 20
209.942368
 30
0.0
  0
SPLINE
  5
117
100
AcDbEntity
  8
Layer_1
 62
7
100
AcDbSpline
 70
8
 71
3
 72
8
 73
4
 74
0
 40
0
 40
0
 40
0
 40
0
 40
1
 40
1
 40
1
 40
1
 10
263.093308
 20
209.942368
 30
0.0
 10
267.504455
 20
211.769525
 30
0.0
 10
270.380600
 20
216.073980
 30
0.0
 10
270.380600
 20
220.848572
 30
0.0
  0
SPLINE
  5
118
100
AcDbEntity
  8
Layer_1
 62
7
100
AcDbSpline
 70
8
 71
3
 72
8
 73
4
 74
0
 40
0
 40
0
 40
0
 40
0
 40
1
 40
1
 40
1
 40
1
 10
270.380600
 20
220.848572
 30
0.0
 10
270.380600
 20
223.979397
 30
0.0
 10
269.136885
 20
226.981991
 30
0.0
 10
266.923057
 20
229.195819
 30
0.0
  0
SPLINE
  5
119
100
AcDbEntity
  8
Layer_1
 62
7
100
AcDbSpline
 70
8
 71
3
 72
8
 73
4
 74
0
 40
0
 40
0
 40
0
 40
0
 40
1
 40
1
 40
1
 40
1
 10
266.923057
 20
229.195819
 30
0.0
 10
264.709229
 20
231.409647
 30
0.0
 10
261.706635
 20
232.653362
 30
0.0
 10
258.575810
 20
232.653362
 30
0.0
  0
LINE
  5
11a
100
AcDbEntity
  8
Layer_1
 62
7
100
AcDbLine
 10
258.575810
 20
232.653362
 30
0.0
 11
258.575810
 21
232.653362
 31
0.0
  0
SPLINE
  5
11b
100
AcDbEntity
  8
Layer_1
 62
7
100
AcDbSpline
 70
8
 71
3
 72
8
 73
4
 74
0
 40
0
 40
0
 40
0
 40
0
 40
1
 40
1
 40
1
 40
1
 10
229.926060
 20
238.049358
 30
0.0
 10
225.151468
 20
238.049358
 30
0.0
 10
220.847013
 20
235.173213
 30
0.0
 10
219.019856
 20
230.762066
 30
0.0
  0
SPLINE
  5
11c
100
AcDbEntity
  8
Layer_1
 62
7
100
AcDbSpline
 70
8
 71
3
 72
8
 73
4
 74
0
 40
0
 40
0
 40
0
 40
0
 40
1
 40
1
 40
1
 40
1
 10
219.019856
 20
230.762066
 30
0.0
 10
217.192699
 20
226.350918
 30
0.0
 10
218.202667
 20
221.273467
 30
0.0
 10
221.578813
 20
217.897321
 30
0.0
  0
SPLINE
  5
11d
100
AcDbEntity
  8
Layer_1
 62
7
100
AcDbSpline
 70
8
 71
3
 72
8
 73
4
 74
0
 40
0
 40
0
 40
0
 40
0
 40
1
 40
1
 40
1
 40
1
 10
221.578813
 20
217.897321
 30
0.0
 10
224.954959
 20
214.521175
 30
0.0
 10
230.032410
 20
213.511207
 30
0.0
 10
234.443558
 20
215.338364
 30
0.0
  0
SPLINE
  5
11e
100
AcDbEntity
  8
Layer_1
 62
7
100
AcDbSpline
 70
8
 71
3
 72
8
 73
4
 74
0
 40
0
 40
0
 40
0
 40
0
 40
1
 40
1
 40
1
 40
1
 10
234.443558
 20
215.338364
 30
0.0
 10
238.854705
 20
217.165521
 30
0.0
 10
241.730850
 20
221.469976
 30
0.0
 10
241.730850
 20
226.244568
 30
0.0
  0
SPLINE
  5
11f
100
AcDbEntity
  8
Layer_1
 62
7
100
AcDbSpline
 70
8
 71
3
 72
8
 73
4
 74
0
 40
0
 40
0
 40
0
 40
0
 40
1
 40
1
 40
1
 40
1
 10
241.730850
 20
226.244568
 30
0.0
 10
241.730850
 20
229.375393
 30
0.0
 10
240.487135
 20
232.377987
 30
0.0
 10
238.273307
 20
234.591815
 30
0.0
  0
SPLINE
  5
120
100
AcDbEntity
  8
Layer_1
 62
7
100
AcDbSpline
 70
8
 71
3
 72
8
 73
4
 74
0
 40
0
 40
0
 40
0
 40
0
 40
1
 40
1
 40
1
 40
1
 10
238.273307
 20
234.591815
 30
0.0
 10
236.059479
 20
236.805643
 30
0.0
 10
233.056885
 20
238.049358
 30
0.0
 10
229.926060
 20
238.049358
 30
0.0
  0
LINE
  5
121
100
AcDbEntity
  8
Layer_1
 62
7
100
AcDbLine
 10
229.926060
 20
238.049358
 30
0.0
 11
229.926060
 21
238.049358
 31
0.0
  0
SPLINE
  5
122
100
AcDbEntity
  8
Layer_1
 62
7
100
AcDbSpline
 70
8
 71
3
 72
8
 73
4
 74
0
 40
0
 40
0
 40
0
 40
0
 40
1
 40
1
 40
1
 40
1
 10
200.866380
 20
238.049358
 30
0.0
 10
196.091788
 20
238.049358
 30
0.0
 10
191.787333
 20
235.173213
 30
0.0
 10
189.960176
 20
230.762066
 30
0.0
  0
SPLINE
  5
123
100
AcDbEntity
  8
Layer_1
 62
7
100
AcDbSpline
 70
8
 71
3
 72
8
 73
4
 74
0
 40
0
 40
0
 40
0
 40
0
 40
1
 40
1
 40
1
 40
1
 10
189.960176
 20
230.762066
 30
0.0
 10
188.133019
 20
226.350918
 30
0.0
 10
189.142987
 20
221.273467
 30
0.0
 10
192.519133
 20
217.897321
 30
0.0
  0
SPLINE
  5
124
100
AcDbEntity
  8
Layer_1
 62
7
100
AcDbSpline
 70
8
 71
3
 72
8
 73
4
 74
0
 40
0
 40
0
 40
0
 40
0
 40
1
 40
1
 40
1
 40
1
 10
192.519133
 20
217.897321
 30
0.0
 10
195.895279
 20
214.521175
 30
0.0
 10
200.972730
 20
213.511207
 30
0.0
 10
205.383878
 20
215.338364
 30
0.0
  0
SPLINE
  5
125
100
AcDbEntity
  8
Layer_1
 62
7
100
AcDbSpline
 70
8
 71
3
 72
8
 73
4
 74
0
 40
0
 40
0
 40
0
 40
0
 40
1
 40
1
 40
1
 40
1
 10
205.383878
 20
215.338364
 30
0.0
 10
209.795025
 20
217.165521
 30
0.0
 10
212.671170
 20
221.469976
 30
0.0
 10
212.671170
 20
226.244568
 30
0.0
  0
SPLINE
  5
126
100
AcDbEntity
  8
Layer_1
 62
7
100
AcDbSpline
 70
8
 71
3
 72
8
 73
4
 74
0
 40
0
 40
0
 40
0
 40
0
 40
1
 40
1
 40
1
 40
1
 10
212.671170
 20
226.244568
 30
0.0
 10
212.671170
 20
229.375393
 30
0.0
 10
211.427455
 20
232.377987
 30
0.0
 10
209.213627
 20
234.591815
 30
0.0
  0
SPLINE
  5
127
100
AcDbEntity
  8
Layer_1
 62
7
100
AcDbSpline
 70
8
 71
3
 72
8
 73
4
 74
0
 40
0
 40
0
 40
0
 40
0
 40
1
 40
1
 40
1
 40
1
 10
209.213627
 20
234.591815
 30
0.0
 10
206.999799
 20
236.805643
 30
0.0
 10
203.997205
 20
238.049358
 30
0.0
 10
200.866380
 20
238.049358
 30
0.0
  0
LINE
  5
128
100
AcDbEntity
  8
Layer_1
 62
7
100
AcDbLine
 10
200.866380
 20
238.049358
 30
0.0
 11
200.866380
 21
238.049358
 31
0.0
  0
SPLINE
  5
129
100
AcDbEntity
  8
Layer_1
 62
7
100
AcDbSpline
 70
8
 71
3
 72
8
 73
4
 74
0
 40
0
 40
0
 40
0
 40
0
 40
1
 40
1
 40
1
 40
1
 10
163.616010
 20
191.283698
 30
0.0
 10
157.647770
 20
191.283698
 30
0.0
 10
152.267201
 20
187.688517
 30
0.0
 10
149.983255
 20
182.174582
 30
0.0
  0
SPLINE
  5
12a
100
AcDbEntity
  8
Layer_1
 62
7
100
AcDbSpline
 70
8
 71
3
 72
8
 73
4
 74
0
 40
0
 40
0
 40
0
 40
0
 40
1
 40
1
 40
1
 40
1
 10
149.983255
 20
182.174582
 30
0.0
 10
147.699308
 20
176.660647
 30
0.0
 10
148.961768
 20
170.313834
 30
0.0
 10
153.181951
 20
166.093651
 30
0.0
  0
SPLINE
  5
12b
100
AcDbEntity
  8
Layer_1
 62
7
100
AcDbSpline
 70
8
 71
3
 72
8
 73
4
 74
0
 40
0
 40
0
 40
0
 40
0
 40
1
 40
1
 40
1
 40
1
 10
153.181951
 20
166.093651
 30
0.0
 10
157.402134
 20
161.873468
 30
0.0
 10
163.748947
 20
160.611008
 30
0.0
 10
169.262882
 20
162.894955
 30
0.0
  0
SPLINE
  5
12c
100
AcDbEntity
  8
Layer_1
 62
7
100
AcDbSpline
 70
8
 71
3
 72
8
 73
4
 74
0
 40
0
 40
0
 40
0
 40
0
 40
1
 40
1
 40
1
 40
1
 10
169.262882
 20
162.894955
 30
0.0
 10
174.776817
 20
165.178901
 30
0.0
 10
178.371998
 20
170.559470
 30
0.0
 10
178.371998
 20
176.527710
 30
0.0
  0
SPLINE
  5
12d
100
AcDbEntity
  8
Layer_1
 62
7
100
AcDbSpline
 70
8
 71
3
 72
8
 73
4
 74
0
 40
0
 40
0
 40
0
 40
0
 40
1
 40
1
 40
1
 40
1
 10
178.371998
 20
176.527710
 30
0.0
 10
178.371998
 20
180.441241
 30
0.0
 10
176.817354
 20
184.194485
 30
0.0
 10
174.050069
 20
186.961769
 30
0.0
  0
SPLINE
  5
12e
100
AcDbEntity
  8
Layer_1
 62
7
100
AcDbSpline
 70
8
 71
3
 72
8
 73
4
 74
0
 40
0
 40
0
 40
0
 40
0
 40
1
 40
1
 40
1
 40
1
 10
174.050069
 20
186.961769
 30
0.0
 10
171.282785
 20
189.729054
 30
0.0
 10
167.529541
 20
191.283698
 30
0.0
 10
163.616010
 20
191.283698
 30
0.0
  0
LINE
  5
12f
100
AcDbEntity
  8
Layer_1
 62
7
100
AcDbLine
 10
163.616010
 20
191.283698
 30
0.0
 11
163.616010
 21
191.283698
 31
0.0
  0
SPLINE
  5
130
100
AcDbEntity
  8
Layer_1
 62
7
100
AcDbSpline
 70
8
 71
3
 72
8
 73
4
 74
0
 40
0
 40
0
 40
0
 40
0
 40
1
 40
1
 40
1
 40
1
 10
258.575810
 20
263.049366
 30
0.0
 10
253.801218
 20
263.049366
 30
0.0
 10
249.496763
 20
260.173221
 30
0.0
 10
247.669606
 20
255.762074
 30
0.0
  0
SPLINE
  5
131
100
AcDbEntity
  8
Layer_1
 62
7
100
AcDbSpline
 70
8
 71
3
 72
8
 73
4
 74
0
 40
0
 40
0
 40
0
 40
0
 40
1
 40
1
 40
1
 40
1
 10
247.669606
 20
255.762074
 30
0.0
 10
245.842449
 20
251.350926
 30
0.0
 10
246.852417
 20
246.273475
 30
0.0
 10
250.228563
 20
242.897329
 30
0.0
  0
SPLINE
  5
132
100
AcDbEntity
  8
Layer_1
 62
7
100
AcDbSpline
 70
8
 71
3
 72
8
 73
4
 74
0
 40
0
 40
0
 40
0
 40
0
 40
1
 40
1
 40
1
 40
1
 10
250.228563
 20
242.897329
 30
0.0
 10
253.604709
 20
239.521183
 30
0.0
 10
258.682160
 20
238.511215
 30
0.0
 10
263.093308
 20
240.338372
 30
0.0
  0
SPLINE
  5
133
100
AcDbEntity
  8
Layer_1
 62
7
100
AcDbSpline
 70
8
 71
3
 72
8
 73
4
 74
0
 40
0
 40
0
 40
0
 40
0
 40
1
 40
1
 40
1
 40
1
 10
263.093308
 20
240.338372
 30
0.0
 10
267.504455
 20
242.165529
 30
0.0
 10
270.380600
 20
246.469984
 30
0.0
 10
270.380600
 20
251.244576
 30
0.0
  0
SPLINE
  5
134
100
AcDbEntity
  8
Layer_1
 62
7
100
AcDbSpline
 70
8
 71
3
 72
8
 73
4
 74
0
 40
0
 40
0
 40
0
 40
0
 40
1
 40
1
 40
1
 40
1
 10
270.380600
 20
251.244576
 30
0.0
 10
270.380600
 20
254.375401
 30
0.0
 10
269.136885
 20
257.377995
 30
0.0
 10
266.923057
 20
259.591823
 30
0.0
  0
SPLINE
  5
135
100
AcDbEntity
  8
Layer_1
 62
7
100
AcDbSpline
 70
8
 71
3
 72
8
 73
4
 74
0
 40
0
 40
0
 40
0
 40
0
 40
1
 40
1
 40
1
 40
1
 10
266.923057
 20
259.591823
 30
0.0
 10
264.709229
 20
261.805651
 30
0.0
 10
261.706635
 20
263.049366
 30
0.0
 10
258.575810
 20
263.049366
 30
0.0
  0
LINE
  5
136
100
AcDbEntity
  8
Layer_1
 62
7
100
AcDbLine
 10
258.575810
 20
263.049366
 30
0.0
 11
258.575810
 21
263.049366
 31
0.0
  0
SPLINE
  5
137
100
AcDbEntity
  8
Layer_1
 62
7
100
AcDbSpline
 70
8
 71
3
 72
8
 73
4
 74
0
 40
0
 40
0
 40
0
 40
0
 40
1
 40
1
 40
1
 40
1
 10
174.855470
 20
254.653362
 30
0.0
 10
170.080878
 20
254.653362
 30
0.0
 10
165.776423
 20
251.777217
 30
0.0
 10
163.949266
 20
247.366070
 30
0.0
  0
SPLINE
  5
138
100
AcDbEntity
  8
Layer_1
 62
7
100
AcDbSpline
 70
8
 71
3
 72
8
 73
4
 74
0
 40
0
 40
0
 40
0
 40
0
 40
1
 40
1
 40
1
 40
1
 10
163.949266
 20
247.366070
 30
0.0
 10
162.122109
 20
242.954922
 30
0.0
 10
163.132077
 20
237.877471
 30
0.0
 10
166.508223
 20
234.501325
 30
0.0
  0
SPLINE
  5
139
100
AcDbEntity
  8
Layer_1
 62
7
100
AcDbSpline
 70
8
 71
3
 72
8
 73
4
 74
0
 40
0
 40
0
 40
0
 40
0
 40
1
 40
1
 40
1
 40
1
 10
166.508223
 20
234.501325
 30
0.0
 10
169.884369
 20
231.125179
 30
0.0
 10
174.961820
 20
230.115211
 30
0.0
 10
179.372968
 20
231.942368
 30
0.0
  0
SPLINE
  5
13a
100
AcDbEntity
  8
Layer_1
 62
7
100
AcDbSpline
 70
8
 71
3
 72
8
 73
4
 74
0
 40
0
 40
0
 40
0
 40
0
 40
1
 40
1
 40
1
 40
1
 10
179.372968
 20
231.942368
 30
0.0
 10
183.784115
 20
233.769525
 30
0.0
 10
186.660260
 20
238.073980
 30
0.0
 10
186.660260
 20
242.848572
 30
0.0
  0
SPLINE
  5
13b
100
AcDbEntity
  8
Layer_1
 62
7
100
AcDbSpline
 70
8
 71
3
 72
8
 73
4
 74
0
 40
0
 40
0
 40
0
 40
0
 40
1
 40
1
 40
1
 40
1
 10
186.660260
 20
242.848572
 30
0.0
 10
186.660260
 20
245.979397
 30
0.0
 10
185.416545
 20
248.981991
 30
0.0
 10
183.202717
 20
251.195819
 30
0.0
  0
SPLINE
  5
13c
100
AcDbEntity
  8
Layer_1
 62
7
100
AcDbSpline
 70
8
 71
3
 72
8
 73
4
 74
0
 40
0
 40
0
 40
0
 40
0
 40
1
 40
1
 40
1
 40
1
 10
183.202717
 20
251.195819
 30
0.0
 10
180.988889
 20
253.409647
 30
0.0
 10
177.986295
 20
254.653362
 30
0.0
 10
174.855470
 20
254.653362
 30
0.0
  0
LINE
  5
13d
100
AcDbEntity
  8
Layer_1
 62
7
100
AcDbLine
 10
174.855470
 20
254.653362
 30
0.0
 11
174.855470
 21
254.653362
 31
0.0
  0
SPLINE
  5
13e
100
AcDbEntity
  8
Layer_1
 62
7
100
AcDbSpline
 70
8
 71
3
 72
8
 73
4
 74
0
 40
0
 40
0
 40
0
 40
0
 40
1
 40
1
 40
1
 40
1
 10
229.926060
 20
268.049366
 30
0.0
 10
225.151468
 20
268.049366
 30
0.0
 10
220.847013
 20
265.173221
 30
0.0
 10
219.019856
 20
260.762074
 30
0.0
  0
SPLINE
  5
13f
100
AcDbEntity
  8
Layer_1
 62
7
100
AcDbSpline
 70
8
 71
3
 72
8
 73
4
 74
0
 40
0
 40
0
 40
0
 40
0
 40
1
 40
1
 40
1
 40
1
 10
219.019856
 20
260.762074
 30
0.0
 10
217.192699
 20
256.350926
 30
0.0
 10
218.202667
 20
251.273475
 30
0.0
 10
221.578813
 20
247.897329
 30
0.0
  0
SPLINE
  5
140
100
AcDbEntity
  8
Layer_1
 62
7
100
AcDbSpline
 70
8
 71
3
 72
8
 73
4
 74
0
 40
0
 40
0
 40
0
 40
0
 40
1
 40
1
 40
1
 40
1
 10
221.578813
 20
247.897329
 30
0.0
 10
224.954959
 20
244.521183
 30
0.0
 10
230.032410
 20
243.511215
 30
0.0
 10
234.443558
 20
245.338372
 30
0.0
  0
SPLINE
  5
141
100
AcDbEntity
  8
Layer_1
 62
7
100
AcDbSpline
 70
8
 71
3
 72
8
 73
4
 74
0
 40
0
 40
0
 40
0
 40
0
 40
1
 40
1
 40
1
 40
1
 10
234.443558
 20
245.338372
 30
0.0
 10
238.854705
 20
247.165529
 30
0.0
 10
241.730850
 20
251.469984
 30
0.0
 10
241.730850
 20
256.244576
 30
0.0
  0
SPLINE
  5
142
100
AcDbEntity
  8
Layer_1
 62
7
100
AcDbSpline
 70
8
 71
3
 72
8
 73
4
 74
0
 40
0
 40
0
 40
0
 40
0
 40
1
 40
1
 40
1
 40
1
 10
241.730850
 20
256.244576
 30
0.0
 10
241.730850
 20
259.375401
 30
0.0
 10
240.487135
 20
262.377995
 30
0.0
 10
238.273307
 20
264.591823
 30
0.0
  0
SPLINE
  5
143
100
AcDbEntity
  8
Layer_1
 62
7
100
AcDbSpline
 70
8
 71
3
 72
8
 73
4
 74
0
 40
0
 40
0
 40
0
 40
0
 40
1
 40
1
 40
1
 40
1
 10
238.273307
 20
264.591823
 30
0.0
 10
236.059479
 20
266.805651
 30
0.0
 10
233.056885
 20
268.049366
 30
0.0
 10
229.926060
 20
268.049366
 30
0.0
  0
LINE
  5
144
100
AcDbEntity
  8
Layer_1
 62
7
100
AcDbLine
 10
229.926060
 20
268.049366
 30
0.0
 11
229.926060
 21
268.049366
 31
0.0
  0
SPLINE
  5
145
100
AcDbEntity
  8
Layer_1
 62
7
100
AcDbSpline
 70
8
 71
3
 72
8
 73
4
 74
0
 40
0
 40
0
 40
0
 40
0
 40
1
 40
1
 40
1
 40
1
 10
174.855470
 20
224.653827
 30
0.0
 10
170.080878
 20
224.653827
 30
0.0
 10
165.776423
 20
221.777682
 30
0.0
 10
163.949266
 20
217.366535
 30
0.0
  0
SPLINE
  5
146
100
AcDbEntity
  8
Layer_1
 62
7
100
AcDbSpline
 70
8
 71
3
 72
8
 73
4
 74
0
 40
0
 40
0
 40
0
 40
0
 40
1
 40
1
 40
1
 40
1
 10
163.949266
 20
217.366535
 30
0.0
 10
162.122109
 20
212.955387
 30
0.0
 10
163.132077
 20
207.877936
 30
0.0
 10
166.508223
 20
204.501790
 30
0.0
  0
SPLINE
  5
147
100
AcDbEntity
  8
Layer_1
 62
7
100
AcDbSpline
 70
8
 71
3
 72
8
 73
4
 74
0
 40
0
 40
0
 40
0
 40
0
 40
1
 40
1
 40
1
 40
1
 10
166.508223
 20
204.501790
 30
0.0
 10
169.884369
 20
201.125644
 30
0.0
 10
174.961820
 20
200.115676
 30
0.0
 10
179.372968
 20
201.942833
 30
0.0
  0
SPLINE
  5
148
100
AcDbEntity
  8
Layer_1
 62
7
100
AcDbSpline
 70
8
 71
3
 72
8
 73
4
 74
0
 40
0
 40
0
 40
0
 40
0
 40
1
 40
1
 40
1
 40
1
 10
179.372968
 20
201.942833
 30
0.0
 10
183.784115
 20
203.769990
 30
0.0
 10
186.660260
 20
208.074445
 30
0.0
 10
186.660260
 20
212.849037
 30
0.0
  0
SPLINE
  5
149
100
AcDbEntity
  8
Layer_1
 62
7
100
AcDbSpline
 70
8
 71
3
 72
8
 73
4
 74
0
 40
0
 40
0
 40
0
 40
0
 40
1
 40
1
 40
1
 40
1
 10
186.660260
 20
212.849037
 30
0.0
 10
186.660260
 20
215.979862
 30
0.0
 10
185.416545
 20
218.982456
 30
0.0
 10
183.202717
 20
221.196284
 30
0.0
  0
SPLINE
  5
14a
100
AcDbEntity
  8
Layer_1
 62
7
100
AcDbSpline
 70
8
 71
3
 72
8
 73
4
 74
0
 40
0
 40
0
 40
0
 40
0
 40
1
 40
1
 40
1
 40
1
 10
183.202717
 20
221.196284
 30
0.0
 10
180.988889
 20
223.410112
 30
0.0
 10
177.986295
 20
224.653827
 30
0.0
 10
174.855470
 20
224.653827
 30
0.0
  0
LINE
  5
14b
100
AcDbEntity
  8
Layer_1
 62
7
100
AcDbLine
 10
174.855470
 20
224.653827
 30
0.0
 11
174.855470
 21
224.653827
 31
0.0
  0
SPLINE
  5
14c
100
AcDbEntity
  8
Layer_1
 62
7
100
AcDbSpline
 70
8
 71
3
 72
8
 73
4
 74
0
 40
0
 40
0
 40
0
 40
0
 40
1
 40
1
 40
1
 40
1
 10
200.866380
 20
268.049366
 30
0.0
 10
196.091788
 20
268.049366
 30
0.0
 10
191.787333
 20
265.173221
 30
0.0
 10
189.960176
 20
260.762074
 30
0.0
  0
SPLINE
  5
14d
100
AcDbEntity
  8
Layer_1
 62
7
100
AcDbSpline
 70
8
 71
3
 72
8
 73
4
 74
0
 40
0
 40
0
 40
0
 40
0
 40
1
 40
1
 40
1
 40
1
 10
189.960176
 20
260.762074
 30
0.0
 10
188.133019
 20
256.350926
 30
0.0
 10
189.142987
 20
251.273475
 30
0.0
 10
192.519133
 20
247.897329
 30
0.0
  0
SPLINE
  5
14e
100
AcDbEntity
  8
Layer_1
 62
7
100
AcDbSpline
 70
8
 71
3
 72
8
 73
4
 74
0
 40
0
 40
0
 40
0
 40
0
 40
1
 40
1
 40
1
 40
1
 10
192.519133
 20
247.897329
 30
0.0
 10
195.895279
 20
244.521183
 30
0.0
 10
200.972730
 20
243.511215
 30
0.0
 10
205.383878
 20
245.338372
 30
0.0
  0
SPLINE
  5
14f
100
AcDbEntity
  8
Layer_1
 62
7
100
AcDbSpline
 70
8
 71
3
 72
8
 73
4
 74
0
 40
0
 40
0
 40
0
 40
0
 40
1
 40
1
 40
1
 40
1
 10
205.383878
 20
245.338372
 30
0.0
 10
209.795025
 20
247.165529
 30
0.0
 10
212.671170
 20
251.469984
 30
0.0
 10
212.671170
 20
256.244576
 30
0.0
  0
SPLINE
  5
150
100
AcDbEntity
  8
Layer_1
 62
7
100
AcDbSpline
 70
8
 71
3
 72
8
 73
4
 74
0
 40
0
 40
0
 40
0
 40
0
 40
1
 40
1
 40
1
 40
1
 10
212.671170
 20
256.244576
 30
0.0
 10
212.671170
 20
259.375401
 30
0.0
 10
211.427455
 20
262.377995
 30
0.0
 10
209.213627
 20
264.591823
 30
0.0
  0
SPLINE
  5
151
100
AcDbEntity
  8
Layer_1
 62
7
100
AcDbSpline
 70
8
 71
3
 72
8
 73
4
 74
0
 40
0
 40
0
 40
0
 40
0
 40
1
 40
1
 40
1
 40
1
 10
209.213627
 20
264.591823
 30
0.0
 10
206.999799
 20
266.805651
 30
0.0
 10
203.997205
 20
268.049366
 30
0.0
 10
200.866380
 20
268.049366
 30
0.0
  0
LINE
  5
152
100
AcDbEntity
  8
Layer_1
 62
7
100
AcDbLine
 10
200.866380
 20
268.049366
 30
0.0
 11
200.866380
 21
268.049366
 31
0.0
  0
LINE
  5
153
100
AcDbEntity
  8
Layer_1
 62
7
100
AcDbLine
 10
-32.571911
 20
296.672565
 30
0.0
 11
367.233509
 21
296.672565
 31
0.0
  0
LINE
  5
154
100
AcDbEntity
  8
Layer_1
 62
7
100
AcDbLine
 10
367.233509
 20
296.672565
 30
0.0
 11
367.233509
 21
296.672565
 31
0.0
  0
LINE
  5
155
100
AcDbEntity
  8
Layer_1
 62
7
100
AcDbLine
 10
367.233509
 20
296.672565
 30
0.0
 11
367.233509
 21
296.672565
 31
0.0
  0
LINE
  5
156
100
AcDbEntity
  8
Layer_1
 62
7
100
AcDbLine
 10
367.233509
 20
296.672565
 30
0.0
 11
367.233509
 21
296.672565
 31
0.0
  0
LINE
  5
157
100
AcDbEntity
  8
Layer_1
 62
7
100
AcDbLine
 10
367.233509
 20
296.672565
 30
0.0
 11
367.233509
 21
116.863495
 31
0.0
  0
LINE
  5
158
100
AcDbEntity
  8
Layer_1
 62
7
100
AcDbLine
 10
367.233509
 20
116.863495
 30
0.0
 11
367.233509
 21
116.863495
 31
0.0
  0
LINE
  5
159
100
AcDbEntity
  8
Layer_1
 62
7
100
AcDbLine
 10
367.233509
 20
116.863495
 30
0.0
 11
-32.571911
 21
116.863495
 31
0.0
  0
LINE
  5
15a
100
AcDbEntity
  8
Layer_1
 62
7
100
AcDbLine
 10
-32.571911
 20
116.863495
 30
0.0
 11
-32.571911
 21
116.863495
 31
0.0
  0
LINE
  5
15b
100
AcDbEntity
  8
Layer_1
 62
7
100
AcDbLine
 10
-32.571911
 20
116.863495
 30
0.0
 11
-32.571911
 21
296.672565
 31
0.0
  0
LINE
  5
15c
100
AcDbEntity
  8
Layer_1
 62
7
100
AcDbLine
 10
-32.571911
 20
296.672565
 30
0.0
 11
-32.571911
 21
296.672565
 31
0.0
  0
LINE
  5
15d
100
AcDbEntity
  8
Layer_1
 62
7
100
AcDbLine
 10
-32.571911
 20
296.672565
 30
0.0
 11
-32.571911
 21
296.672565
 31
0.0
  0
LINE
  5
15e
100
AcDbEntity
  8
Layer_1
 62
7
100
AcDbLine
 10
-32.571911
 20
296.672565
 30
0.0
 11
-32.571911
 21
296.672565
 31
0.0
  0
LINE
  5
15f
100
AcDbEntity
  8
Layer_1
 62
7
100
AcDbLine
 10
-32.571911
 20
296.672565
 30
0.0
 11
-32.571911
 21
296.672565
 31
0.0
  0
SPLINE
  5
160
100
AcDbEntity
  8
Layer_1
 62
7
100
AcDbSpline
 70
8
 71
3
 72
8
 73
4
 74
0
 40
0
 40
0
 40
0
 40
0
 40
1
 40
1
 40
1
 40
1
 10
-22.087496
 20
287.894928
 30
0.0
 10
-22.527117
 20
287.894928
 30
0.0
 10
-22.923450
 20
287.630107
 30
0.0
 10
-23.091686
 20
287.223950
 30
0.0
  0
SPLINE
  5
161
100
AcDbEntity
  8
Layer_1
 62
7
100
AcDbSpline
 70
8
 71
3
 72
8
 73
4
 74
0
 40
0
 40
0
 40
0
 40
0
 40
1
 40
1
 40
1
 40
1
 10
-23.091686
 20
287.223950
 30
0.0
 10
-23.259922
 20
286.817793
 30
0.0
 10
-23.166929
 20
286.350286
 30
0.0
 10
-22.856070
 20
286.039427
 30
0.0
  0
SPLINE
  5
162
100
AcDbEntity
  8
Layer_1
 62
7
100
AcDbSpline
 70
8
 71
3
 72
8
 73
4
 74
0
 40
0
 40
0
 40
0
 40
0
 40
1
 40
1
 40
1
 40
1
 10
-22.856070
 20
286.039427
 30
0.0
 10
-22.545211
 20
285.728568
 30
0.0
 10
-22.077704
 20
285.635575
 30
0.0
 10
-21.671547
 20
285.803811
 30
0.0
  0
SPLINE
  5
163
100
AcDbEntity
  8
Layer_1
 62
7
100
AcDbSpline
 70
8
 71
3
 72
8
 73
4
 74
0
 40
0
 40
0
 40
0
 40
0
 40
1
 40
1
 40
1
 40
1
 10
-21.671547
 20
285.803811
 30
0.0
 10
-21.265390
 20
285.972047
 30
0.0
 10
-21.000569
 20
286.368380
 30
0.0
 10
-21.000569
 20
286.808001
 30
0.0
  0
SPLINE
  5
164
100
AcDbEntity
  8
Layer_1
 62
7
100
AcDbSpline
 70
8
 71
3
 72
8
 73
4
 74
0
 40
0
 40
0
 40
0
 40
0
 40
1
 40
1
 40
1
 40
1
 10
-21.000569
 20
286.808001
 30
0.0
 10
-21.000569
 20
287.096272
 30
0.0
 10
-21.115084
 20
287.372736
 30
0.0
 10
-21.318922
 20
287.576575
 30
0.0
  0
SPLINE
  5
165
100
AcDbEntity
  8
Layer_1
 62
7
100
AcDbSpline
 70
8
 71
3
 72
8
 73
4
 74
0
 40
0
 40
0
 40
0
 40
0
 40
1
 40
1
 40
1
 40
1
 10
-21.318922
 20
287.576575
 30
0.0
 10
-21.522761
 20
287.780413
 30
0.0
 10
-21.799225
 20
287.894928
 30
0.0
 10
-22.087496
 20
287.894928
 30
0.0
  0
LINE
  5
166
100
AcDbEntity
  8
Layer_1
 62
7
100
AcDbLine
 10
-22.087496
 20
287.894928
 30
0.0
 11
-22.087496
 21
287.894928
 31
0.0
  0
SPLINE
  5
167
100
AcDbEntity
  8
Layer_1
 62
7
100
AcDbSpline
 70
8
 71
3
 72
8
 73
4
 74
0
 40
0
 40
0
 40
0
 40
0
 40
1
 40
1
 40
1
 40
1
 10
132.579220
 20
281.461666
 30
0.0
 10
127.804628
 20
281.461666
 30
0.0
 10
123.500173
 20
278.585521
 30
0.0
 10
121.673016
 20
274.174374
 30
0.0
  0
SPLINE
  5
168
100
AcDbEntity
  8
Layer_1
 62
7
100
AcDbSpline
 70
8
 71
3
 72
8
 73
4
 74
0
 40
0
 40
0
 40
0
 40
0
 40
1
 40
1
 40
1
 40
1
 10
121.673016
 20
274.174374
 30
0.0
 10
119.845859
 20
269.763226
 30
0.0
 10
120.855827
 20
264.685775
 30
0.0
 10
124.231973
 20
261.309629
 30
0.0
  0
SPLINE
  5
169
100
AcDbEntity
  8
Layer_1
 62
7
100
AcDbSpline
 70
8
 71
3
 72
8
 73
4
 74
0
 40
0
 40
0
 40
0
 40
0
 40
1
 40
1
 40
1
 40
1
 10
124.231973
 20
261.309629
 30
0.0
 10
127.608119
 20
257.933483
 30
0.0
 10
132.685570
 20
256.923515
 30
0.0
 10
137.096718
 20
258.750672
 30
0.0
  0
SPLINE
  5
16a
100
AcDbEntity
  8
Layer_1
 62
7
100
AcDbSpline
 70
8
 71
3
 72
8
 73
4
 74
0
 40
0
 40
0
 40
0
 40
0
 40
1
 40
1
 40
1
 40
1
 10
137.096718
 20
258.750672
 30
0.0
 10
141.507865
 20
260.577829
 30
0.0
 10
144.384010
 20
264.882284
 30
0.0
 10
144.384010
 20
269.656876
 30
0.0
  0
SPLINE
  5
16b
100
AcDbEntity
  8
Layer_1
 62
7
100
AcDbSpline
 70
8
 71
3
 72
8
 73
4
 74
0
 40
0
 40
0
 40
0
 40
0
 40
1
 40
1
 40
1
 40
1
 10
144.384010
 20
269.656876
 30
0.0
 10
144.384010
 20
272.787701
 30
0.0
 10
143.140295
 20
275.790295
 30
0.0
 10
140.926467
 20
278.004123
 30
0.0
  0
SPLINE
  5
16c
100
AcDbEntity
  8
Layer_1
 62
7
100
AcDbSpline
 70
8
 71
3
 72
8
 73
4
 74
0
 40
0
 40
0
 40
0
 40
0
 40
1
 40
1
 40
1
 40
1
 10
140.926467
 20
278.004123
 30
0.0
 10
138.712639
 20
280.217951
 30
0.0
 10
135.710045
 20
281.461666
 30
0.0
 10
132.579220
 20
281.461666
 30
0.0
  0
LINE
  5
16d
100
AcDbEntity
  8
Layer_1
 62
7
100
AcDbLine
 10
132.579220
 20
281.461666
 30
0.0
 11
132.579220
 21
281.461666
 31
0.0
  0
SPLINE
  5
16e
100
AcDbEntity
  8
Layer_1
 62
7
100
AcDbSpline
 70
8
 71
3
 72
8
 73
4
 74
0
 40
0
 40
0
 40
0
 40
0
 40
1
 40
1
 40
1
 40
1
 10
162.577840
 20
281.461666
 30
0.0
 10
157.803248
 20
281.461666
 30
0.0
 10
153.498793
 20
278.585521
 30
0.0
 10
151.671636
 20
274.174374
 30
0.0
  0
SPLINE
  5
16f
100
AcDbEntity
  8
Layer_1
 62
7
100
AcDbSpline
 70
8
 71
3
 72
8
 73
4
 74
0
 40
0
 40
0
 40
0
 40
0
 40
1
 40
1
 40
1
 40
1
 10
151.671636
 20
274.174374
 30
0.0
 10
149.844479
 20
269.763226
 30
0.0
 10
150.854447
 20
264.685775
 30
0.0
 10
154.230593
 20
261.309629
 30
0.0
  0
SPLINE
  5
170
100
AcDbEntity
  8
Layer_1
 62
7
100
AcDbSpline
 70
8
 71
3
 72
8
 73
4
 74
0
 40
0
 40
0
 40
0
 40
0
 40
1
 40
1
 40
1
 40
1
 10
154.230593
 20
261.309629
 30
0.0
 10
157.606739
 20
257.933483
 30
0.0
 10
162.684190
 20
256.923515
 30
0.0
 10
167.095338
 20
258.750672
 30
0.0
  0
SPLINE
  5
171
100
AcDbEntity
  8
Layer_1
 62
7
100
AcDbSpline
 70
8
 71
3
 72
8
 73
4
 74
0
 40
0
 40
0
 40
0
 40
0
 40
1
 40
1
 40
1
 40
1
 10
167.095338
 20
258.750672
 30
0.0
 10
171.506485
 20
260.577829
 30
0.0
 10
174.382630
 20
264.882284
 30
0.0
 10
174.382630
 20
269.656876
 30
0.0
  0
SPLINE
  5
172
100
AcDbEntity
  8
Layer_1
 62
7
100
AcDbSpline
 70
8
 71
3
 72
8
 73
4
 74
0
 40
0
 40
0
 40
0
 40
0
 40
1
 40
1
 40
1
 40
1
 10
174.382630
 20
269.656876
 30
0.0
 10
174.382630
 20
272.787701
 30
0.0
 10
173.138915
 20
275.790295
 30
0.0
 10
170.925087
 20
278.004123
 30
0.0
  0
SPLINE
  5
173
100
AcDbEntity
  8
Layer_1
 62
7
100
AcDbSpline
 70
8
 71
3
 72
8
 73
4
 74
0
 40
0
 40
0
 40
0
 40
0
 40
1
 40
1
 40
1
 40
1
 10
170.925087
 20
278.004123
 30
0.0
 10
168.711259
 20
280.217951
 30
0.0
 10
165.708665
 20
281.461666
 30
0.0
 10
162.577840
 20
281.461666
 30
0.0
  0
LINE
  5
174
100
AcDbEntity
  8
Layer_1
 62
7
100
AcDbLine
 10
162.577840
 20
281.461666
 30
0.0
 11
162.577840
 21
281.461666
 31
0.0
  0
SPLINE
  5
175
100
AcDbEntity
  8
Layer_1
 62
7
100
AcDbSpline
 70
8
 71
3
 72
8
 73
4
 74
0
 40
0
 40
0
 40
0
 40
0
 40
1
 40
1
 40
1
 40
1
 10
163.258060
 20
287.894928
 30
0.0
 10
162.818439
 20
287.894928
 30
0.0
 10
162.422106
 20
287.630107
 30
0.0
 10
162.253870
 20
287.223950
 30
0.0
  0
SPLINE
  5
176
100
AcDbEntity
  8
Layer_1
 62
7
100
AcDbSpline
 70
8
 71
3
 72
8
 73
4
 74
0
 40
0
 40
0
 40
0
 40
0
 40
1
 40
1
 40
1
 40
1
 10
162.253870
 20
287.223950
 30
0.0
 10
162.085634
 20
286.817793
 30
0.0
 10
162.178627
 20
286.350286
 30
0.0
 10
162.489486
 20
286.039427
 30
0.0
  0
SPLINE
  5
177
100
AcDbEntity
  8
Layer_1
 62
7
100
AcDbSpline
 70
8
 71
3
 72
8
 73
4
 74
0
 40
0
 40
0
 40
0
 40
0
 40
1
 40
1
 40
1
 40
1
 10
162.489486
 20
286.039427
 30
0.0
 10
162.800345
 20
285.728568
 30
0.0
 10
163.267852
 20
285.635575
 30
0.0
 10
163.674009
 20
285.803811
 30
0.0
  0
SPLINE
  5
178
100
AcDbEntity
  8
Layer_1
 62
7
100
AcDbSpline
 70
8
 71
3
 72
8
 73
4
 74
0
 40
0
 40
0
 40
0
 40
0
 40
1
 40
1
 40
1
 40
1
 10
163.674009
 20
285.803811
 30
0.0
 10
164.080166
 20
285.972047
 30
0.0
 10
164.344987
 20
286.368380
 30
0.0
 10
164.344987
 20
286.808001
 30
0.0
  0
SPLINE
  5
179
100
AcDbEntity
  8
Layer_1
 62
7
100
AcDbSpline
 70
8
 71
3
 72
8
 73
4
 74
0
 40
0
 40
0
 40
0
 40
0
 40
1
 40
1
 40
1
 40
1
 10
164.344987
 20
286.808001
 30
0.0
 10
164.344987
 20
287.096272
 30
0.0
 10
164.230472
 20
287.372736
 30
0.0
 10
164.026634
 20
287.576575
 30
0.0
  0
SPLINE
  5
17a
100
AcDbEntity
  8
Layer_1
 62
7
100
AcDbSpline
 70
8
 71
3
 72
8
 73
4
 74
0
 40
0
 40
0
 40
0
 40
0
 40
1
 40
1
 40
1
 40
1
 10
164.026634
 20
287.576575
 30
0.0
 10
163.822795
 20
287.780413
 30
0.0
 10
163.546331
 20
287.894928
 30
0.0
 10
163.258060
 20
287.894928
 30
0.0
  0
LINE
  5
17b
100
AcDbEntity
  8
Layer_1
 62
7
100
AcDbLine
 10
163.258060
 20
287.894928
 30
0.0
 11
163.258060
 21
287.894928
 31
0.0
  0
SPLINE
  5
17c
100
AcDbEntity
  8
Layer_1
 62
7
100
AcDbSpline
 70
8
 71
3
 72
8
 73
4
 74
0
 40
0
 40
0
 40
0
 40
0
 40
1
 40
1
 40
1
 40
1
 10
163.258000
 20
128.365937
 30
0.0
 10
162.818379
 20
128.365937
 30
0.0
 10
162.422046
 20
128.101116
 30
0.0
 10
162.253810
 20
127.694959
 30
0.0
  0
SPLINE
  5
17d
100
AcDbEntity
  8
Layer_1
 62
7
100
AcDbSpline
 70
8
 71
3
 72
8
 73
4
 74
0
 40
0
 40
0
 40
0
 40
0
 40
1
 40
1
 40
1
 40
1
 10
162.253810
 20
127.694959
 30
0.0
 10
162.085574
 20
127.288802
 30
0.0
 10
162.178567
 20
126.821295
 30
0.0
 10
162.489426
 20
126.510436
 30
0.0
  0
SPLINE
  5
17e
100
AcDbEntity
  8
Layer_1
 62
7
100
AcDbSpline
 70
8
 71
3
 72
8
 73
4
 74
0
 40
0
 40
0
 40
0
 40
0
 40
1
 40
1
 40
1
 40
1
 10
162.489426
 20
126.510436
 30
0.0
 10
162.800285
 20
126.199577
 30
0.0
 10
163.267792
 20
126.106584
 30
0.0
 10
163.673949
 20
126.274820
 30
0.0
  0
SPLINE
  5
17f
100
AcDbEntity
  8
Layer_1
 62
7
100
AcDbSpline
 70
8
 71
3
 72
8
 73
4
 74
0
 40
0
 40
0
 40
0
 40
0
 40
1
 40
1
 40
1
 40
1
 10
163.673949
 20
126.274820
 30
0.0
 10
164.080106
 20
126.443056
 30
0.0
 10
164.344927
 20
126.839389
 30
0.0
 10
164.344927
 20
127.279010
 30
0.0
  0
SPLINE
  5
180
100
AcDbEntity
  8
Layer_1
 62
7
100
AcDbSpline
 70
8
 71
3
 72
8
 73
4
 74
0
 40
0
 40
0
 40
0
 40
0
 40
1
 40
1
 40
1
 40
1
 10
164.344927
 20
127.279010
 30
0.0
 10
164.344927
 20
127.567281
 30
0.0
 10
164.230412
 20
127.843745
 30
0.0
 10
164.026574
 20
128.047584
 30
0.0
  0
SPLINE
  5
181
100
AcDbEntity
  8
Layer_1
 62
7
100
AcDbSpline
 70
8
 71
3
 72
8
 73
4
 74
0
 40
0
 40
0
 40
0
 40
0
 40
1
 40
1
 40
1
 40
1
 10
164.026574
 20
128.047584
 30
0.0
 10
163.822735
 20
128.251422
 30
0.0
 10
163.546271
 20
128.365937
 30
0.0
 10
163.258000
 20
128.365937
 30
0.0
  0
LINE
  5
182
100
AcDbEntity
  8
Layer_1
 62
7
100
AcDbLine
 10
163.258000
 20
128.365937
 30
0.0
 11
163.258000
 21
128.365937
 31
0.0
  0
SPLINE
  5
183
100
AcDbEntity
  8
Layer_1
 62
7
100
AcDbSpline
 70
8
 71
3
 72
8
 73
4
 74
0
 40
0
 40
0
 40
0
 40
0
 40
1
 40
1
 40
1
 40
1
 10
-22.087496
 20
128.365537
 30
0.0
 10
-22.527117
 20
128.365537
 30
0.0
 10
-22.923450
 20
128.100716
 30
0.0
 10
-23.091686
 20
127.694559
 30
0.0
  0
SPLINE
  5
184
100
AcDbEntity
  8
Layer_1
 62
7
100
AcDbSpline
 70
8
 71
3
 72
8
 73
4
 74
0
 40
0
 40
0
 40
0
 40
0
 40
1
 40
1
 40
1
 40
1
 10
-23.091686
 20
127.694559
 30
0.0
 10
-23.259922
 20
127.288402
 30
0.0
 10
-23.166929
 20
126.820895
 30
0.0
 10
-22.856070
 20
126.510036
 30
0.0
  0
SPLINE
  5
185
100
AcDbEntity
  8
Layer_1
 62
7
100
AcDbSpline
 70
8
 71
3
 72
8
 73
4
 74
0
 40
0
 40
0
 40
0
 40
0
 40
1
 40
1
 40
1
 40
1
 10
-22.856070
 20
126.510036
 30
0.0
 10
-22.545211
 20
126.199177
 30
0.0
 10
-22.077704
 20
126.106184
 30
0.0
 10
-21.671547
 20
126.274420
 30
0.0
  0
SPLINE
  5
186
100
AcDbEntity
  8
Layer_1
 62
7
100
AcDbSpline
 70
8
 71
3
 72
8
 73
4
 74
0
 40
0
 40
0
 40
0
 40
0
 40
1
 40
1
 40
1
 40
1
 10
-21.671547
 20
126.274420
 30
0.0
 10
-21.265390
 20
126.442656
 30
0.0
 10
-21.000569
 20
126.838989
 30
0.0
 10
-21.000569
 20
127.278610
 30
0.0
  0
SPLINE
  5
187
100
AcDbEntity
  8
Layer_1
 62
7
100
AcDbSpline
 70
8
 71
3
 72
8
 73
4
 74
0
 40
0
 40
0
 40
0
 40
0
 40
1
 40
1
 40
1
 40
1
 10
-21.000569
 20
127.278610
 30
0.0
 10
-21.000569
 20
127.566881
 30
0.0
 10
-21.115084
 20
127.843345
 30
0.0
 10
-21.318922
 20
128.047184
 30
0.0
  0
SPLINE
  5
188
100
AcDbEntity
  8
Layer_1
 62
7
100
AcDbSpline
 70
8
 71
3
 72
8
 73
4
 74
0
 40
0
 40
0
 40
0
 40
0
 40
1
 40
1
 40
1
 40
1
 10
-21.318922
 20
128.047184
 30
0.0
 10
-21.522761
 20
128.251022
 30
0.0
 10
-21.799225
 20
128.365537
 30
0.0
 10
-22.087496
 20
128.365537
 30
0.0
  0
LINE
  5
189
100
AcDbEntity
  8
Layer_1
 62
7
100
AcDbLine
 10
-22.087496
 20
128.365537
 30
0.0
 11
-22.087496
 21
128.365537
 31
0.0
  0
SPLINE
  5
18a
100
AcDbEntity
  8
Layer_1
 62
7
100
AcDbSpline
 70
8
 71
3
 72
8
 73
4
 74
0
 40
0
 40
0
 40
0
 40
0
 40
1
 40
1
 40
1
 40
1
 10
358.054470
 20
287.894928
 30
0.0
 10
357.614849
 20
287.894928
 30
0.0
 10
357.218516
 20
287.630107
 30
0.0
 10
357.050280
 20
287.223950
 30
0.0
  0
SPLINE
  5
18b
100
AcDbEntity
  8
Layer_1
 62
7
100
AcDbSpline
 70
8
 71
3
 72
8
 73
4
 74
0
 40
0
 40
0
 40
0
 40
0
 40
1
 40
1
 40
1
 40
1
 10
357.050280
 20
287.223950
 30
0.0
 10
356.882044
 20
286.817793
 30
0.0
 10
356.975037
 20
286.350286
 30
0.0
 10
357.285896
 20
286.039427
 30
0.0
  0
SPLINE
  5
18c
100
AcDbEntity
  8
Layer_1
 62
7
100
AcDbSpline
 70
8
 71
3
 72
8
 73
4
 74
0
 40
0
 40
0
 40
0
 40
0
 40
1
 40
1
 40
1
 40
1
 10
357.285896
 20
286.039427
 30
0.0
 10
357.596755
 20
285.728568
 30
0.0
 10
358.064262
 20
285.635575
 30
0.0
 10
358.470419
 20
285.803811
 30
0.0
  0
SPLINE
  5
18d
100
AcDbEntity
  8
Layer_1
 62
7
100
AcDbSpline
 70
8
 71
3
 72
8
 73
4
 74
0
 40
0
 40
0
 40
0
 40
0
 40
1
 40
1
 40
1
 40
1
 10
358.470419
 20
285.803811
 30
0.0
 10
358.876576
 20
285.972047
 30
0.0
 10
359.141397
 20
286.368380
 30
0.0
 10
359.141397
 20
286.808001
 30
0.0
  0
SPLINE
  5
18e
100
AcDbEntity
  8
Layer_1
 62
7
100
AcDbSpline
 70
8
 71
3
 72
8
 73
4
 74
0
 40
0
 40
0
 40
0
 40
0
 40
1
 40
1
 40
1
 40
1
 10
359.141397
 20
286.808001
 30
0.0
 10
359.141397
 20
287.096272
 30
0.0
 10
359.026882
 20
287.372736
 30
0.0
 10
358.823044
 20
287.576575
 30
0.0
  0
SPLINE
  5
18f
100
AcDbEntity
  8
Layer_1
 62
7
100
AcDbSpline
 70
8
 71
3
 72
8
 73
4
 74
0
 40
0
 40
0
 40
0
 40
0
 40
1
 40
1
 40
1
 40
1
 10
358.823044
 20
287.576575
 30
0.0
 10
358.619205
 20
287.780413
 30
0.0
 10
358.342741
 20
287.894928
 30
0.0
 10
358.054470
 20
287.894928
 30
0.0
  0
LINE
  5
190
100
AcDbEntity
  8
Layer_1
 62
7
100
AcDbLine
 10
358.054470
 20
287.894928
 30
0.0
 11
358.054470
 21
287.894928
 31
0.0
  0
SPLINE
  5
191
100
AcDbEntity
  8
Layer_1
 62
7
100
AcDbSpline
 70
8
 71
3
 72
8
 73
4
 74
0
 40
0
 40
0
 40
0
 40
0
 40
1
 40
1
 40
1
 40
1
 10
358.053990
 20
128.365937
 30
0.0
 10
357.614369
 20
128.365937
 30
0.0
 10
357.218036
 20
128.101116
 30
0.0
 10
357.049800
 20
127.694959
 30
0.0
  0
SPLINE
  5
192
100
AcDbEntity
  8
Layer_1
 62
7
100
AcDbSpline
 70
8
 71
3
 72
8
 73
4
 74
0
 40
0
 40
0
 40
0
 40
0
 40
1
 40
1
 40
1
 40
1
 10
357.049800
 20
127.694959
 30
0.0
 10
356.881564
 20
127.288802
 30
0.0
 10
356.974557
 20
126.821295
 30
0.0
 10
357.285416
 20
126.510436
 30
0.0
  0
SPLINE
  5
193
100
AcDbEntity
  8
Layer_1
 62
7
100
AcDbSpline
 70
8
 71
3
 72
8
 73
4
 74
0
 40
0
 40
0
 40
0
 40
0
 40
1
 40
1
 40
1
 40
1
 10
357.285416
 20
126.510436
 30
0.0
 10
357.596275
 20
126.199577
 30
0.0
 10
358.063782
 20
126.106584
 30
0.0
 10
358.469939
 20
126.274820
 30
0.0
  0
SPLINE
  5
194
100
AcDbEntity
  8
Layer_1
 62
7
100
AcDbSpline
 70
8
 71
3
 72
8
 73
4
 74
0
 40
0
 40
0
 40
0
 40
0
 40
1
 40
1
 40
1
 40
1
 10
358.469939
 20
126.274820
 30
0.0
 10
358.876096
 20
126.443056
 30
0.0
 10
359.140917
 20
126.839389
 30
0.0
 10
359.140917
 20
127.279010
 30
0.0
  0
SPLINE
  5
195
100
AcDbEntity
  8
Layer_1
 62
7
100
AcDbSpline
 70
8
 71
3
 72
8
 73
4
 74
0
 40
0
 40
0
 40
0
 40
0
 40
1
 40
1
 40
1
 40
1
 10
359.140917
 20
127.279010
 30
0.0
 10
359.140917
 20
127.567281
 30
0.0
 10
359.026402
 20
127.843745
 30
0.0
 10
358.822564
 20
128.047584
 30
0.0
  0
SPLINE
  5
196
100
AcDbEntity
  8
Layer_1
 62
7
100
AcDbSpline
 70
8
 71
3
 72
8
 73
4
 74
0
 40
0
 40
0
 40
0
 40
0
 40
1
 40
1
 40
1
 40
1
 10
358.822564
 20
128.047584
 30
0.0
 10
358.618725
 20
128.251422
 30
0.0
 10
358.342261
 20
128.365937
 30
0.0
 10
358.053990
 20
128.365937
 30
0.0
  0
LINE
  5
197
100
AcDbEntity
  8
Layer_1
 62
7
100
AcDbLine
 10
358.053990
 20
128.365937
 30
0.0
 11
358.053990
 21
128.365937
 31
0.0
  0
ENDSEC
  0
SECTION
  2
OBJECTS
  0
DICTIONARY
  5
C
330
0
100
AcDbDictionary
  3
ACAD_GROUP
350
D
  3
ACAD_MLINESTYLE
350
17
  0
DICTIONARY
  5
D
330
C
100
AcDbDictionary
  0
DICTIONARY
  5
1A
330
C
100
AcDbDictionary
  0
DICTIONARY
  5
17
330
C
100
AcDbDictionary
  3
STANDARD
350
18
  0
DICTIONARY
  5
19
330
C
100
AcDbDictionary
  0
ENDSEC
  0
EOF
