  0
SECTION
  2
HEADER
  9
$ACADVER
  1
AC1014
  9
$HANDSEED
  5
FFFF
  9
$MEASUREMENT
 70
     1
  0
ENDSEC
  0
SECTION
  2
TABLES
  0
TABLE
  2
VPORT
  5
8
330
0
100
AcDbSymbolTable
 70
     4
  0
VPORT
  5
2E
330
8
100
AcDbSymbolTableRecord
100
AcDbViewportTableRecord
  2
*ACTIVE
 70
     0
 10
0.0
 20
0.0
 11
1.0
 21
1.0
 12
210.0
 22
148.5
 13
0.0
 23
0.0
 14
10.0
 24
10.0
 15
10.0
 25
10.0
 16
0.0
 26
0.0
 36
1.0
 17
0.0
 27
0.0
 37
0.0
 40
341.0
 41
1.24
 42
50.0
 43
0.0
 44
0.0
 50
0.0
 51
0.0
 71
     0
 72
   100
 73
     1
 74
     3
 75
     0
 76
     0
 77
     0
 78
     0
  0
ENDTAB
  0
TABLE
  2
LTYPE
  5
5
330
0
100
AcDbSymbolTable
 70
     1
  0
LTYPE
  5
14
330
5
100
AcDbSymbolTableRecord
100
AcDbLinetypeTableRecord
  2
BYBLOCK
 70
     0
  3

 72
    65
 73
     0
 40
0.0
  0
LTYPE
  5
15
330
5
100
AcDbSymbolTableRecord
100
AcDbLinetypeTableRecord
  2
BYLAYER
 70
     0
  3

 72
    65
 73
     0
 40
0.0
  0
LTYPE
  5
16
330
5
100
AcDbSymbolTableRecord
100
AcDbLinetypeTableRecord
  2
CONTINUOUS
 70
     0
  3
Solid line
 72
    65
 73
     0
 40
0.0
  0
ENDTAB
  0
TABLE
  2
LAYER
  5
2
100
AcDbSymbolTable
 70
2
  0
LAYER
  5
50
100
AcDbSymbolTableRecord
100
AcDbLayerTableRecord
  2
0
 70
0
  6
CONTINUOUS
  0
LAYER
  5
51
100
AcDbSymbolTableRecord
100
AcDbLayerTableRecord
  2
Layer_1
 70
0
  6
CONTINUOUS
  0
ENDTAB
  0
TABLE
  2
STYLE
  5
3
330
0
100
AcDbSymbolTable
 70
     1
  0
STYLE
  5
11
330
3
100
AcDbSymbolTableRecord
100
AcDbTextStyleTableRecord
  2
STANDARD
 70
     0
 40
0.0
 41
1.0
 50
0.0
 71
     0
 42
2.5
  3
txt
  4

  0
ENDTAB
  0
TABLE
  2
VIEW
  5
6
330
0
100
AcDbSymbolTable
 70
     0
  0
ENDTAB
  0
TABLE
  2
UCS
  5
7
330
0
100
AcDbSymbolTable
 70
     0
  0
ENDTAB
  0
TABLE
  2
APPID
  5
9
330
0
100
AcDbSymbolTable
 70
     2
  0
APPID
  5
12
330
9
100
AcDbSymbolTableRecord
100
AcDbRegAppTableRecord
  2
ACAD
 70
     0
  0
ENDTAB
  0
TABLE
  2
DIMSTYLE
  5
A
330
0
100
AcDbSymbolTable
 70
     1
  0
DIMSTYLE
105
27
330
A
100
AcDbSymbolTableRecord
100
AcDbDimStyleTableRecord
  2
ISO-25
 70
     0
  3

  4

  5

  6

  7

 40
1.0
 41
2.5
 42
0.625
 43
3.75
 44
1.25
 45
0.0
 46
0.0
 47
0.0
 48
0.0
140
2.5
141
2.5
142
0.0
143
0.03937007874016
144
1.0
145
0.0
146
1.0
147
0.625
 71
     0
 72
     0
 73
     0
 74
     0
 75
     0
 76
     0
 77
     1
 78
     8
170
     0
171
     3
172
     1
173
     0
174
     0
175
     0
176
     0
177
     0
178
     0
270
     2
271
     2
272
     2
273
     2
274
     3
340
11
275
     0
280
     0
281
     0
282
     0
283
     0
284
     8
285
     0
286
     0
287
     3
288
     0
  0
ENDTAB
  0
TABLE
  2
BLOCK_RECORD
  5
1
330
0
100
AcDbSymbolTable
 70
     1
  0
BLOCK_RECORD
  5
1F
330
1
100
AcDbSymbolTableRecord
100
AcDbBlockTableRecord
  2
*MODEL_SPACE
  0
BLOCK_RECORD
  5
1B
330
1
100
AcDbSymbolTableRecord
100
AcDbBlockTableRecord
  2
*PAPER_SPACE
  0
ENDTAB
  0
ENDSEC
  0
SECTION
  2
BLOCKS
  0
BLOCK
  5
20
330
1F
100
AcDbEntity
  8
0
100
AcDbBlockBegin
  2
*MODEL_SPACE
 70
     0
 10
0.0
 20
0.0
 30
0.0
  3
*MODEL_SPACE
  1

  0
ENDBLK
  5
21
330
1F
100
AcDbEntity
  8
0
100
AcDbBlockEnd
  0
BLOCK
  5
1C
330
1B
100
AcDbEntity
 67
     1
  8
0
100
AcDbBlockBegin
  2
*PAPER_SPACE
  1

  0
ENDBLK
  5
1D
330
1B
100
AcDbEntity
 67
     1
  8
0
100
AcDbBlockEnd
  0
ENDSEC
  0
SECTION
  2
ENTITIES
  0
SPLINE
  5
100
100
AcDbEntity
  8
Layer_1
 62
7
100
AcDbSpline
 70
8
 71
3
 72
8
 73
4
 74
0
 40
0
 40
0
 40
0
 40
0
 40
1
 40
1
 40
1
 40
1
 10
-87.433661
 20
235.265742
 30
0.0
 10
-73.194351
 20
238.400671
 30
0.0
 10
-67.531944
 20
228.489034
 30
0.0
 10
-68.438022
 20
222.166800
 30
0.0
  0
SPLINE
  5
101
100
AcDbEntity
  8
Layer_1
 62
7
100
AcDbSpline
 70
8
 71
3
 72
8
 73
4
 74
0
 40
0
 40
0
 40
0
 40
0
 40
1
 40
1
 40
1
 40
1
 10
-68.438022
 20
222.166800
 30
0.0
 10
-68.279969
 20
218.433786
 30
0.0
 10
-60.913827
 20
217.345603
 30
0.0
 10
-50.884349
 20
222.189485
 30
0.0
  0
SPLINE
  5
102
100
AcDbEntity
  8
Layer_1
 62
7
100
AcDbSpline
 70
8
 71
3
 72
8
 73
4
 74
0
 40
0
 40
0
 40
0
 40
0
 40
1
 40
1
 40
1
 40
1
 10
-50.884349
 20
222.189485
 30
0.0
 10
-39.423067
 20
224.908758
 30
0.0
 10
-29.779867
 20
224.115951
 30
0.0
 10
-18.830311
 20
223.589320
 30
0.0
  0
SPLINE
  5
103
100
AcDbEntity
  8
Layer_1
 62
7
100
AcDbSpline
 70
8
 71
3
 72
8
 73
4
 74
0
 40
0
 40
0
 40
0
 40
0
 40
1
 40
1
 40
1
 40
1
 10
-18.830311
 20
223.589320
 30
0.0
 10
-7.244292
 20
223.032078
 30
0.0
 10
2.053736
 20
215.815539
 30
0.0
 10
10.891197
 20
216.494212
 30
0.0
  0
SPLINE
  5
104
100
AcDbEntity
  8
Layer_1
 62
7
100
AcDbSpline
 70
8
 71
3
 72
8
 73
4
 74
0
 40
0
 40
0
 40
0
 40
0
 40
1
 40
1
 40
1
 40
1
 10
10.891197
 20
216.494212
 30
0.0
 10
18.641823
 20
216.479309
 30
0.0
 10
26.059347
 20
209.708404
 30
0.0
 10
26.027524
 20
200.526514
 30
0.0
  0
SPLINE
  5
105
100
AcDbEntity
  8
Layer_1
 62
7
100
AcDbSpline
 70
8
 71
3
 72
8
 73
4
 74
0
 40
0
 40
0
 40
0
 40
0
 40
1
 40
1
 40
1
 40
1
 10
26.027524
 20
200.526514
 30
0.0
 10
24.053842
 20
191.266329
 30
0.0
 10
22.454690
 20
182.658672
 30
0.0
 10
24.599160
 20
176.051794
 30
0.0
  0
SPLINE
  5
106
100
AcDbEntity
  8
Layer_1
 62
7
100
AcDbSpline
 70
8
 71
3
 72
8
 73
4
 74
0
 40
0
 40
0
 40
0
 40
0
 40
1
 40
1
 40
1
 40
1
 10
24.599160
 20
176.051794
 30
0.0
 10
24.758325
 20
175.561423
 30
0.0
 10
25.278316
 20
173.472198
 30
0.0
 10
25.278316
 20
171.098530
 30
0.0
  0
SPLINE
  5
107
100
AcDbEntity
  8
Layer_1
 62
7
100
AcDbSpline
 70
8
 71
3
 72
8
 73
4
 74
0
 40
0
 40
0
 40
0
 40
0
 40
1
 40
1
 40
1
 40
1
 10
25.278316
 20
171.098530
 30
0.0
 10
25.278317
 20
162.746201
 30
0.0
 10
20.282257
 20
149.244759
 30
0.0
 10
5.009354
 20
154.099374
 30
0.0
  0
SPLINE
  5
108
100
AcDbEntity
  8
Layer_1
 62
7
100
AcDbSpline
 70
8
 71
3
 72
8
 73
4
 74
0
 40
0
 40
0
 40
0
 40
0
 40
1
 40
1
 40
1
 40
1
 10
5.009354
 20
154.099374
 30
0.0
 10
-5.745919
 20
157.347568
 30
0.0
 10
-11.183357
 20
160.407328
 30
0.0
 10
-18.479767
 20
161.468839
 30
0.0
  0
LINE
  5
109
100
AcDbEntity
  8
Layer_1
 62
7
100
AcDbLine
 10
-18.479767
 20
161.468839
 30
0.0
 11
-18.479767
 21
161.468839
 31
0.0
  0
SPLINE
  5
10a
100
AcDbEntity
  8
Layer_1
 62
7
100
AcDbSpline
 70
8
 71
3
 72
8
 73
4
 74
0
 40
0
 40
0
 40
0
 40
0
 40
1
 40
1
 40
1
 40
1
 10
-18.479767
 20
161.468839
 30
0.0
 10
-28.128833
 20
161.655627
 30
0.0
 10
-35.933245
 20
162.437070
 30
0.0
 10
-44.808564
 20
161.415685
 30
0.0
  0
SPLINE
  5
10b
100
AcDbEntity
  8
Layer_1
 62
7
100
AcDbSpline
 70
8
 71
3
 72
8
 73
4
 74
0
 40
0
 40
0
 40
0
 40
0
 40
1
 40
1
 40
1
 40
1
 10
-44.808564
 20
161.415685
 30
0.0
 10
-53.683883
 20
160.394271
 30
0.0
 10
-57.698508
 20
156.833787
 30
0.0
 10
-62.265320
 20
150.727885
 30
0.0
  0
SPLINE
  5
10c
100
AcDbEntity
  8
Layer_1
 62
7
100
AcDbSpline
 70
8
 71
3
 72
8
 73
4
 74
0
 40
0
 40
0
 40
0
 40
0
 40
1
 40
1
 40
1
 40
1
 10
-62.265320
 20
150.727885
 30
0.0
 10
-66.832132
 20
144.621993
 30
0.0
 10
-66.591513
 20
136.026554
 30
0.0
 10
-66.560897
 20
126.435666
 30
0.0
  0
SPLINE
  5
10d
100
AcDbEntity
  8
Layer_1
 62
7
100
AcDbSpline
 70
8
 71
3
 72
8
 73
4
 74
0
 40
0
 40
0
 40
0
 40
0
 40
1
 40
1
 40
1
 40
1
 10
-66.560897
 20
126.435666
 30
0.0
 10
-66.530279
 20
116.844788
 30
0.0
 10
-74.789726
 20
108.585348
 30
0.0
 10
-84.978265
 20
108.585348
 30
0.0
  0
SPLINE
  5
10e
100
AcDbEntity
  8
Layer_1
 62
7
100
AcDbSpline
 70
8
 71
3
 72
8
 73
4
 74
0
 40
0
 40
0
 40
0
 40
0
 40
1
 40
1
 40
1
 40
1
 10
-84.978265
 20
108.585348
 30
0.0
 10
-95.166804
 20
108.585348
 30
0.0
 10
-103.426247
 20
116.844788
 30
0.0
 10
-103.426250
 20
127.033329
 30
0.0
  0
SPLINE
  5
10f
100
AcDbEntity
  8
Layer_1
 62
7
100
AcDbSpline
 70
8
 71
3
 72
8
 73
4
 74
0
 40
0
 40
0
 40
0
 40
0
 40
1
 40
1
 40
1
 40
1
 10
-103.426250
 20
127.033329
 30
0.0
 10
-103.426251
 20
131.915373
 30
0.0
 10
-101.529851
 20
136.354490
 30
0.0
 10
-99.287634
 20
138.511157
 30
0.0
  0
SPLINE
  5
110
100
AcDbEntity
  8
Layer_1
 62
7
100
AcDbSpline
 70
8
 71
3
 72
8
 73
4
 74
0
 40
0
 40
0
 40
0
 40
0
 40
1
 40
1
 40
1
 40
1
 10
-99.287634
 20
138.511157
 30
0.0
 10
-96.510204
 20
143.821937
 30
0.0
 10
-91.341806
 20
155.478610
 30
0.0
 10
-91.832956
 20
156.789479
 30
0.0
  0
SPLINE
  5
111
100
AcDbEntity
  8
Layer_1
 62
7
100
AcDbSpline
 70
8
 71
3
 72
8
 73
4
 74
0
 40
0
 40
0
 40
0
 40
0
 40
1
 40
1
 40
1
 40
1
 10
-91.832956
 20
156.789479
 30
0.0
 10
-92.160351
 20
157.653911
 30
0.0
 10
-99.375891
 20
161.103485
 30
0.0
 10
-103.199093
 20
161.275872
 30
0.0
  0
SPLINE
  5
112
100
AcDbEntity
  8
Layer_1
 62
7
100
AcDbSpline
 70
8
 71
3
 72
8
 73
4
 74
0
 40
0
 40
0
 40
0
 40
0
 40
1
 40
1
 40
1
 40
1
 10
-103.199093
 20
161.275872
 30
0.0
 10
-107.022295
 20
161.448259
 30
0.0
 10
-111.097058
 20
161.641847
 30
0.0
 10
-114.498834
 20
167.846534
 30
0.0
  0
SPLINE
  5
113
100
AcDbEntity
  8
Layer_1
 62
7
100
AcDbSpline
 70
8
 71
3
 72
8
 73
4
 74
0
 40
0
 40
0
 40
0
 40
0
 40
1
 40
1
 40
1
 40
1
 10
-114.498834
 20
167.846534
 30
0.0
 10
-118.127384
 20
173.530791
 30
0.0
 10
-121.641946
 20
174.444895
 30
0.0
 10
-129.901647
 20
177.410977
 30
0.0
  0
SPLINE
  5
114
100
AcDbEntity
  8
Layer_1
 62
7
100
AcDbSpline
 70
8
 71
3
 72
8
 73
4
 74
0
 40
0
 40
0
 40
0
 40
0
 40
1
 40
1
 40
1
 40
1
 10
-129.901647
 20
177.410977
 30
0.0
 10
-138.770062
 20
178.890138
 30
0.0
 10
-148.081244
 20
178.457986
 30
0.0
 10
-156.128834
 20
175.889689
 30
0.0
  0
SPLINE
  5
115
100
AcDbEntity
  8
Layer_1
 62
7
100
AcDbSpline
 70
8
 71
3
 72
8
 73
4
 74
0
 40
0
 40
0
 40
0
 40
0
 40
1
 40
1
 40
1
 40
1
 10
-156.128834
 20
175.889689
 30
0.0
 10
-164.568333
 20
174.987018
 30
0.0
 10
-171.665833
 20
183.423550
 30
0.0
 10
-171.665833
 20
191.775882
 30
0.0
  0
SPLINE
  5
116
100
AcDbEntity
  8
Layer_1
 62
7
100
AcDbSpline
 70
8
 71
3
 72
8
 73
4
 74
0
 40
0
 40
0
 40
0
 40
0
 40
1
 40
1
 40
1
 40
1
 10
-171.665833
 20
191.775882
 30
0.0
 10
-171.665833
 20
200.128214
 30
0.0
 10
-165.680108
 20
208.192363
 30
0.0
 10
-157.147831
 20
207.117335
 30
0.0
  0
SPLINE
  5
117
100
AcDbEntity
  8
Layer_1
 62
7
100
AcDbSpline
 70
8
 71
3
 72
8
 73
4
 74
0
 40
0
 40
0
 40
0
 40
0
 40
1
 40
1
 40
1
 40
1
 10
-157.147831
 20
207.117335
 30
0.0
 10
-148.661748
 20
204.610504
 30
0.0
 10
-138.753816
 20
203.596300
 30
0.0
 10
-135.199630
 20
205.700936
 30
0.0
  0
SPLINE
  5
118
100
AcDbEntity
  8
Layer_1
 62
7
100
AcDbSpline
 70
8
 71
3
 72
8
 73
4
 74
0
 40
0
 40
0
 40
0
 40
0
 40
1
 40
1
 40
1
 40
1
 10
-135.199630
 20
205.700936
 30
0.0
 10
-131.645434
 20
207.805571
 30
0.0
 10
-131.124843
 20
212.271512
 30
0.0
 10
-131.419382
 20
218.228445
 30
0.0
  0
SPLINE
  5
119
100
AcDbEntity
  8
Layer_1
 62
7
100
AcDbSpline
 70
8
 71
3
 72
8
 73
4
 74
0
 40
0
 40
0
 40
0
 40
0
 40
1
 40
1
 40
1
 40
1
 10
-131.419382
 20
218.228445
 30
0.0
 10
-134.445596
 20
229.551338
 30
0.0
 10
-124.995834
 20
237.338361
 30
0.0
 10
-115.027869
 20
235.966546
 30
0.0
  0
SPLINE
  5
11a
100
AcDbEntity
  8
Layer_1
 62
7
100
AcDbSpline
 70
8
 71
3
 72
8
 73
4
 74
0
 40
0
 40
0
 40
0
 40
0
 40
1
 40
1
 40
1
 40
1
 10
-115.027869
 20
235.966546
 30
0.0
 10
-111.467425
 20
235.238671
 30
0.0
 10
-95.622441
 20
231.576563
 30
0.0
 10
-87.433661
 20
235.265738
 30
0.0
  0
LINE
  5
11b
100
AcDbEntity
  8
Layer_1
 62
7
100
AcDbLine
 10
-87.433661
 20
235.265738
 30
0.0
 11
-87.433661
 21
235.265742
 31
0.0
  0
LINE
  5
11c
100
AcDbEntity
  8
Layer_1
 62
7
100
AcDbLine
 10
-86.184645
 20
176.571497
 30
0.0
 11
-86.184645
 21
176.571497
 31
0.0
  0
LINE
  5
11d
100
AcDbEntity
  8
Layer_1
 62
7
100
AcDbLine
 10
-32.707718
 20
176.551723
 30
0.0
 11
-32.707718
 21
176.551723
 31
0.0
  0
SPLINE
  5
11e
100
AcDbEntity
  8
Layer_1
 62
7
100
AcDbSpline
 70
8
 71
3
 72
8
 73
4
 74
0
 40
0
 40
0
 40
0
 40
0
 40
1
 40
1
 40
1
 40
1
 10
-270.842076
 20
238.858928
 30
0.0
 10
-271.281697
 20
238.858928
 30
0.0
 10
-271.678030
 20
238.594107
 30
0.0
 10
-271.846266
 20
238.187950
 30
0.0
  0
SPLINE
  5
11f
100
AcDbEntity
  8
Layer_1
 62
7
100
AcDbSpline
 70
8
 71
3
 72
8
 73
4
 74
0
 40
0
 40
0
 40
0
 40
0
 40
1
 40
1
 40
1
 40
1
 10
-271.846266
 20
238.187950
 30
0.0
 10
-272.014502
 20
237.781793
 30
0.0
 10
-271.921509
 20
237.314286
 30
0.0
 10
-271.610650
 20
237.003427
 30
0.0
  0
SPLINE
  5
120
100
AcDbEntity
  8
Layer_1
 62
7
100
AcDbSpline
 70
8
 71
3
 72
8
 73
4
 74
0
 40
0
 40
0
 40
0
 40
0
 40
1
 40
1
 40
1
 40
1
 10
-271.610650
 20
237.003427
 30
0.0
 10
-271.299791
 20
236.692568
 30
0.0
 10
-270.832284
 20
236.599575
 30
0.0
 10
-270.426127
 20
236.767811
 30
0.0
  0
SPLINE
  5
121
100
AcDbEntity
  8
Layer_1
 62
7
100
AcDbSpline
 70
8
 71
3
 72
8
 73
4
 74
0
 40
0
 40
0
 40
0
 40
0
 40
1
 40
1
 40
1
 40
1
 10
-270.426127
 20
236.767811
 30
0.0
 10
-270.019970
 20
236.936047
 30
0.0
 10
-269.755149
 20
237.332380
 30
0.0
 10
-269.755149
 20
237.772001
 30
0.0
  0
SPLINE
  5
122
100
AcDbEntity
  8
Layer_1
 62
7
100
AcDbSpline
 70
8
 71
3
 72
8
 73
4
 74
0
 40
0
 40
0
 40
0
 40
0
 40
1
 40
1
 40
1
 40
1
 10
-269.755149
 20
237.772001
 30
0.0
 10
-269.755149
 20
238.060272
 30
0.0
 10
-269.869664
 20
238.336736
 30
0.0
 10
-270.073502
 20
238.540575
 30
0.0
  0
SPLINE
  5
123
100
AcDbEntity
  8
Layer_1
 62
7
100
AcDbSpline
 70
8
 71
3
 72
8
 73
4
 74
0
 40
0
 40
0
 40
0
 40
0
 40
1
 40
1
 40
1
 40
1
 10
-270.073502
 20
238.540575
 30
0.0
 10
-270.277341
 20
238.744413
 30
0.0
 10
-270.553805
 20
238.858928
 30
0.0
 10
-270.842076
 20
238.858928
 30
0.0
  0
LINE
  5
124
100
AcDbEntity
  8
Layer_1
 62
7
100
AcDbLine
 10
-270.842076
 20
238.858928
 30
0.0
 11
-270.842076
 21
238.858928
 31
0.0
  0
SPLINE
  5
125
100
AcDbEntity
  8
Layer_1
 62
7
100
AcDbSpline
 70
8
 71
3
 72
8
 73
4
 74
0
 40
0
 40
0
 40
0
 40
0
 40
1
 40
1
 40
1
 40
1
 10
-85.496520
 20
238.858928
 30
0.0
 10
-85.936141
 20
238.858928
 30
0.0
 10
-86.332474
 20
238.594107
 30
0.0
 10
-86.500710
 20
238.187950
 30
0.0
  0
SPLINE
  5
126
100
AcDbEntity
  8
Layer_1
 62
7
100
AcDbSpline
 70
8
 71
3
 72
8
 73
4
 74
0
 40
0
 40
0
 40
0
 40
0
 40
1
 40
1
 40
1
 40
1
 10
-86.500710
 20
238.187950
 30
0.0
 10
-86.668946
 20
237.781793
 30
0.0
 10
-86.575953
 20
237.314286
 30
0.0
 10
-86.265094
 20
237.003427
 30
0.0
  0
SPLINE
  5
127
100
AcDbEntity
  8
Layer_1
 62
7
100
AcDbSpline
 70
8
 71
3
 72
8
 73
4
 74
0
 40
0
 40
0
 40
0
 40
0
 40
1
 40
1
 40
1
 40
1
 10
-86.265094
 20
237.003427
 30
0.0
 10
-85.954235
 20
236.692568
 30
0.0
 10
-85.486728
 20
236.599575
 30
0.0
 10
-85.080571
 20
236.767811
 30
0.0
  0
SPLINE
  5
128
100
AcDbEntity
  8
Layer_1
 62
7
100
AcDbSpline
 70
8
 71
3
 72
8
 73
4
 74
0
 40
0
 40
0
 40
0
 40
0
 40
1
 40
1
 40
1
 40
1
 10
-85.080571
 20
236.767811
 30
0.0
 10
-84.674414
 20
236.936047
 30
0.0
 10
-84.409593
 20
237.332380
 30
0.0
 10
-84.409593
 20
237.772001
 30
0.0
  0
SPLINE
  5
129
100
AcDbEntity
  8
Layer_1
 62
7
100
AcDbSpline
 70
8
 71
3
 72
8
 73
4
 74
0
 40
0
 40
0
 40
0
 40
0
 40
1
 40
1
 40
1
 40
1
 10
-84.409593
 20
237.772001
 30
0.0
 10
-84.409593
 20
238.060272
 30
0.0
 10
-84.524108
 20
238.336736
 30
0.0
 10
-84.727946
 20
238.540575
 30
0.0
  0
SPLINE
  5
12a
100
AcDbEntity
  8
Layer_1
 62
7
100
AcDbSpline
 70
8
 71
3
 72
8
 73
4
 74
0
 40
0
 40
0
 40
0
 40
0
 40
1
 40
1
 40
1
 40
1
 10
-84.727946
 20
238.540575
 30
0.0
 10
-84.931785
 20
238.744413
 30
0.0
 10
-85.208249
 20
238.858928
 30
0.0
 10
-85.496520
 20
238.858928
 30
0.0
  0
LINE
  5
12b
100
AcDbEntity
  8
Layer_1
 62
7
100
AcDbLine
 10
-85.496520
 20
238.858928
 30
0.0
 11
-85.496520
 21
238.858928
 31
0.0
  0
SPLINE
  5
12c
100
AcDbEntity
  8
Layer_1
 62
7
100
AcDbSpline
 70
8
 71
3
 72
8
 73
4
 74
0
 40
0
 40
0
 40
0
 40
0
 40
1
 40
1
 40
1
 40
1
 10
-85.496580
 20
79.329937
 30
0.0
 10
-85.936201
 20
79.329937
 30
0.0
 10
-86.332534
 20
79.065116
 30
0.0
 10
-86.500770
 20
78.658959
 30
0.0
  0
SPLINE
  5
12d
100
AcDbEntity
  8
Layer_1
 62
7
100
AcDbSpline
 70
8
 71
3
 72
8
 73
4
 74
0
 40
0
 40
0
 40
0
 40
0
 40
1
 40
1
 40
1
 40
1
 10
-86.500770
 20
78.658959
 30
0.0
 10
-86.669006
 20
78.252802
 30
0.0
 10
-86.576013
 20
77.785295
 30
0.0
 10
-86.265154
 20
77.474436
 30
0.0
  0
SPLINE
  5
12e
100
AcDbEntity
  8
Layer_1
 62
7
100
AcDbSpline
 70
8
 71
3
 72
8
 73
4
 74
0
 40
0
 40
0
 40
0
 40
0
 40
1
 40
1
 40
1
 40
1
 10
-86.265154
 20
77.474436
 30
0.0
 10
-85.954295
 20
77.163577
 30
0.0
 10
-85.486788
 20
77.070584
 30
0.0
 10
-85.080631
 20
77.238820
 30
0.0
  0
SPLINE
  5
12f
100
AcDbEntity
  8
Layer_1
 62
7
100
AcDbSpline
 70
8
 71
3
 72
8
 73
4
 74
0
 40
0
 40
0
 40
0
 40
0
 40
1
 40
1
 40
1
 40
1
 10
-85.080631
 20
77.238820
 30
0.0
 10
-84.674474
 20
77.407056
 30
0.0
 10
-84.409653
 20
77.803389
 30
0.0
 10
-84.409653
 20
78.243010
 30
0.0
  0
SPLINE
  5
130
100
AcDbEntity
  8
Layer_1
 62
7
100
AcDbSpline
 70
8
 71
3
 72
8
 73
4
 74
0
 40
0
 40
0
 40
0
 40
0
 40
1
 40
1
 40
1
 40
1
 10
-84.409653
 20
78.243010
 30
0.0
 10
-84.409653
 20
78.531281
 30
0.0
 10
-84.524168
 20
78.807745
 30
0.0
 10
-84.728006
 20
79.011584
 30
0.0
  0
SPLINE
  5
131
100
AcDbEntity
  8
Layer_1
 62
7
100
AcDbSpline
 70
8
 71
3
 72
8
 73
4
 74
0
 40
0
 40
0
 40
0
 40
0
 40
1
 40
1
 40
1
 40
1
 10
-84.728006
 20
79.011584
 30
0.0
 10
-84.931845
 20
79.215422
 30
0.0
 10
-85.208309
 20
79.329937
 30
0.0
 10
-85.496580
 20
79.329937
 30
0.0
  0
LINE
  5
132
100
AcDbEntity
  8
Layer_1
 62
7
100
AcDbLine
 10
-85.496580
 20
79.329937
 30
0.0
 11
-85.496580
 21
79.329937
 31
0.0
  0
SPLINE
  5
133
100
AcDbEntity
  8
Layer_1
 62
7
100
AcDbSpline
 70
8
 71
3
 72
8
 73
4
 74
0
 40
0
 40
0
 40
0
 40
0
 40
1
 40
1
 40
1
 40
1
 10
-270.842076
 20
79.329537
 30
0.0
 10
-271.281697
 20
79.329537
 30
0.0
 10
-271.678030
 20
79.064716
 30
0.0
 10
-271.846266
 20
78.658559
 30
0.0
  0
SPLINE
  5
134
100
AcDbEntity
  8
Layer_1
 62
7
100
AcDbSpline
 70
8
 71
3
 72
8
 73
4
 74
0
 40
0
 40
0
 40
0
 40
0
 40
1
 40
1
 40
1
 40
1
 10
-271.846266
 20
78.658559
 30
0.0
 10
-272.014502
 20
78.252402
 30
0.0
 10
-271.921509
 20
77.784895
 30
0.0
 10
-271.610650
 20
77.474036
 30
0.0
  0
SPLINE
  5
135
100
AcDbEntity
  8
Layer_1
 62
7
100
AcDbSpline
 70
8
 71
3
 72
8
 73
4
 74
0
 40
0
 40
0
 40
0
 40
0
 40
1
 40
1
 40
1
 40
1
 10
-271.610650
 20
77.474036
 30
0.0
 10
-271.299791
 20
77.163177
 30
0.0
 10
-270.832284
 20
77.070184
 30
0.0
 10
-270.426127
 20
77.238420
 30
0.0
  0
SPLINE
  5
136
100
AcDbEntity
  8
Layer_1
 62
7
100
AcDbSpline
 70
8
 71
3
 72
8
 73
4
 74
0
 40
0
 40
0
 40
0
 40
0
 40
1
 40
1
 40
1
 40
1
 10
-270.426127
 20
77.238420
 30
0.0
 10
-270.019970
 20
77.406656
 30
0.0
 10
-269.755149
 20
77.802989
 30
0.0
 10
-269.755149
 20
78.242610
 30
0.0
  0
SPLINE
  5
137
100
AcDbEntity
  8
Layer_1
 62
7
100
AcDbSpline
 70
8
 71
3
 72
8
 73
4
 74
0
 40
0
 40
0
 40
0
 40
0
 40
1
 40
1
 40
1
 40
1
 10
-269.755149
 20
78.242610
 30
0.0
 10
-269.755149
 20
78.530881
 30
0.0
 10
-269.869664
 20
78.807345
 30
0.0
 10
-270.073502
 20
79.011184
 30
0.0
  0
SPLINE
  5
138
100
AcDbEntity
  8
Layer_1
 62
7
100
AcDbSpline
 70
8
 71
3
 72
8
 73
4
 74
0
 40
0
 40
0
 40
0
 40
0
 40
1
 40
1
 40
1
 40
1
 10
-270.073502
 20
79.011184
 30
0.0
 10
-270.277341
 20
79.215022
 30
0.0
 10
-270.553805
 20
79.329537
 30
0.0
 10
-270.842076
 20
79.329537
 30
0.0
  0
LINE
  5
139
100
AcDbEntity
  8
Layer_1
 62
7
100
AcDbLine
 10
-270.842076
 20
79.329537
 30
0.0
 11
-270.842076
 21
79.329537
 31
0.0
  0
SPLINE
  5
13a
100
AcDbEntity
  8
Layer_1
 62
7
100
AcDbSpline
 70
8
 71
3
 72
8
 73
4
 74
0
 40
0
 40
0
 40
0
 40
0
 40
1
 40
1
 40
1
 40
1
 10
109.299890
 20
238.858928
 30
0.0
 10
108.860269
 20
238.858928
 30
0.0
 10
108.463936
 20
238.594107
 30
0.0
 10
108.295700
 20
238.187950
 30
0.0
  0
SPLINE
  5
13b
100
AcDbEntity
  8
Layer_1
 62
7
100
AcDbSpline
 70
8
 71
3
 72
8
 73
4
 74
0
 40
0
 40
0
 40
0
 40
0
 40
1
 40
1
 40
1
 40
1
 10
108.295700
 20
238.187950
 30
0.0
 10
108.127464
 20
237.781793
 30
0.0
 10
108.220457
 20
237.314286
 30
0.0
 10
108.531316
 20
237.003427
 30
0.0
  0
SPLINE
  5
13c
100
AcDbEntity
  8
Layer_1
 62
7
100
AcDbSpline
 70
8
 71
3
 72
8
 73
4
 74
0
 40
0
 40
0
 40
0
 40
0
 40
1
 40
1
 40
1
 40
1
 10
108.531316
 20
237.003427
 30
0.0
 10
108.842175
 20
236.692568
 30
0.0
 10
109.309682
 20
236.599575
 30
0.0
 10
109.715839
 20
236.767811
 30
0.0
  0
SPLINE
  5
13d
100
AcDbEntity
  8
Layer_1
 62
7
100
AcDbSpline
 70
8
 71
3
 72
8
 73
4
 74
0
 40
0
 40
0
 40
0
 40
0
 40
1
 40
1
 40
1
 40
1
 10
109.715839
 20
236.767811
 30
0.0
 10
110.121996
 20
236.936047
 30
0.0
 10
110.386817
 20
237.332380
 30
0.0
 10
110.386817
 20
237.772001
 30
0.0
  0
SPLINE
  5
13e
100
AcDbEntity
  8
Layer_1
 62
7
100
AcDbSpline
 70
8
 71
3
 72
8
 73
4
 74
0
 40
0
 40
0
 40
0
 40
0
 40
1
 40
1
 40
1
 40
1
 10
110.386817
 20
237.772001
 30
0.0
 10
110.386817
 20
238.060272
 30
0.0
 10
110.272302
 20
238.336736
 30
0.0
 10
110.068464
 20
238.540575
 30
0.0
  0
SPLINE
  5
13f
100
AcDbEntity
  8
Layer_1
 62
7
100
AcDbSpline
 70
8
 71
3
 72
8
 73
4
 74
0
 40
0
 40
0
 40
0
 40
0
 40
1
 40
1
 40
1
 40
1
 10
110.068464
 20
238.540575
 30
0.0
 10
109.864625
 20
238.744413
 30
0.0
 10
109.588161
 20
238.858928
 30
0.0
 10
109.299890
 20
238.858928
 30
0.0
  0
LINE
  5
140
100
AcDbEntity
  8
Layer_1
 62
7
100
AcDbLine
 10
109.299890
 20
238.858928
 30
0.0
 11
109.299890
 21
238.858928
 31
0.0
  0
SPLINE
  5
141
100
AcDbEntity
  8
Layer_1
 62
7
100
AcDbSpline
 70
8
 71
3
 72
8
 73
4
 74
0
 40
0
 40
0
 40
0
 40
0
 40
1
 40
1
 40
1
 40
1
 10
109.299410
 20
79.329937
 30
0.0
 10
108.859789
 20
79.329937
 30
0.0
 10
108.463456
 20
79.065116
 30
0.0
 10
108.295220
 20
78.658959
 30
0.0
  0
SPLINE
  5
142
100
AcDbEntity
  8
Layer_1
 62
7
100
AcDbSpline
 70
8
 71
3
 72
8
 73
4
 74
0
 40
0
 40
0
 40
0
 40
0
 40
1
 40
1
 40
1
 40
1
 10
108.295220
 20
78.658959
 30
0.0
 10
108.126984
 20
78.252802
 30
0.0
 10
108.219977
 20
77.785295
 30
0.0
 10
108.530836
 20
77.474436
 30
0.0
  0
SPLINE
  5
143
100
AcDbEntity
  8
Layer_1
 62
7
100
AcDbSpline
 70
8
 71
3
 72
8
 73
4
 74
0
 40
0
 40
0
 40
0
 40
0
 40
1
 40
1
 40
1
 40
1
 10
108.530836
 20
77.474436
 30
0.0
 10
108.841695
 20
77.163577
 30
0.0
 10
109.309202
 20
77.070584
 30
0.0
 10
109.715359
 20
77.238820
 30
0.0
  0
SPLINE
  5
144
100
AcDbEntity
  8
Layer_1
 62
7
100
AcDbSpline
 70
8
 71
3
 72
8
 73
4
 74
0
 40
0
 40
0
 40
0
 40
0
 40
1
 40
1
 40
1
 40
1
 10
109.715359
 20
77.238820
 30
0.0
 10
110.121516
 20
77.407056
 30
0.0
 10
110.386337
 20
77.803389
 30
0.0
 10
110.386337
 20
78.243010
 30
0.0
  0
SPLINE
  5
145
100
AcDbEntity
  8
Layer_1
 62
7
100
AcDbSpline
 70
8
 71
3
 72
8
 73
4
 74
0
 40
0
 40
0
 40
0
 40
0
 40
1
 40
1
 40
1
 40
1
 10
110.386337
 20
78.243010
 30
0.0
 10
110.386337
 20
78.531281
 30
0.0
 10
110.271822
 20
78.807745
 30
0.0
 10
110.067984
 20
79.011584
 30
0.0
  0
SPLINE
  5
146
100
AcDbEntity
  8
Layer_1
 62
7
100
AcDbSpline
 70
8
 71
3
 72
8
 73
4
 74
0
 40
0
 40
0
 40
0
 40
0
 40
1
 40
1
 40
1
 40
1
 10
110.067984
 20
79.011584
 30
0.0
 10
109.864145
 20
79.215422
 30
0.0
 10
109.587681
 20
79.329937
 30
0.0
 10
109.299410
 20
79.329937
 30
0.0
  0
LINE
  5
147
100
AcDbEntity
  8
Layer_1
 62
7
100
AcDbLine
 10
109.299410
 20
79.329937
 30
0.0
 11
109.299410
 21
79.329937
 31
0.0
  0
LINE
  5
148
100
AcDbEntity
  8
Layer_1
 62
1
100
AcDbLine
 10
-281.145700
 20
255.576200
 30
0.0
 11
-281.145700
 21
225.326200
 31
0.0
  0
LINE
  5
149
100
AcDbEntity
  8
Layer_1
 62
1
100
AcDbLine
 10
-281.145700
 20
225.326200
 30
0.0
 11
-275.145700
 21
225.326200
 31
0.0
  0
LINE
  5
14a
100
AcDbEntity
  8
Layer_1
 62
1
100
AcDbLine
 10
-275.145700
 20
225.326200
 30
0.0
 11
-275.145700
 21
210.326200
 31
0.0
  0
LINE
  5
14b
100
AcDbEntity
  8
Layer_1
 62
1
100
AcDbLine
 10
-275.145700
 20
210.326200
 30
0.0
 11
-281.145700
 21
210.326200
 31
0.0
  0
LINE
  5
14c
100
AcDbEntity
  8
Layer_1
 62
1
100
AcDbLine
 10
-281.145700
 20
210.326200
 30
0.0
 11
-281.145700
 21
195.326200
 31
0.0
  0
LINE
  5
14d
100
AcDbEntity
  8
Layer_1
 62
1
100
AcDbLine
 10
-281.145700
 20
195.326200
 30
0.0
 11
-275.145700
 21
195.326200
 31
0.0
  0
LINE
  5
14e
100
AcDbEntity
  8
Layer_1
 62
1
100
AcDbLine
 10
-275.145700
 20
195.326200
 30
0.0
 11
-275.145700
 21
180.326200
 31
0.0
  0
LINE
  5
14f
100
AcDbEntity
  8
Layer_1
 62
1
100
AcDbLine
 10
-275.145700
 20
180.326200
 30
0.0
 11
-281.145700
 21
180.326200
 31
0.0
  0
LINE
  5
150
100
AcDbEntity
  8
Layer_1
 62
1
100
AcDbLine
 10
-281.145700
 20
180.326200
 30
0.0
 11
-281.145700
 21
165.326200
 31
0.0
  0
LINE
  5
151
100
AcDbEntity
  8
Layer_1
 62
1
100
AcDbLine
 10
-281.145700
 20
165.326200
 30
0.0
 11
-275.145700
 21
165.326200
 31
0.0
  0
LINE
  5
152
100
AcDbEntity
  8
Layer_1
 62
1
100
AcDbLine
 10
-275.145700
 20
165.326200
 30
0.0
 11
-275.145700
 21
150.326200
 31
0.0
  0
LINE
  5
153
100
AcDbEntity
  8
Layer_1
 62
1
100
AcDbLine
 10
-275.145700
 20
150.326200
 30
0.0
 11
-281.145700
 21
150.326200
 31
0.0
  0
LINE
  5
154
100
AcDbEntity
  8
Layer_1
 62
1
100
AcDbLine
 10
-281.145700
 20
150.326200
 30
0.0
 11
-281.145700
 21
135.326200
 31
0.0
  0
LINE
  5
155
100
AcDbEntity
  8
Layer_1
 62
1
100
AcDbLine
 10
-281.145700
 20
135.326200
 30
0.0
 11
-275.145700
 21
135.326200
 31
0.0
  0
LINE
  5
156
100
AcDbEntity
  8
Layer_1
 62
1
100
AcDbLine
 10
-275.145700
 20
135.326200
 30
0.0
 11
-275.145700
 21
120.326200
 31
0.0
  0
LINE
  5
157
100
AcDbEntity
  8
Layer_1
 62
1
100
AcDbLine
 10
-275.145700
 20
120.326200
 30
0.0
 11
-281.145700
 21
120.326200
 31
0.0
  0
LINE
  5
158
100
AcDbEntity
  8
Layer_1
 62
1
100
AcDbLine
 10
-281.145700
 20
120.326200
 30
0.0
 11
-281.145700
 21
105.326200
 31
0.0
  0
LINE
  5
159
100
AcDbEntity
  8
Layer_1
 62
1
100
AcDbLine
 10
-281.145700
 20
105.326200
 30
0.0
 11
-275.145700
 21
105.326200
 31
0.0
  0
LINE
  5
15a
100
AcDbEntity
  8
Layer_1
 62
1
100
AcDbLine
 10
-275.145700
 20
105.326200
 30
0.0
 11
-275.145700
 21
90.326200
 31
0.0
  0
LINE
  5
15b
100
AcDbEntity
  8
Layer_1
 62
1
100
AcDbLine
 10
-275.145700
 20
90.326200
 30
0.0
 11
-281.145700
 21
90.326200
 31
0.0
  0
LINE
  5
15c
100
AcDbEntity
  8
Layer_1
 62
1
100
AcDbLine
 10
-281.145700
 20
90.326200
 30
0.0
 11
-281.145700
 21
75.326200
 31
0.0
  0
LINE
  5
15d
100
AcDbEntity
  8
Layer_1
 62
1
100
AcDbLine
 10
-281.145700
 20
75.326200
 30
0.0
 11
-281.145700
 21
67.701200
 31
0.0
  0
LINE
  5
15e
100
AcDbEntity
  8
Layer_1
 62
1
100
AcDbLine
 10
-281.145700
 20
67.701200
 30
0.0
 11
-253.645700
 21
67.701200
 31
0.0
  0
LINE
  5
15f
100
AcDbEntity
  8
Layer_1
 62
1
100
AcDbLine
 10
-253.645700
 20
67.701200
 30
0.0
 11
-253.645700
 21
73.701200
 31
0.0
  0
LINE
  5
160
100
AcDbEntity
  8
Layer_1
 62
1
100
AcDbLine
 10
-253.645700
 20
73.701200
 30
0.0
 11
-238.645700
 21
73.701200
 31
0.0
  0
LINE
  5
161
100
AcDbEntity
  8
Layer_1
 62
1
100
AcDbLine
 10
-238.645700
 20
73.701200
 30
0.0
 11
-238.645700
 21
67.701200
 31
0.0
  0
LINE
  5
162
100
AcDbEntity
  8
Layer_1
 62
1
100
AcDbLine
 10
-238.645700
 20
67.701200
 30
0.0
 11
-223.645700
 21
67.701200
 31
0.0
  0
LINE
  5
163
100
AcDbEntity
  8
Layer_1
 62
1
100
AcDbLine
 10
-223.645700
 20
67.701200
 30
0.0
 11
-223.645700
 21
73.701200
 31
0.0
  0
LINE
  5
164
100
AcDbEntity
  8
Layer_1
 62
1
100
AcDbLine
 10
-223.645700
 20
73.701200
 30
0.0
 11
-208.645700
 21
73.701200
 31
0.0
  0
LINE
  5
165
100
AcDbEntity
  8
Layer_1
 62
1
100
AcDbLine
 10
-208.645700
 20
73.701200
 30
0.0
 11
-208.645700
 21
67.701200
 31
0.0
  0
LINE
  5
166
100
AcDbEntity
  8
Layer_1
 62
1
100
AcDbLine
 10
-208.645700
 20
67.701200
 30
0.0
 11
-193.645700
 21
67.701200
 31
0.0
  0
LINE
  5
167
100
AcDbEntity
  8
Layer_1
 62
1
100
AcDbLine
 10
-193.645700
 20
67.701200
 30
0.0
 11
-193.645700
 21
73.701200
 31
0.0
  0
LINE
  5
168
100
AcDbEntity
  8
Layer_1
 62
1
100
AcDbLine
 10
-193.645700
 20
73.701200
 30
0.0
 11
-178.645700
 21
73.701200
 31
0.0
  0
LINE
  5
169
100
AcDbEntity
  8
Layer_1
 62
1
100
AcDbLine
 10
-178.645700
 20
73.701200
 30
0.0
 11
-178.645700
 21
67.701200
 31
0.0
  0
LINE
  5
16a
100
AcDbEntity
  8
Layer_1
 62
1
100
AcDbLine
 10
-178.645700
 20
67.701200
 30
0.0
 11
-163.645700
 21
67.701200
 31
0.0
  0
LINE
  5
16b
100
AcDbEntity
  8
Layer_1
 62
1
100
AcDbLine
 10
-163.645700
 20
67.701200
 30
0.0
 11
-163.645700
 21
73.701200
 31
0.0
  0
LINE
  5
16c
100
AcDbEntity
  8
Layer_1
 62
1
100
AcDbLine
 10
-163.645700
 20
73.701200
 30
0.0
 11
-148.645700
 21
73.701200
 31
0.0
  0
LINE
  5
16d
100
AcDbEntity
  8
Layer_1
 62
1
100
AcDbLine
 10
-148.645700
 20
73.701200
 30
0.0
 11
-148.645700
 21
67.701200
 31
0.0
  0
LINE
  5
16e
100
AcDbEntity
  8
Layer_1
 62
1
100
AcDbLine
 10
-148.645700
 20
67.701200
 30
0.0
 11
-133.645700
 21
67.701200
 31
0.0
  0
LINE
  5
16f
100
AcDbEntity
  8
Layer_1
 62
1
100
AcDbLine
 10
-133.645700
 20
67.701200
 30
0.0
 11
-133.645700
 21
73.701200
 31
0.0
  0
LINE
  5
170
100
AcDbEntity
  8
Layer_1
 62
1
100
AcDbLine
 10
-133.645700
 20
73.701200
 30
0.0
 11
-118.645700
 21
73.701200
 31
0.0
  0
LINE
  5
171
100
AcDbEntity
  8
Layer_1
 62
1
100
AcDbLine
 10
-118.645700
 20
73.701200
 30
0.0
 11
-118.645700
 21
67.701200
 31
0.0
  0
LINE
  5
172
100
AcDbEntity
  8
Layer_1
 62
1
100
AcDbLine
 10
-118.645700
 20
67.701200
 30
0.0
 11
-103.645700
 21
67.701200
 31
0.0
  0
LINE
  5
173
100
AcDbEntity
  8
Layer_1
 62
1
100
AcDbLine
 10
-103.645700
 20
67.701200
 30
0.0
 11
-103.645700
 21
73.701200
 31
0.0
  0
LINE
  5
174
100
AcDbEntity
  8
Layer_1
 62
1
100
AcDbLine
 10
-103.645700
 20
73.701200
 30
0.0
 11
-88.645700
 21
73.701200
 31
0.0
  0
LINE
  5
175
100
AcDbEntity
  8
Layer_1
 62
1
100
AcDbLine
 10
-88.645700
 20
73.701200
 30
0.0
 11
-88.645700
 21
67.701200
 31
0.0
  0
LINE
  5
176
100
AcDbEntity
  8
Layer_1
 62
1
100
AcDbLine
 10
-88.645700
 20
67.701200
 30
0.0
 11
-73.645700
 21
67.701200
 31
0.0
  0
LINE
  5
177
100
AcDbEntity
  8
Layer_1
 62
1
100
AcDbLine
 10
-73.645700
 20
67.701200
 30
0.0
 11
-73.645700
 21
73.701200
 31
0.0
  0
LINE
  5
178
100
AcDbEntity
  8
Layer_1
 62
1
100
AcDbLine
 10
-73.645700
 20
73.701200
 30
0.0
 11
-58.645700
 21
73.701200
 31
0.0
  0
LINE
  5
179
100
AcDbEntity
  8
Layer_1
 62
1
100
AcDbLine
 10
-58.645700
 20
73.701200
 30
0.0
 11
-58.645700
 21
67.701200
 31
0.0
  0
LINE
  5
17a
100
AcDbEntity
  8
Layer_1
 62
1
100
AcDbLine
 10
-58.645700
 20
67.701200
 30
0.0
 11
-43.645700
 21
67.701200
 31
0.0
  0
LINE
  5
17b
100
AcDbEntity
  8
Layer_1
 62
1
100
AcDbLine
 10
-43.645700
 20
67.701200
 30
0.0
 11
-43.645700
 21
73.701200
 31
0.0
  0
LINE
  5
17c
100
AcDbEntity
  8
Layer_1
 62
1
100
AcDbLine
 10
-43.645700
 20
73.701200
 30
0.0
 11
-28.645700
 21
73.701200
 31
0.0
  0
LINE
  5
17d
100
AcDbEntity
  8
Layer_1
 62
1
100
AcDbLine
 10
-28.645700
 20
73.701200
 30
0.0
 11
-28.645700
 21
67.701200
 31
0.0
  0
LINE
  5
17e
100
AcDbEntity
  8
Layer_1
 62
1
100
AcDbLine
 10
-28.645700
 20
67.701200
 30
0.0
 11
-13.645700
 21
67.701200
 31
0.0
  0
LINE
  5
17f
100
AcDbEntity
  8
Layer_1
 62
1
100
AcDbLine
 10
-13.645700
 20
67.701200
 30
0.0
 11
-13.645700
 21
73.701200
 31
0.0
  0
LINE
  5
180
100
AcDbEntity
  8
Layer_1
 62
1
100
AcDbLine
 10
-13.645700
 20
73.701200
 30
0.0
 11
1.354300
 21
73.701200
 31
0.0
  0
LINE
  5
181
100
AcDbEntity
  8
Layer_1
 62
1
100
AcDbLine
 10
1.354300
 20
73.701200
 30
0.0
 11
1.354300
 21
67.701200
 31
0.0
  0
LINE
  5
182
100
AcDbEntity
  8
Layer_1
 62
1
100
AcDbLine
 10
1.354300
 20
67.701200
 30
0.0
 11
16.354300
 21
67.701200
 31
0.0
  0
LINE
  5
183
100
AcDbEntity
  8
Layer_1
 62
1
100
AcDbLine
 10
16.354300
 20
67.701200
 30
0.0
 11
16.354300
 21
73.701200
 31
0.0
  0
LINE
  5
184
100
AcDbEntity
  8
Layer_1
 62
1
100
AcDbLine
 10
16.354300
 20
73.701200
 30
0.0
 11
31.354300
 21
73.701200
 31
0.0
  0
LINE
  5
185
100
AcDbEntity
  8
Layer_1
 62
1
100
AcDbLine
 10
31.354300
 20
73.701200
 30
0.0
 11
31.354300
 21
67.701200
 31
0.0
  0
LINE
  5
186
100
AcDbEntity
  8
Layer_1
 62
1
100
AcDbLine
 10
31.354300
 20
67.701200
 30
0.0
 11
46.354300
 21
67.701200
 31
0.0
  0
LINE
  5
187
100
AcDbEntity
  8
Layer_1
 62
1
100
AcDbLine
 10
46.354300
 20
67.701200
 30
0.0
 11
46.354300
 21
73.701200
 31
0.0
  0
LINE
  5
188
100
AcDbEntity
  8
Layer_1
 62
1
100
AcDbLine
 10
46.354300
 20
73.701200
 30
0.0
 11
61.354300
 21
73.701200
 31
0.0
  0
LINE
  5
189
100
AcDbEntity
  8
Layer_1
 62
1
100
AcDbLine
 10
61.354300
 20
73.701200
 30
0.0
 11
61.354300
 21
67.701200
 31
0.0
  0
LINE
  5
18a
100
AcDbEntity
  8
Layer_1
 62
1
100
AcDbLine
 10
61.354300
 20
67.701200
 30
0.0
 11
76.354300
 21
67.701200
 31
0.0
  0
LINE
  5
18b
100
AcDbEntity
  8
Layer_1
 62
1
100
AcDbLine
 10
76.354300
 20
67.701200
 30
0.0
 11
76.354300
 21
73.701200
 31
0.0
  0
LINE
  5
18c
100
AcDbEntity
  8
Layer_1
 62
1
100
AcDbLine
 10
76.354300
 20
73.701200
 30
0.0
 11
91.354300
 21
73.701200
 31
0.0
  0
LINE
  5
18d
100
AcDbEntity
  8
Layer_1
 62
1
100
AcDbLine
 10
91.354300
 20
73.701200
 30
0.0
 11
91.354300
 21
67.701200
 31
0.0
  0
LINE
  5
18e
100
AcDbEntity
  8
Layer_1
 62
1
100
AcDbLine
 10
91.354300
 20
67.701200
 30
0.0
 11
106.354300
 21
67.701200
 31
0.0
  0
LINE
  5
18f
100
AcDbEntity
  8
Layer_1
 62
1
100
AcDbLine
 10
106.354300
 20
67.701200
 30
0.0
 11
118.854300
 21
67.701200
 31
0.0
  0
LINE
  5
190
100
AcDbEntity
  8
Layer_1
 62
1
100
AcDbLine
 10
118.854300
 20
67.701200
 30
0.0
 11
118.854300
 21
105.326200
 31
0.0
  0
LINE
  5
191
100
AcDbEntity
  8
Layer_1
 62
1
100
AcDbLine
 10
118.854300
 20
105.326200
 30
0.0
 11
118.854300
 21
135.326200
 31
0.0
  0
LINE
  5
192
100
AcDbEntity
  8
Layer_1
 62
1
100
AcDbLine
 10
118.854300
 20
135.326200
 30
0.0
 11
118.854300
 21
165.326200
 31
0.0
  0
LINE
  5
193
100
AcDbEntity
  8
Layer_1
 62
1
100
AcDbLine
 10
118.854300
 20
165.326200
 30
0.0
 11
118.854300
 21
195.326200
 31
0.0
  0
LINE
  5
194
100
AcDbEntity
  8
Layer_1
 62
1
100
AcDbLine
 10
118.854300
 20
195.326200
 30
0.0
 11
118.854300
 21
225.326200
 31
0.0
  0
LINE
  5
195
100
AcDbEntity
  8
Layer_1
 62
1
100
AcDbLine
 10
118.854300
 20
225.326200
 30
0.0
 11
118.854300
 21
240.326200
 31
0.0
  0
LINE
  5
196
100
AcDbEntity
  8
Layer_1
 62
1
100
AcDbLine
 10
118.854300
 20
240.326200
 30
0.0
 11
118.854300
 21
285.576200
 31
0.0
  0
LINE
  5
197
100
AcDbEntity
  8
Layer_1
 62
1
100
AcDbLine
 10
-253.645700
 20
247.951200
 30
0.0
 11
-281.145700
 21
247.951200
 31
0.0
  0
LINE
  5
198
100
AcDbEntity
  8
Layer_1
 62
1
100
AcDbLine
 10
-281.145700
 20
247.951200
 30
0.0
 11
-268.645700
 21
247.951200
 31
0.0
  0
LINE
  5
199
100
AcDbEntity
  8
Layer_1
 62
1
100
AcDbLine
 10
124.854300
 20
90.326200
 30
0.0
 11
112.854300
 21
90.326200
 31
0.0
  0
LINE
  5
19a
100
AcDbEntity
  8
Layer_1
 62
1
100
AcDbLine
 10
112.854300
 20
90.326200
 30
0.0
 11
112.854300
 21
105.326200
 31
0.0
  0
LINE
  5
19b
100
AcDbEntity
  8
Layer_1
 62
1
100
AcDbLine
 10
112.854300
 20
105.326200
 30
0.0
 11
124.854300
 21
105.326200
 31
0.0
  0
LINE
  5
19c
100
AcDbEntity
  8
Layer_1
 62
1
100
AcDbLine
 10
124.854300
 20
120.326200
 30
0.0
 11
112.854300
 21
120.326200
 31
0.0
  0
LINE
  5
19d
100
AcDbEntity
  8
Layer_1
 62
1
100
AcDbLine
 10
112.854300
 20
120.326200
 30
0.0
 11
112.854300
 21
135.326200
 31
0.0
  0
LINE
  5
19e
100
AcDbEntity
  8
Layer_1
 62
1
100
AcDbLine
 10
112.854300
 20
135.326200
 30
0.0
 11
124.854300
 21
135.326200
 31
0.0
  0
LINE
  5
19f
100
AcDbEntity
  8
Layer_1
 62
1
100
AcDbLine
 10
124.854300
 20
150.326200
 30
0.0
 11
112.854300
 21
150.326200
 31
0.0
  0
LINE
  5
1a0
100
AcDbEntity
  8
Layer_1
 62
1
100
AcDbLine
 10
112.854300
 20
150.326200
 30
0.0
 11
112.854300
 21
165.326200
 31
0.0
  0
LINE
  5
1a1
100
AcDbEntity
  8
Layer_1
 62
1
100
AcDbLine
 10
112.854300
 20
165.326200
 30
0.0
 11
124.854300
 21
165.326200
 31
0.0
  0
LINE
  5
1a2
100
AcDbEntity
  8
Layer_1
 62
1
100
AcDbLine
 10
124.854300
 20
180.326200
 30
0.0
 11
112.854300
 21
180.326200
 31
0.0
  0
LINE
  5
1a3
100
AcDbEntity
  8
Layer_1
 62
1
100
AcDbLine
 10
112.854300
 20
180.326200
 30
0.0
 11
112.854300
 21
195.326200
 31
0.0
  0
LINE
  5
1a4
100
AcDbEntity
  8
Layer_1
 62
1
100
AcDbLine
 10
112.854300
 20
195.326200
 30
0.0
 11
124.854300
 21
195.326200
 31
0.0
  0
LINE
  5
1a5
100
AcDbEntity
  8
Layer_1
 62
1
100
AcDbLine
 10
124.854300
 20
210.326200
 30
0.0
 11
112.854300
 21
210.326200
 31
0.0
  0
LINE
  5
1a6
100
AcDbEntity
  8
Layer_1
 62
1
100
AcDbLine
 10
112.854300
 20
210.326200
 30
0.0
 11
112.854300
 21
225.326200
 31
0.0
  0
LINE
  5
1a7
100
AcDbEntity
  8
Layer_1
 62
1
100
AcDbLine
 10
112.854300
 20
225.326200
 30
0.0
 11
124.854300
 21
225.326200
 31
0.0
  0
LINE
  5
1a8
100
AcDbEntity
  8
Layer_1
 62
1
100
AcDbLine
 10
91.354300
 20
253.951200
 30
0.0
 11
91.354300
 21
241.951200
 31
0.0
  0
LINE
  5
1a9
100
AcDbEntity
  8
Layer_1
 62
1
100
AcDbLine
 10
91.354300
 20
241.951200
 30
0.0
 11
76.354300
 21
241.951200
 31
0.0
  0
LINE
  5
1aa
100
AcDbEntity
  8
Layer_1
 62
1
100
AcDbLine
 10
76.354300
 20
241.951200
 30
0.0
 11
76.354300
 21
253.951200
 31
0.0
  0
LINE
  5
1ab
100
AcDbEntity
  8
Layer_1
 62
1
100
AcDbLine
 10
61.354300
 20
253.951200
 30
0.0
 11
61.354300
 21
241.951200
 31
0.0
  0
LINE
  5
1ac
100
AcDbEntity
  8
Layer_1
 62
1
100
AcDbLine
 10
61.354300
 20
241.951200
 30
0.0
 11
46.354300
 21
241.951200
 31
0.0
  0
LINE
  5
1ad
100
AcDbEntity
  8
Layer_1
 62
1
100
AcDbLine
 10
46.354300
 20
241.951200
 30
0.0
 11
46.354300
 21
253.951200
 31
0.0
  0
LINE
  5
1ae
100
AcDbEntity
  8
Layer_1
 62
1
100
AcDbLine
 10
31.354300
 20
253.951200
 30
0.0
 11
31.354300
 21
241.951200
 31
0.0
  0
LINE
  5
1af
100
AcDbEntity
  8
Layer_1
 62
1
100
AcDbLine
 10
31.354300
 20
241.951200
 30
0.0
 11
16.354300
 21
241.951200
 31
0.0
  0
LINE
  5
1b0
100
AcDbEntity
  8
Layer_1
 62
1
100
AcDbLine
 10
16.354300
 20
241.951200
 30
0.0
 11
16.354300
 21
253.951200
 31
0.0
  0
LINE
  5
1b1
100
AcDbEntity
  8
Layer_1
 62
1
100
AcDbLine
 10
1.354300
 20
253.951200
 30
0.0
 11
1.354300
 21
241.951200
 31
0.0
  0
LINE
  5
1b2
100
AcDbEntity
  8
Layer_1
 62
1
100
AcDbLine
 10
1.354300
 20
241.951200
 30
0.0
 11
-13.645700
 21
241.951200
 31
0.0
  0
LINE
  5
1b3
100
AcDbEntity
  8
Layer_1
 62
1
100
AcDbLine
 10
-13.645700
 20
241.951200
 30
0.0
 11
-13.645700
 21
253.951200
 31
0.0
  0
LINE
  5
1b4
100
AcDbEntity
  8
Layer_1
 62
1
100
AcDbLine
 10
-28.645700
 20
253.951200
 30
0.0
 11
-28.645700
 21
241.951200
 31
0.0
  0
LINE
  5
1b5
100
AcDbEntity
  8
Layer_1
 62
1
100
AcDbLine
 10
-28.645700
 20
241.951200
 30
0.0
 11
-43.645700
 21
241.951200
 31
0.0
  0
LINE
  5
1b6
100
AcDbEntity
  8
Layer_1
 62
1
100
AcDbLine
 10
-43.645700
 20
241.951200
 30
0.0
 11
-43.645700
 21
253.951200
 31
0.0
  0
LINE
  5
1b7
100
AcDbEntity
  8
Layer_1
 62
1
100
AcDbLine
 10
-58.645700
 20
253.951200
 30
0.0
 11
-58.645700
 21
241.951200
 31
0.0
  0
LINE
  5
1b8
100
AcDbEntity
  8
Layer_1
 62
1
100
AcDbLine
 10
-58.645700
 20
241.951200
 30
0.0
 11
-73.645700
 21
241.951200
 31
0.0
  0
LINE
  5
1b9
100
AcDbEntity
  8
Layer_1
 62
1
100
AcDbLine
 10
-73.645700
 20
241.951200
 30
0.0
 11
-73.645700
 21
253.951200
 31
0.0
  0
LINE
  5
1ba
100
AcDbEntity
  8
Layer_1
 62
1
100
AcDbLine
 10
-88.645700
 20
253.951200
 30
0.0
 11
-88.645700
 21
241.951200
 31
0.0
  0
LINE
  5
1bb
100
AcDbEntity
  8
Layer_1
 62
1
100
AcDbLine
 10
-88.645700
 20
241.951200
 30
0.0
 11
-103.645700
 21
241.951200
 31
0.0
  0
LINE
  5
1bc
100
AcDbEntity
  8
Layer_1
 62
1
100
AcDbLine
 10
-103.645700
 20
241.951200
 30
0.0
 11
-103.645700
 21
253.951200
 31
0.0
  0
LINE
  5
1bd
100
AcDbEntity
  8
Layer_1
 62
1
100
AcDbLine
 10
-118.645700
 20
253.951200
 30
0.0
 11
-118.645700
 21
241.951200
 31
0.0
  0
LINE
  5
1be
100
AcDbEntity
  8
Layer_1
 62
1
100
AcDbLine
 10
-118.645700
 20
241.951200
 30
0.0
 11
-133.645700
 21
241.951200
 31
0.0
  0
LINE
  5
1bf
100
AcDbEntity
  8
Layer_1
 62
1
100
AcDbLine
 10
-133.645700
 20
241.951200
 30
0.0
 11
-133.645700
 21
253.951200
 31
0.0
  0
LINE
  5
1c0
100
AcDbEntity
  8
Layer_1
 62
1
100
AcDbLine
 10
-148.645700
 20
253.951200
 30
0.0
 11
-148.645700
 21
241.951200
 31
0.0
  0
LINE
  5
1c1
100
AcDbEntity
  8
Layer_1
 62
1
100
AcDbLine
 10
-148.645700
 20
241.951200
 30
0.0
 11
-163.645700
 21
241.951200
 31
0.0
  0
LINE
  5
1c2
100
AcDbEntity
  8
Layer_1
 62
1
100
AcDbLine
 10
-163.645700
 20
241.951200
 30
0.0
 11
-163.645700
 21
253.951200
 31
0.0
  0
LINE
  5
1c3
100
AcDbEntity
  8
Layer_1
 62
1
100
AcDbLine
 10
-178.645700
 20
253.951200
 30
0.0
 11
-178.645700
 21
241.951200
 31
0.0
  0
LINE
  5
1c4
100
AcDbEntity
  8
Layer_1
 62
1
100
AcDbLine
 10
-178.645700
 20
241.951200
 30
0.0
 11
-193.645700
 21
241.951200
 31
0.0
  0
LINE
  5
1c5
100
AcDbEntity
  8
Layer_1
 62
1
100
AcDbLine
 10
-193.645700
 20
241.951200
 30
0.0
 11
-193.645700
 21
253.951200
 31
0.0
  0
LINE
  5
1c6
100
AcDbEntity
  8
Layer_1
 62
1
100
AcDbLine
 10
-208.645700
 20
253.951200
 30
0.0
 11
-208.645700
 21
241.951200
 31
0.0
  0
LINE
  5
1c7
100
AcDbEntity
  8
Layer_1
 62
1
100
AcDbLine
 10
-208.645700
 20
241.951200
 30
0.0
 11
-223.645700
 21
241.951200
 31
0.0
  0
LINE
  5
1c8
100
AcDbEntity
  8
Layer_1
 62
1
100
AcDbLine
 10
-223.645700
 20
241.951200
 30
0.0
 11
-223.645700
 21
253.951200
 31
0.0
  0
LINE
  5
1c9
100
AcDbEntity
  8
Layer_1
 62
1
100
AcDbLine
 10
-238.645700
 20
253.951200
 30
0.0
 11
-238.645700
 21
241.951200
 31
0.0
  0
LINE
  5
1ca
100
AcDbEntity
  8
Layer_1
 62
1
100
AcDbLine
 10
-238.645700
 20
241.951200
 30
0.0
 11
-253.645700
 21
241.951200
 31
0.0
  0
LINE
  5
1cb
100
AcDbEntity
  8
Layer_1
 62
1
100
AcDbLine
 10
-253.645700
 20
241.951200
 30
0.0
 11
-253.645700
 21
253.951200
 31
0.0
  0
LINE
  5
1cc
100
AcDbEntity
  8
Layer_1
 62
1
100
AcDbLine
 10
91.354300
 20
247.951200
 30
0.0
 11
118.854300
 21
247.951200
 31
0.0
  0
LINE
  5
1cd
100
AcDbEntity
  8
Layer_1
 62
1
100
AcDbLine
 10
61.354300
 20
247.951200
 30
0.0
 11
76.354300
 21
247.951200
 31
0.0
  0
LINE
  5
1ce
100
AcDbEntity
  8
Layer_1
 62
1
100
AcDbLine
 10
31.354300
 20
247.951200
 30
0.0
 11
46.354300
 21
247.951200
 31
0.0
  0
LINE
  5
1cf
100
AcDbEntity
  8
Layer_1
 62
1
100
AcDbLine
 10
1.354300
 20
247.951200
 30
0.0
 11
16.354300
 21
247.951200
 31
0.0
  0
LINE
  5
1d0
100
AcDbEntity
  8
Layer_1
 62
1
100
AcDbLine
 10
-28.645700
 20
247.951200
 30
0.0
 11
-13.645700
 21
247.951200
 31
0.0
  0
LINE
  5
1d1
100
AcDbEntity
  8
Layer_1
 62
1
100
AcDbLine
 10
-58.645700
 20
247.951200
 30
0.0
 11
-43.645700
 21
247.951200
 31
0.0
  0
LINE
  5
1d2
100
AcDbEntity
  8
Layer_1
 62
1
100
AcDbLine
 10
-88.645700
 20
247.951200
 30
0.0
 11
-73.645700
 21
247.951200
 31
0.0
  0
LINE
  5
1d3
100
AcDbEntity
  8
Layer_1
 62
1
100
AcDbLine
 10
-118.645700
 20
247.951200
 30
0.0
 11
-103.645700
 21
247.951200
 31
0.0
  0
LINE
  5
1d4
100
AcDbEntity
  8
Layer_1
 62
1
100
AcDbLine
 10
-148.645700
 20
247.951200
 30
0.0
 11
-133.645700
 21
247.951200
 31
0.0
  0
LINE
  5
1d5
100
AcDbEntity
  8
Layer_1
 62
1
100
AcDbLine
 10
-178.645700
 20
247.951200
 30
0.0
 11
-163.645700
 21
247.951200
 31
0.0
  0
LINE
  5
1d6
100
AcDbEntity
  8
Layer_1
 62
1
100
AcDbLine
 10
-208.645700
 20
247.951200
 30
0.0
 11
-193.645700
 21
247.951200
 31
0.0
  0
LINE
  5
1d7
100
AcDbEntity
  8
Layer_1
 62
1
100
AcDbLine
 10
-238.645700
 20
247.951200
 30
0.0
 11
-223.645700
 21
247.951200
 31
0.0
  0
LINE
  5
1d8
100
AcDbEntity
  8
Layer_1
 62
1
100
AcDbLine
 10
146.124300
 20
270.576200
 30
0.0
 11
146.124300
 21
240.326200
 31
0.0
  0
LINE
  5
1d9
100
AcDbEntity
  8
Layer_1
 62
1
100
AcDbLine
 10
146.124300
 20
240.326200
 30
0.0
 11
146.124300
 21
225.326200
 31
0.0
  0
LINE
  5
1da
100
AcDbEntity
  8
Layer_1
 62
1
100
AcDbLine
 10
146.124300
 20
225.326200
 30
0.0
 11
152.124300
 21
225.326200
 31
0.0
  0
LINE
  5
1db
100
AcDbEntity
  8
Layer_1
 62
1
100
AcDbLine
 10
152.124300
 20
225.326200
 30
0.0
 11
152.124300
 21
210.326200
 31
0.0
  0
LINE
  5
1dc
100
AcDbEntity
  8
Layer_1
 62
1
100
AcDbLine
 10
152.124300
 20
210.326200
 30
0.0
 11
146.124300
 21
210.326200
 31
0.0
  0
LINE
  5
1dd
100
AcDbEntity
  8
Layer_1
 62
1
100
AcDbLine
 10
146.124300
 20
210.326200
 30
0.0
 11
146.124300
 21
195.326200
 31
0.0
  0
LINE
  5
1de
100
AcDbEntity
  8
Layer_1
 62
1
100
AcDbLine
 10
146.124300
 20
195.326200
 30
0.0
 11
152.124300
 21
195.326200
 31
0.0
  0
LINE
  5
1df
100
AcDbEntity
  8
Layer_1
 62
1
100
AcDbLine
 10
152.124300
 20
195.326200
 30
0.0
 11
152.124300
 21
180.326200
 31
0.0
  0
LINE
  5
1e0
100
AcDbEntity
  8
Layer_1
 62
1
100
AcDbLine
 10
152.124300
 20
180.326200
 30
0.0
 11
146.124300
 21
180.326200
 31
0.0
  0
LINE
  5
1e1
100
AcDbEntity
  8
Layer_1
 62
1
100
AcDbLine
 10
146.124300
 20
180.326200
 30
0.0
 11
146.124300
 21
165.326200
 31
0.0
  0
LINE
  5
1e2
100
AcDbEntity
  8
Layer_1
 62
1
100
AcDbLine
 10
146.124300
 20
165.326200
 30
0.0
 11
152.124300
 21
165.326200
 31
0.0
  0
LINE
  5
1e3
100
AcDbEntity
  8
Layer_1
 62
1
100
AcDbLine
 10
152.124300
 20
165.326200
 30
0.0
 11
152.124300
 21
150.326200
 31
0.0
  0
LINE
  5
1e4
100
AcDbEntity
  8
Layer_1
 62
1
100
AcDbLine
 10
152.124300
 20
150.326200
 30
0.0
 11
146.124300
 21
150.326200
 31
0.0
  0
LINE
  5
1e5
100
AcDbEntity
  8
Layer_1
 62
1
100
AcDbLine
 10
146.124300
 20
150.326200
 30
0.0
 11
146.124300
 21
135.326200
 31
0.0
  0
LINE
  5
1e6
100
AcDbEntity
  8
Layer_1
 62
1
100
AcDbLine
 10
146.124300
 20
135.326200
 30
0.0
 11
152.124300
 21
135.326200
 31
0.0
  0
LINE
  5
1e7
100
AcDbEntity
  8
Layer_1
 62
1
100
AcDbLine
 10
152.124300
 20
135.326200
 30
0.0
 11
152.124300
 21
110.106200
 31
0.0
  0
LINE
  5
1e8
100
AcDbEntity
  8
Layer_1
 62
1
100
AcDbLine
 10
152.124300
 20
90.326200
 30
0.0
 11
146.124300
 21
90.326200
 31
0.0
  0
LINE
  5
1e9
100
AcDbEntity
  8
Layer_1
 62
1
100
AcDbLine
 10
146.124300
 20
90.326200
 30
0.0
 11
146.124300
 21
67.701200
 31
0.0
  0
LINE
  5
1ea
100
AcDbEntity
  8
Layer_1
 62
1
100
AcDbLine
 10
146.124300
 20
67.701200
 30
0.0
 11
142.989300
 21
67.701200
 31
0.0
  0
LINE
  5
1eb
100
AcDbEntity
  8
Layer_1
 62
1
100
AcDbLine
 10
142.989300
 20
67.701200
 30
0.0
 11
142.989300
 21
73.701200
 31
0.0
  0
LINE
  5
1ec
100
AcDbEntity
  8
Layer_1
 62
1
100
AcDbLine
 10
142.989300
 20
73.701200
 30
0.0
 11
127.989300
 21
73.701200
 31
0.0
  0
LINE
  5
1ed
100
AcDbEntity
  8
Layer_1
 62
1
100
AcDbLine
 10
127.989300
 20
73.701200
 30
0.0
 11
127.989300
 21
67.701200
 31
0.0
  0
LINE
  5
1ee
100
AcDbEntity
  8
Layer_1
 62
1
100
AcDbLine
 10
127.989300
 20
67.701200
 30
0.0
 11
124.854300
 21
67.701200
 31
0.0
  0
LINE
  5
1ef
100
AcDbEntity
  8
Layer_1
 62
1
100
AcDbLine
 10
124.854300
 20
67.701200
 30
0.0
 11
124.854300
 21
75.326200
 31
0.0
  0
LINE
  5
1f0
100
AcDbEntity
  8
Layer_1
 62
1
100
AcDbLine
 10
124.854300
 20
75.326200
 30
0.0
 11
124.854300
 21
90.326200
 31
0.0
  0
LINE
  5
1f1
100
AcDbEntity
  8
Layer_1
 62
1
100
AcDbLine
 10
152.124300
 20
120.326200
 30
0.0
 11
146.124300
 21
120.326200
 31
0.0
  0
LINE
  5
1f2
100
AcDbEntity
  8
Layer_1
 62
1
100
AcDbLine
 10
146.124300
 20
120.326200
 30
0.0
 11
146.124300
 21
105.326200
 31
0.0
  0
LINE
  5
1f3
100
AcDbEntity
  8
Layer_1
 62
1
100
AcDbLine
 10
146.124300
 20
105.326200
 30
0.0
 11
152.124300
 21
105.326200
 31
0.0
  0
LINE
  5
1f4
100
AcDbEntity
  8
Layer_1
 62
1
100
AcDbLine
 10
152.124300
 20
105.326200
 30
0.0
 11
152.124300
 21
76.836200
 31
0.0
  0
LINE
  5
1f5
100
AcDbEntity
  8
Layer_1
 62
1
100
AcDbLine
 10
142.989300
 20
253.951200
 30
0.0
 11
142.989300
 21
241.951200
 31
0.0
  0
LINE
  5
1f6
100
AcDbEntity
  8
Layer_1
 62
1
100
AcDbLine
 10
142.989300
 20
241.951200
 30
0.0
 11
127.989300
 21
241.951200
 31
0.0
  0
LINE
  5
1f7
100
AcDbEntity
  8
Layer_1
 62
1
100
AcDbLine
 10
127.989300
 20
241.951200
 30
0.0
 11
127.989300
 21
253.951200
 31
0.0
  0
LINE
  5
1f8
100
AcDbEntity
  8
Layer_1
 62
1
100
AcDbLine
 10
124.854300
 20
225.326200
 30
0.0
 11
124.854300
 21
255.576200
 31
0.0
  0
LINE
  5
1f9
100
AcDbEntity
  8
Layer_1
 62
1
100
AcDbLine
 10
124.854300
 20
210.326200
 30
0.0
 11
124.854300
 21
195.326200
 31
0.0
  0
LINE
  5
1fa
100
AcDbEntity
  8
Layer_1
 62
1
100
AcDbLine
 10
124.854300
 20
180.326200
 30
0.0
 11
124.854300
 21
165.326200
 31
0.0
  0
LINE
  5
1fb
100
AcDbEntity
  8
Layer_1
 62
1
100
AcDbLine
 10
124.854300
 20
150.326200
 30
0.0
 11
124.854300
 21
135.326200
 31
0.0
  0
LINE
  5
1fc
100
AcDbEntity
  8
Layer_1
 62
1
100
AcDbLine
 10
124.854300
 20
120.326200
 30
0.0
 11
124.854300
 21
105.326200
 31
0.0
  0
LINE
  5
1fd
100
AcDbEntity
  8
Layer_1
 62
1
100
AcDbLine
 10
142.989300
 20
247.951200
 30
0.0
 11
146.124300
 21
247.951200
 31
0.0
  0
LINE
  5
1fe
100
AcDbEntity
  8
Layer_1
 62
1
100
AcDbLine
 10
124.854300
 20
247.951200
 30
0.0
 11
127.989300
 21
247.951200
 31
0.0
  0
LINE
  5
1ff
100
AcDbEntity
  8
Layer_1
 62
1
100
AcDbLine
 10
524.624300
 20
106.971200
 30
0.0
 11
524.624300
 21
94.971200
 31
0.0
  0
LINE
  5
200
100
AcDbEntity
  8
Layer_1
 62
1
100
AcDbLine
 10
524.624300
 20
94.971200
 30
0.0
 11
546.124300
 21
94.971200
 31
0.0
  0
LINE
  5
201
100
AcDbEntity
  8
Layer_1
 62
1
100
AcDbLine
 10
546.124300
 20
94.971200
 30
0.0
 11
546.124300
 21
91.836200
 31
0.0
  0
LINE
  5
202
100
AcDbEntity
  8
Layer_1
 62
1
100
AcDbLine
 10
546.124300
 20
91.836200
 30
0.0
 11
552.124300
 21
91.836200
 31
0.0
  0
LINE
  5
203
100
AcDbEntity
  8
Layer_1
 62
1
100
AcDbLine
 10
552.124300
 20
91.836200
 30
0.0
 11
552.124300
 21
76.836200
 31
0.0
  0
LINE
  5
204
100
AcDbEntity
  8
Layer_1
 62
1
100
AcDbLine
 10
552.124300
 20
76.836200
 30
0.0
 11
546.124300
 21
76.836200
 31
0.0
  0
LINE
  5
205
100
AcDbEntity
  8
Layer_1
 62
1
100
AcDbLine
 10
546.124300
 20
76.836200
 30
0.0
 11
546.124300
 21
73.701200
 31
0.0
  0
LINE
  5
206
100
AcDbEntity
  8
Layer_1
 62
1
100
AcDbLine
 10
546.124300
 20
73.701200
 30
0.0
 11
539.624300
 21
73.701200
 31
0.0
  0
LINE
  5
207
100
AcDbEntity
  8
Layer_1
 62
1
100
AcDbLine
 10
539.624300
 20
73.701200
 30
0.0
 11
524.624300
 21
73.701200
 31
0.0
  0
LINE
  5
208
100
AcDbEntity
  8
Layer_1
 62
1
100
AcDbLine
 10
524.624300
 20
73.701200
 30
0.0
 11
524.624300
 21
67.701200
 31
0.0
  0
LINE
  5
209
100
AcDbEntity
  8
Layer_1
 62
1
100
AcDbLine
 10
524.624300
 20
67.701200
 30
0.0
 11
509.624300
 21
67.701200
 31
0.0
  0
LINE
  5
20a
100
AcDbEntity
  8
Layer_1
 62
1
100
AcDbLine
 10
509.624300
 20
67.701200
 30
0.0
 11
509.624300
 21
73.701200
 31
0.0
  0
LINE
  5
20b
100
AcDbEntity
  8
Layer_1
 62
1
100
AcDbLine
 10
509.624300
 20
73.701200
 30
0.0
 11
494.624300
 21
73.701200
 31
0.0
  0
LINE
  5
20c
100
AcDbEntity
  8
Layer_1
 62
1
100
AcDbLine
 10
494.624300
 20
73.701200
 30
0.0
 11
494.624300
 21
67.701200
 31
0.0
  0
LINE
  5
20d
100
AcDbEntity
  8
Layer_1
 62
1
100
AcDbLine
 10
494.624300
 20
67.701200
 30
0.0
 11
479.624300
 21
67.701200
 31
0.0
  0
LINE
  5
20e
100
AcDbEntity
  8
Layer_1
 62
1
100
AcDbLine
 10
479.624300
 20
67.701200
 30
0.0
 11
479.624300
 21
73.701200
 31
0.0
  0
LINE
  5
20f
100
AcDbEntity
  8
Layer_1
 62
1
100
AcDbLine
 10
479.624300
 20
73.701200
 30
0.0
 11
464.624300
 21
73.701200
 31
0.0
  0
LINE
  5
210
100
AcDbEntity
  8
Layer_1
 62
1
100
AcDbLine
 10
464.624300
 20
73.701200
 30
0.0
 11
464.624300
 21
67.701200
 31
0.0
  0
LINE
  5
211
100
AcDbEntity
  8
Layer_1
 62
1
100
AcDbLine
 10
464.624300
 20
67.701200
 30
0.0
 11
449.624300
 21
67.701200
 31
0.0
  0
LINE
  5
212
100
AcDbEntity
  8
Layer_1
 62
1
100
AcDbLine
 10
449.624300
 20
67.701200
 30
0.0
 11
449.624300
 21
73.701200
 31
0.0
  0
LINE
  5
213
100
AcDbEntity
  8
Layer_1
 62
1
100
AcDbLine
 10
449.624300
 20
73.701200
 30
0.0
 11
434.624300
 21
73.701200
 31
0.0
  0
LINE
  5
214
100
AcDbEntity
  8
Layer_1
 62
1
100
AcDbLine
 10
434.624300
 20
73.701200
 30
0.0
 11
434.624300
 21
67.701200
 31
0.0
  0
LINE
  5
215
100
AcDbEntity
  8
Layer_1
 62
1
100
AcDbLine
 10
434.624300
 20
67.701200
 30
0.0
 11
419.624300
 21
67.701200
 31
0.0
  0
LINE
  5
216
100
AcDbEntity
  8
Layer_1
 62
1
100
AcDbLine
 10
419.624300
 20
67.701200
 30
0.0
 11
419.624300
 21
73.701200
 31
0.0
  0
LINE
  5
217
100
AcDbEntity
  8
Layer_1
 62
1
100
AcDbLine
 10
419.624300
 20
73.701200
 30
0.0
 11
404.624300
 21
73.701200
 31
0.0
  0
LINE
  5
218
100
AcDbEntity
  8
Layer_1
 62
1
100
AcDbLine
 10
404.624300
 20
73.701200
 30
0.0
 11
404.624300
 21
67.701200
 31
0.0
  0
LINE
  5
219
100
AcDbEntity
  8
Layer_1
 62
1
100
AcDbLine
 10
404.624300
 20
67.701200
 30
0.0
 11
389.624300
 21
67.701200
 31
0.0
  0
LINE
  5
21a
100
AcDbEntity
  8
Layer_1
 62
1
100
AcDbLine
 10
389.624300
 20
67.701200
 30
0.0
 11
389.624300
 21
73.701200
 31
0.0
  0
LINE
  5
21b
100
AcDbEntity
  8
Layer_1
 62
1
100
AcDbLine
 10
389.624300
 20
73.701200
 30
0.0
 11
374.624300
 21
73.701200
 31
0.0
  0
LINE
  5
21c
100
AcDbEntity
  8
Layer_1
 62
1
100
AcDbLine
 10
374.624300
 20
73.701200
 30
0.0
 11
374.624300
 21
67.701200
 31
0.0
  0
LINE
  5
21d
100
AcDbEntity
  8
Layer_1
 62
1
100
AcDbLine
 10
374.624300
 20
67.701200
 30
0.0
 11
359.624300
 21
67.701200
 31
0.0
  0
LINE
  5
21e
100
AcDbEntity
  8
Layer_1
 62
1
100
AcDbLine
 10
359.624300
 20
67.701200
 30
0.0
 11
359.624300
 21
73.701200
 31
0.0
  0
LINE
  5
21f
100
AcDbEntity
  8
Layer_1
 62
1
100
AcDbLine
 10
359.624300
 20
73.701200
 30
0.0
 11
344.624300
 21
73.701200
 31
0.0
  0
LINE
  5
220
100
AcDbEntity
  8
Layer_1
 62
1
100
AcDbLine
 10
344.624300
 20
73.701200
 30
0.0
 11
344.624300
 21
67.701200
 31
0.0
  0
LINE
  5
221
100
AcDbEntity
  8
Layer_1
 62
1
100
AcDbLine
 10
344.624300
 20
67.701200
 30
0.0
 11
329.624300
 21
67.701200
 31
0.0
  0
LINE
  5
222
100
AcDbEntity
  8
Layer_1
 62
1
100
AcDbLine
 10
329.624300
 20
67.701200
 30
0.0
 11
329.624300
 21
73.701200
 31
0.0
  0
LINE
  5
223
100
AcDbEntity
  8
Layer_1
 62
1
100
AcDbLine
 10
329.624300
 20
73.701200
 30
0.0
 11
314.624300
 21
73.701200
 31
0.0
  0
LINE
  5
224
100
AcDbEntity
  8
Layer_1
 62
1
100
AcDbLine
 10
314.624300
 20
73.701200
 30
0.0
 11
314.624300
 21
67.701200
 31
0.0
  0
LINE
  5
225
100
AcDbEntity
  8
Layer_1
 62
1
100
AcDbLine
 10
314.624300
 20
67.701200
 30
0.0
 11
299.624300
 21
67.701200
 31
0.0
  0
LINE
  5
226
100
AcDbEntity
  8
Layer_1
 62
1
100
AcDbLine
 10
299.624300
 20
67.701200
 30
0.0
 11
299.624300
 21
73.701200
 31
0.0
  0
LINE
  5
227
100
AcDbEntity
  8
Layer_1
 62
1
100
AcDbLine
 10
299.624300
 20
73.701200
 30
0.0
 11
284.624300
 21
73.701200
 31
0.0
  0
LINE
  5
228
100
AcDbEntity
  8
Layer_1
 62
1
100
AcDbLine
 10
284.624300
 20
73.701200
 30
0.0
 11
284.624300
 21
67.701200
 31
0.0
  0
LINE
  5
229
100
AcDbEntity
  8
Layer_1
 62
1
100
AcDbLine
 10
284.624300
 20
67.701200
 30
0.0
 11
269.624300
 21
67.701200
 31
0.0
  0
LINE
  5
22a
100
AcDbEntity
  8
Layer_1
 62
1
100
AcDbLine
 10
269.624300
 20
67.701200
 30
0.0
 11
269.624300
 21
73.701200
 31
0.0
  0
LINE
  5
22b
100
AcDbEntity
  8
Layer_1
 62
1
100
AcDbLine
 10
269.624300
 20
73.701200
 30
0.0
 11
254.624300
 21
73.701200
 31
0.0
  0
LINE
  5
22c
100
AcDbEntity
  8
Layer_1
 62
1
100
AcDbLine
 10
254.624300
 20
73.701200
 30
0.0
 11
254.624300
 21
67.701200
 31
0.0
  0
LINE
  5
22d
100
AcDbEntity
  8
Layer_1
 62
1
100
AcDbLine
 10
254.624300
 20
67.701200
 30
0.0
 11
239.624300
 21
67.701200
 31
0.0
  0
LINE
  5
22e
100
AcDbEntity
  8
Layer_1
 62
1
100
AcDbLine
 10
239.624300
 20
67.701200
 30
0.0
 11
239.624300
 21
73.701200
 31
0.0
  0
LINE
  5
22f
100
AcDbEntity
  8
Layer_1
 62
1
100
AcDbLine
 10
239.624300
 20
73.701200
 30
0.0
 11
224.624300
 21
73.701200
 31
0.0
  0
LINE
  5
230
100
AcDbEntity
  8
Layer_1
 62
1
100
AcDbLine
 10
224.624300
 20
73.701200
 30
0.0
 11
224.624300
 21
67.701200
 31
0.0
  0
LINE
  5
231
100
AcDbEntity
  8
Layer_1
 62
1
100
AcDbLine
 10
224.624300
 20
67.701200
 30
0.0
 11
209.624300
 21
67.701200
 31
0.0
  0
LINE
  5
232
100
AcDbEntity
  8
Layer_1
 62
1
100
AcDbLine
 10
209.624300
 20
67.701200
 30
0.0
 11
209.624300
 21
73.701200
 31
0.0
  0
LINE
  5
233
100
AcDbEntity
  8
Layer_1
 62
1
100
AcDbLine
 10
209.624300
 20
73.701200
 30
0.0
 11
194.624300
 21
73.701200
 31
0.0
  0
LINE
  5
234
100
AcDbEntity
  8
Layer_1
 62
1
100
AcDbLine
 10
194.624300
 20
73.701200
 30
0.0
 11
194.624300
 21
67.701200
 31
0.0
  0
LINE
  5
235
100
AcDbEntity
  8
Layer_1
 62
1
100
AcDbLine
 10
194.624300
 20
67.701200
 30
0.0
 11
179.624300
 21
67.701200
 31
0.0
  0
LINE
  5
236
100
AcDbEntity
  8
Layer_1
 62
1
100
AcDbLine
 10
179.624300
 20
67.701200
 30
0.0
 11
179.624300
 21
73.701200
 31
0.0
  0
LINE
  5
237
100
AcDbEntity
  8
Layer_1
 62
1
100
AcDbLine
 10
179.624300
 20
73.701200
 30
0.0
 11
158.124300
 21
73.701200
 31
0.0
  0
LINE
  5
238
100
AcDbEntity
  8
Layer_1
 62
1
100
AcDbLine
 10
158.124300
 20
73.701200
 30
0.0
 11
158.124300
 21
76.836200
 31
0.0
  0
LINE
  5
239
100
AcDbEntity
  8
Layer_1
 62
1
100
AcDbLine
 10
158.124300
 20
76.836200
 30
0.0
 11
152.124300
 21
76.836200
 31
0.0
  0
LINE
  5
23a
100
AcDbEntity
  8
Layer_1
 62
1
100
AcDbLine
 10
152.124300
 20
91.836200
 30
0.0
 11
158.124300
 21
91.836200
 31
0.0
  0
LINE
  5
23b
100
AcDbEntity
  8
Layer_1
 62
1
100
AcDbLine
 10
158.124300
 20
91.836200
 30
0.0
 11
158.124300
 21
94.971200
 31
0.0
  0
LINE
  5
23c
100
AcDbEntity
  8
Layer_1
 62
1
100
AcDbLine
 10
158.124300
 20
94.971200
 30
0.0
 11
164.624300
 21
94.971200
 31
0.0
  0
LINE
  5
23d
100
AcDbEntity
  8
Layer_1
 62
1
100
AcDbLine
 10
164.624300
 20
94.971200
 30
0.0
 11
179.624300
 21
94.971200
 31
0.0
  0
LINE
  5
23e
100
AcDbEntity
  8
Layer_1
 62
1
100
AcDbLine
 10
179.624300
 20
94.971200
 30
0.0
 11
179.624300
 21
106.971200
 31
0.0
  0
LINE
  5
23f
100
AcDbEntity
  8
Layer_1
 62
1
100
AcDbLine
 10
509.624300
 20
106.971200
 30
0.0
 11
509.624300
 21
94.971200
 31
0.0
  0
LINE
  5
240
100
AcDbEntity
  8
Layer_1
 62
1
100
AcDbLine
 10
509.624300
 20
94.971200
 30
0.0
 11
494.624300
 21
94.971200
 31
0.0
  0
LINE
  5
241
100
AcDbEntity
  8
Layer_1
 62
1
100
AcDbLine
 10
494.624300
 20
94.971200
 30
0.0
 11
494.624300
 21
106.971200
 31
0.0
  0
LINE
  5
242
100
AcDbEntity
  8
Layer_1
 62
1
100
AcDbLine
 10
479.624300
 20
106.971200
 30
0.0
 11
479.624300
 21
94.971200
 31
0.0
  0
LINE
  5
243
100
AcDbEntity
  8
Layer_1
 62
1
100
AcDbLine
 10
479.624300
 20
94.971200
 30
0.0
 11
464.624300
 21
94.971200
 31
0.0
  0
LINE
  5
244
100
AcDbEntity
  8
Layer_1
 62
1
100
AcDbLine
 10
464.624300
 20
94.971200
 30
0.0
 11
464.624300
 21
106.971200
 31
0.0
  0
LINE
  5
245
100
AcDbEntity
  8
Layer_1
 62
1
100
AcDbLine
 10
449.624300
 20
106.971200
 30
0.0
 11
449.624300
 21
94.971200
 31
0.0
  0
LINE
  5
246
100
AcDbEntity
  8
Layer_1
 62
1
100
AcDbLine
 10
449.624300
 20
94.971200
 30
0.0
 11
434.624300
 21
94.971200
 31
0.0
  0
LINE
  5
247
100
AcDbEntity
  8
Layer_1
 62
1
100
AcDbLine
 10
434.624300
 20
94.971200
 30
0.0
 11
434.624300
 21
106.971200
 31
0.0
  0
LINE
  5
248
100
AcDbEntity
  8
Layer_1
 62
1
100
AcDbLine
 10
419.624300
 20
106.971200
 30
0.0
 11
419.624300
 21
94.971200
 31
0.0
  0
LINE
  5
249
100
AcDbEntity
  8
Layer_1
 62
1
100
AcDbLine
 10
419.624300
 20
94.971200
 30
0.0
 11
404.624300
 21
94.971200
 31
0.0
  0
LINE
  5
24a
100
AcDbEntity
  8
Layer_1
 62
1
100
AcDbLine
 10
404.624300
 20
94.971200
 30
0.0
 11
404.624300
 21
106.971200
 31
0.0
  0
LINE
  5
24b
100
AcDbEntity
  8
Layer_1
 62
1
100
AcDbLine
 10
389.624300
 20
106.971200
 30
0.0
 11
389.624300
 21
94.971200
 31
0.0
  0
LINE
  5
24c
100
AcDbEntity
  8
Layer_1
 62
1
100
AcDbLine
 10
389.624300
 20
94.971200
 30
0.0
 11
374.624300
 21
94.971200
 31
0.0
  0
LINE
  5
24d
100
AcDbEntity
  8
Layer_1
 62
1
100
AcDbLine
 10
374.624300
 20
94.971200
 30
0.0
 11
374.624300
 21
106.971200
 31
0.0
  0
LINE
  5
24e
100
AcDbEntity
  8
Layer_1
 62
1
100
AcDbLine
 10
359.624300
 20
106.971200
 30
0.0
 11
359.624300
 21
94.971200
 31
0.0
  0
LINE
  5
24f
100
AcDbEntity
  8
Layer_1
 62
1
100
AcDbLine
 10
359.624300
 20
94.971200
 30
0.0
 11
344.624300
 21
94.971200
 31
0.0
  0
LINE
  5
250
100
AcDbEntity
  8
Layer_1
 62
1
100
AcDbLine
 10
344.624300
 20
94.971200
 30
0.0
 11
344.624300
 21
106.971200
 31
0.0
  0
LINE
  5
251
100
AcDbEntity
  8
Layer_1
 62
1
100
AcDbLine
 10
329.624300
 20
106.971200
 30
0.0
 11
329.624300
 21
94.971200
 31
0.0
  0
LINE
  5
252
100
AcDbEntity
  8
Layer_1
 62
1
100
AcDbLine
 10
329.624300
 20
94.971200
 30
0.0
 11
314.624300
 21
94.971200
 31
0.0
  0
LINE
  5
253
100
AcDbEntity
  8
Layer_1
 62
1
100
AcDbLine
 10
314.624300
 20
94.971200
 30
0.0
 11
314.624300
 21
106.971200
 31
0.0
  0
LINE
  5
254
100
AcDbEntity
  8
Layer_1
 62
1
100
AcDbLine
 10
299.624300
 20
106.971200
 30
0.0
 11
299.624300
 21
94.971200
 31
0.0
  0
LINE
  5
255
100
AcDbEntity
  8
Layer_1
 62
1
100
AcDbLine
 10
299.624300
 20
94.971200
 30
0.0
 11
284.624300
 21
94.971200
 31
0.0
  0
LINE
  5
256
100
AcDbEntity
  8
Layer_1
 62
1
100
AcDbLine
 10
284.624300
 20
94.971200
 30
0.0
 11
284.624300
 21
106.971200
 31
0.0
  0
LINE
  5
257
100
AcDbEntity
  8
Layer_1
 62
1
100
AcDbLine
 10
269.624300
 20
106.971200
 30
0.0
 11
269.624300
 21
94.971200
 31
0.0
  0
LINE
  5
258
100
AcDbEntity
  8
Layer_1
 62
1
100
AcDbLine
 10
269.624300
 20
94.971200
 30
0.0
 11
254.624300
 21
94.971200
 31
0.0
  0
LINE
  5
259
100
AcDbEntity
  8
Layer_1
 62
1
100
AcDbLine
 10
254.624300
 20
94.971200
 30
0.0
 11
254.624300
 21
106.971200
 31
0.0
  0
LINE
  5
25a
100
AcDbEntity
  8
Layer_1
 62
1
100
AcDbLine
 10
239.624300
 20
106.971200
 30
0.0
 11
239.624300
 21
94.971200
 31
0.0
  0
LINE
  5
25b
100
AcDbEntity
  8
Layer_1
 62
1
100
AcDbLine
 10
239.624300
 20
94.971200
 30
0.0
 11
224.624300
 21
94.971200
 31
0.0
  0
LINE
  5
25c
100
AcDbEntity
  8
Layer_1
 62
1
100
AcDbLine
 10
224.624300
 20
94.971200
 30
0.0
 11
224.624300
 21
106.971200
 31
0.0
  0
LINE
  5
25d
100
AcDbEntity
  8
Layer_1
 62
1
100
AcDbLine
 10
209.624300
 20
106.971200
 30
0.0
 11
209.624300
 21
94.971200
 31
0.0
  0
LINE
  5
25e
100
AcDbEntity
  8
Layer_1
 62
1
100
AcDbLine
 10
209.624300
 20
94.971200
 30
0.0
 11
194.624300
 21
94.971200
 31
0.0
  0
LINE
  5
25f
100
AcDbEntity
  8
Layer_1
 62
1
100
AcDbLine
 10
194.624300
 20
94.971200
 30
0.0
 11
194.624300
 21
106.971200
 31
0.0
  0
LINE
  5
260
100
AcDbEntity
  8
Layer_1
 62
1
100
AcDbLine
 10
509.624300
 20
100.971200
 30
0.0
 11
524.624300
 21
100.971200
 31
0.0
  0
LINE
  5
261
100
AcDbEntity
  8
Layer_1
 62
1
100
AcDbLine
 10
479.624300
 20
100.971200
 30
0.0
 11
494.624300
 21
100.971200
 31
0.0
  0
LINE
  5
262
100
AcDbEntity
  8
Layer_1
 62
1
100
AcDbLine
 10
449.624300
 20
100.971200
 30
0.0
 11
464.624300
 21
100.971200
 31
0.0
  0
LINE
  5
263
100
AcDbEntity
  8
Layer_1
 62
1
100
AcDbLine
 10
419.624300
 20
100.971200
 30
0.0
 11
434.624300
 21
100.971200
 31
0.0
  0
LINE
  5
264
100
AcDbEntity
  8
Layer_1
 62
1
100
AcDbLine
 10
389.624300
 20
100.971200
 30
0.0
 11
404.624300
 21
100.971200
 31
0.0
  0
LINE
  5
265
100
AcDbEntity
  8
Layer_1
 62
1
100
AcDbLine
 10
359.624300
 20
100.971200
 30
0.0
 11
374.624300
 21
100.971200
 31
0.0
  0
LINE
  5
266
100
AcDbEntity
  8
Layer_1
 62
1
100
AcDbLine
 10
329.624300
 20
100.971200
 30
0.0
 11
344.624300
 21
100.971200
 31
0.0
  0
LINE
  5
267
100
AcDbEntity
  8
Layer_1
 62
1
100
AcDbLine
 10
299.624300
 20
100.971200
 30
0.0
 11
314.624300
 21
100.971200
 31
0.0
  0
LINE
  5
268
100
AcDbEntity
  8
Layer_1
 62
1
100
AcDbLine
 10
269.624300
 20
100.971200
 30
0.0
 11
284.624300
 21
100.971200
 31
0.0
  0
LINE
  5
269
100
AcDbEntity
  8
Layer_1
 62
1
100
AcDbLine
 10
239.624300
 20
100.971200
 30
0.0
 11
254.624300
 21
100.971200
 31
0.0
  0
LINE
  5
26a
100
AcDbEntity
  8
Layer_1
 62
1
100
AcDbLine
 10
209.624300
 20
100.971200
 30
0.0
 11
224.624300
 21
100.971200
 31
0.0
  0
LINE
  5
26b
100
AcDbEntity
  8
Layer_1
 62
1
100
AcDbLine
 10
179.624300
 20
100.971200
 30
0.0
 11
194.624300
 21
100.971200
 31
0.0
  0
LINE
  5
26c
100
AcDbEntity
  8
Layer_1
 62
1
100
AcDbLine
 10
-281.145700
 20
255.576200
 30
0.0
 11
-281.145700
 21
270.576200
 31
0.0
  0
LINE
  5
26d
100
AcDbEntity
  8
Layer_1
 62
1
100
AcDbLine
 10
-281.145700
 20
270.576200
 30
0.0
 11
-275.145700
 21
270.576200
 31
0.0
  0
LINE
  5
26e
100
AcDbEntity
  8
Layer_1
 62
1
100
AcDbLine
 10
-275.145700
 20
270.576200
 30
0.0
 11
-275.145700
 21
285.576200
 31
0.0
  0
LINE
  5
26f
100
AcDbEntity
  8
Layer_1
 62
1
100
AcDbLine
 10
-275.145700
 20
285.576200
 30
0.0
 11
-281.145700
 21
285.576200
 31
0.0
  0
LINE
  5
270
100
AcDbEntity
  8
Layer_1
 62
1
100
AcDbLine
 10
-281.145700
 20
285.576200
 30
0.0
 11
-281.145700
 21
300.576200
 31
0.0
  0
LINE
  5
271
100
AcDbEntity
  8
Layer_1
 62
1
100
AcDbLine
 10
-281.145700
 20
300.576200
 30
0.0
 11
-275.145700
 21
300.576200
 31
0.0
  0
LINE
  5
272
100
AcDbEntity
  8
Layer_1
 62
1
100
AcDbLine
 10
-275.145700
 20
300.576200
 30
0.0
 11
-275.145700
 21
315.576200
 31
0.0
  0
LINE
  5
273
100
AcDbEntity
  8
Layer_1
 62
1
100
AcDbLine
 10
-275.145700
 20
315.576200
 30
0.0
 11
-281.145700
 21
315.576200
 31
0.0
  0
LINE
  5
274
100
AcDbEntity
  8
Layer_1
 62
1
100
AcDbLine
 10
-281.145700
 20
315.576200
 30
0.0
 11
-281.145700
 21
330.576200
 31
0.0
  0
LINE
  5
275
100
AcDbEntity
  8
Layer_1
 62
1
100
AcDbLine
 10
-281.145700
 20
330.576200
 30
0.0
 11
-275.145700
 21
330.576200
 31
0.0
  0
LINE
  5
276
100
AcDbEntity
  8
Layer_1
 62
1
100
AcDbLine
 10
-275.145700
 20
330.576200
 30
0.0
 11
-275.145700
 21
345.576200
 31
0.0
  0
LINE
  5
277
100
AcDbEntity
  8
Layer_1
 62
1
100
AcDbLine
 10
-275.145700
 20
345.576200
 30
0.0
 11
-281.145700
 21
345.576200
 31
0.0
  0
LINE
  5
278
100
AcDbEntity
  8
Layer_1
 62
1
100
AcDbLine
 10
-281.145700
 20
345.576200
 30
0.0
 11
-281.145700
 21
360.576200
 31
0.0
  0
LINE
  5
279
100
AcDbEntity
  8
Layer_1
 62
1
100
AcDbLine
 10
-281.145700
 20
360.576200
 30
0.0
 11
-275.145700
 21
360.576200
 31
0.0
  0
LINE
  5
27a
100
AcDbEntity
  8
Layer_1
 62
1
100
AcDbLine
 10
-275.145700
 20
360.576200
 30
0.0
 11
-275.145700
 21
375.576200
 31
0.0
  0
LINE
  5
27b
100
AcDbEntity
  8
Layer_1
 62
1
100
AcDbLine
 10
-275.145700
 20
375.576200
 30
0.0
 11
-281.145700
 21
375.576200
 31
0.0
  0
LINE
  5
27c
100
AcDbEntity
  8
Layer_1
 62
1
100
AcDbLine
 10
-281.145700
 20
375.576200
 30
0.0
 11
-281.145700
 21
390.576200
 31
0.0
  0
LINE
  5
27d
100
AcDbEntity
  8
Layer_1
 62
1
100
AcDbLine
 10
-281.145700
 20
390.576200
 30
0.0
 11
-275.145700
 21
390.576200
 31
0.0
  0
LINE
  5
27e
100
AcDbEntity
  8
Layer_1
 62
1
100
AcDbLine
 10
-275.145700
 20
390.576200
 30
0.0
 11
-275.145700
 21
405.576200
 31
0.0
  0
LINE
  5
27f
100
AcDbEntity
  8
Layer_1
 62
1
100
AcDbLine
 10
-275.145700
 20
405.576200
 30
0.0
 11
-281.145700
 21
405.576200
 31
0.0
  0
LINE
  5
280
100
AcDbEntity
  8
Layer_1
 62
1
100
AcDbLine
 10
-281.145700
 20
405.576200
 30
0.0
 11
-281.145700
 21
428.201200
 31
0.0
  0
LINE
  5
281
100
AcDbEntity
  8
Layer_1
 62
1
100
AcDbLine
 10
-281.145700
 20
428.201200
 30
0.0
 11
-268.645700
 21
428.201200
 31
0.0
  0
LINE
  5
282
100
AcDbEntity
  8
Layer_1
 62
1
100
AcDbLine
 10
-268.645700
 20
428.201200
 30
0.0
 11
-253.645700
 21
428.201200
 31
0.0
  0
LINE
  5
283
100
AcDbEntity
  8
Layer_1
 62
1
100
AcDbLine
 10
-253.645700
 20
428.201200
 30
0.0
 11
-253.645700
 21
422.201200
 31
0.0
  0
LINE
  5
284
100
AcDbEntity
  8
Layer_1
 62
1
100
AcDbLine
 10
-253.645700
 20
422.201200
 30
0.0
 11
-238.645700
 21
422.201200
 31
0.0
  0
LINE
  5
285
100
AcDbEntity
  8
Layer_1
 62
1
100
AcDbLine
 10
-238.645700
 20
422.201200
 30
0.0
 11
-238.645700
 21
428.201200
 31
0.0
  0
LINE
  5
286
100
AcDbEntity
  8
Layer_1
 62
1
100
AcDbLine
 10
-238.645700
 20
428.201200
 30
0.0
 11
-223.645700
 21
428.201200
 31
0.0
  0
LINE
  5
287
100
AcDbEntity
  8
Layer_1
 62
1
100
AcDbLine
 10
-223.645700
 20
428.201200
 30
0.0
 11
-223.645700
 21
422.201200
 31
0.0
  0
LINE
  5
288
100
AcDbEntity
  8
Layer_1
 62
1
100
AcDbLine
 10
-223.645700
 20
422.201200
 30
0.0
 11
-208.645700
 21
422.201200
 31
0.0
  0
LINE
  5
289
100
AcDbEntity
  8
Layer_1
 62
1
100
AcDbLine
 10
-208.645700
 20
422.201200
 30
0.0
 11
-208.645700
 21
428.201200
 31
0.0
  0
LINE
  5
28a
100
AcDbEntity
  8
Layer_1
 62
1
100
AcDbLine
 10
-208.645700
 20
428.201200
 30
0.0
 11
-193.645700
 21
428.201200
 31
0.0
  0
LINE
  5
28b
100
AcDbEntity
  8
Layer_1
 62
1
100
AcDbLine
 10
-193.645700
 20
428.201200
 30
0.0
 11
-193.645700
 21
422.201200
 31
0.0
  0
LINE
  5
28c
100
AcDbEntity
  8
Layer_1
 62
1
100
AcDbLine
 10
-193.645700
 20
422.201200
 30
0.0
 11
-178.645700
 21
422.201200
 31
0.0
  0
LINE
  5
28d
100
AcDbEntity
  8
Layer_1
 62
1
100
AcDbLine
 10
-178.645700
 20
422.201200
 30
0.0
 11
-178.645700
 21
428.201200
 31
0.0
  0
LINE
  5
28e
100
AcDbEntity
  8
Layer_1
 62
1
100
AcDbLine
 10
-178.645700
 20
428.201200
 30
0.0
 11
-163.645700
 21
428.201200
 31
0.0
  0
LINE
  5
28f
100
AcDbEntity
  8
Layer_1
 62
1
100
AcDbLine
 10
-163.645700
 20
428.201200
 30
0.0
 11
-163.645700
 21
422.201200
 31
0.0
  0
LINE
  5
290
100
AcDbEntity
  8
Layer_1
 62
1
100
AcDbLine
 10
-163.645700
 20
422.201200
 30
0.0
 11
-148.645700
 21
422.201200
 31
0.0
  0
LINE
  5
291
100
AcDbEntity
  8
Layer_1
 62
1
100
AcDbLine
 10
-148.645700
 20
422.201200
 30
0.0
 11
-148.645700
 21
428.201200
 31
0.0
  0
LINE
  5
292
100
AcDbEntity
  8
Layer_1
 62
1
100
AcDbLine
 10
-148.645700
 20
428.201200
 30
0.0
 11
-133.645700
 21
428.201200
 31
0.0
  0
LINE
  5
293
100
AcDbEntity
  8
Layer_1
 62
1
100
AcDbLine
 10
-133.645700
 20
428.201200
 30
0.0
 11
-133.645700
 21
422.201200
 31
0.0
  0
LINE
  5
294
100
AcDbEntity
  8
Layer_1
 62
1
100
AcDbLine
 10
-133.645700
 20
422.201200
 30
0.0
 11
-118.645700
 21
422.201200
 31
0.0
  0
LINE
  5
295
100
AcDbEntity
  8
Layer_1
 62
1
100
AcDbLine
 10
-118.645700
 20
422.201200
 30
0.0
 11
-118.645700
 21
428.201200
 31
0.0
  0
LINE
  5
296
100
AcDbEntity
  8
Layer_1
 62
1
100
AcDbLine
 10
-118.645700
 20
428.201200
 30
0.0
 11
-103.645700
 21
428.201200
 31
0.0
  0
LINE
  5
297
100
AcDbEntity
  8
Layer_1
 62
1
100
AcDbLine
 10
-103.645700
 20
428.201200
 30
0.0
 11
-103.645700
 21
422.201200
 31
0.0
  0
LINE
  5
298
100
AcDbEntity
  8
Layer_1
 62
1
100
AcDbLine
 10
-103.645700
 20
422.201200
 30
0.0
 11
-88.645700
 21
422.201200
 31
0.0
  0
LINE
  5
299
100
AcDbEntity
  8
Layer_1
 62
1
100
AcDbLine
 10
-88.645700
 20
422.201200
 30
0.0
 11
-88.645700
 21
428.201200
 31
0.0
  0
LINE
  5
29a
100
AcDbEntity
  8
Layer_1
 62
1
100
AcDbLine
 10
-88.645700
 20
428.201200
 30
0.0
 11
-73.645700
 21
428.201200
 31
0.0
  0
LINE
  5
29b
100
AcDbEntity
  8
Layer_1
 62
1
100
AcDbLine
 10
-73.645700
 20
428.201200
 30
0.0
 11
-73.645700
 21
422.201200
 31
0.0
  0
LINE
  5
29c
100
AcDbEntity
  8
Layer_1
 62
1
100
AcDbLine
 10
-73.645700
 20
422.201200
 30
0.0
 11
-58.645700
 21
422.201200
 31
0.0
  0
LINE
  5
29d
100
AcDbEntity
  8
Layer_1
 62
1
100
AcDbLine
 10
-58.645700
 20
422.201200
 30
0.0
 11
-58.645700
 21
428.201200
 31
0.0
  0
LINE
  5
29e
100
AcDbEntity
  8
Layer_1
 62
1
100
AcDbLine
 10
-58.645700
 20
428.201200
 30
0.0
 11
-43.645700
 21
428.201200
 31
0.0
  0
LINE
  5
29f
100
AcDbEntity
  8
Layer_1
 62
1
100
AcDbLine
 10
-43.645700
 20
428.201200
 30
0.0
 11
-43.645700
 21
422.201200
 31
0.0
  0
LINE
  5
2a0
100
AcDbEntity
  8
Layer_1
 62
1
100
AcDbLine
 10
-43.645700
 20
422.201200
 30
0.0
 11
-28.645700
 21
422.201200
 31
0.0
  0
LINE
  5
2a1
100
AcDbEntity
  8
Layer_1
 62
1
100
AcDbLine
 10
-28.645700
 20
422.201200
 30
0.0
 11
-28.645700
 21
428.201200
 31
0.0
  0
LINE
  5
2a2
100
AcDbEntity
  8
Layer_1
 62
1
100
AcDbLine
 10
-28.645700
 20
428.201200
 30
0.0
 11
-13.645700
 21
428.201200
 31
0.0
  0
LINE
  5
2a3
100
AcDbEntity
  8
Layer_1
 62
1
100
AcDbLine
 10
-13.645700
 20
428.201200
 30
0.0
 11
-13.645700
 21
422.201200
 31
0.0
  0
LINE
  5
2a4
100
AcDbEntity
  8
Layer_1
 62
1
100
AcDbLine
 10
-13.645700
 20
422.201200
 30
0.0
 11
1.354300
 21
422.201200
 31
0.0
  0
LINE
  5
2a5
100
AcDbEntity
  8
Layer_1
 62
1
100
AcDbLine
 10
1.354300
 20
422.201200
 30
0.0
 11
1.354300
 21
428.201200
 31
0.0
  0
LINE
  5
2a6
100
AcDbEntity
  8
Layer_1
 62
1
100
AcDbLine
 10
1.354300
 20
428.201200
 30
0.0
 11
16.354300
 21
428.201200
 31
0.0
  0
LINE
  5
2a7
100
AcDbEntity
  8
Layer_1
 62
1
100
AcDbLine
 10
16.354300
 20
428.201200
 30
0.0
 11
16.354300
 21
422.201200
 31
0.0
  0
LINE
  5
2a8
100
AcDbEntity
  8
Layer_1
 62
1
100
AcDbLine
 10
16.354300
 20
422.201200
 30
0.0
 11
31.354300
 21
422.201200
 31
0.0
  0
LINE
  5
2a9
100
AcDbEntity
  8
Layer_1
 62
1
100
AcDbLine
 10
31.354300
 20
422.201200
 30
0.0
 11
31.354300
 21
428.201200
 31
0.0
  0
LINE
  5
2aa
100
AcDbEntity
  8
Layer_1
 62
1
100
AcDbLine
 10
31.354300
 20
428.201200
 30
0.0
 11
46.354300
 21
428.201200
 31
0.0
  0
LINE
  5
2ab
100
AcDbEntity
  8
Layer_1
 62
1
100
AcDbLine
 10
46.354300
 20
428.201200
 30
0.0
 11
46.354300
 21
422.201200
 31
0.0
  0
LINE
  5
2ac
100
AcDbEntity
  8
Layer_1
 62
1
100
AcDbLine
 10
46.354300
 20
422.201200
 30
0.0
 11
61.354300
 21
422.201200
 31
0.0
  0
LINE
  5
2ad
100
AcDbEntity
  8
Layer_1
 62
1
100
AcDbLine
 10
61.354300
 20
422.201200
 30
0.0
 11
61.354300
 21
428.201200
 31
0.0
  0
LINE
  5
2ae
100
AcDbEntity
  8
Layer_1
 62
1
100
AcDbLine
 10
61.354300
 20
428.201200
 30
0.0
 11
76.354300
 21
428.201200
 31
0.0
  0
LINE
  5
2af
100
AcDbEntity
  8
Layer_1
 62
1
100
AcDbLine
 10
76.354300
 20
428.201200
 30
0.0
 11
76.354300
 21
422.201200
 31
0.0
  0
LINE
  5
2b0
100
AcDbEntity
  8
Layer_1
 62
1
100
AcDbLine
 10
76.354300
 20
422.201200
 30
0.0
 11
91.354300
 21
422.201200
 31
0.0
  0
LINE
  5
2b1
100
AcDbEntity
  8
Layer_1
 62
1
100
AcDbLine
 10
91.354300
 20
422.201200
 30
0.0
 11
91.354300
 21
428.201200
 31
0.0
  0
LINE
  5
2b2
100
AcDbEntity
  8
Layer_1
 62
1
100
AcDbLine
 10
91.354300
 20
428.201200
 30
0.0
 11
118.854300
 21
428.201200
 31
0.0
  0
LINE
  5
2b3
100
AcDbEntity
  8
Layer_1
 62
1
100
AcDbLine
 10
118.854300
 20
428.201200
 30
0.0
 11
118.854300
 21
420.576200
 31
0.0
  0
LINE
  5
2b4
100
AcDbEntity
  8
Layer_1
 62
1
100
AcDbLine
 10
118.854300
 20
420.576200
 30
0.0
 11
118.854300
 21
405.576200
 31
0.0
  0
LINE
  5
2b5
100
AcDbEntity
  8
Layer_1
 62
1
100
AcDbLine
 10
118.854300
 20
405.576200
 30
0.0
 11
118.854300
 21
375.576200
 31
0.0
  0
LINE
  5
2b6
100
AcDbEntity
  8
Layer_1
 62
1
100
AcDbLine
 10
118.854300
 20
375.576200
 30
0.0
 11
118.854300
 21
345.576200
 31
0.0
  0
LINE
  5
2b7
100
AcDbEntity
  8
Layer_1
 62
1
100
AcDbLine
 10
118.854300
 20
345.576200
 30
0.0
 11
118.854300
 21
315.576200
 31
0.0
  0
LINE
  5
2b8
100
AcDbEntity
  8
Layer_1
 62
1
100
AcDbLine
 10
118.854300
 20
315.576200
 30
0.0
 11
118.854300
 21
285.576200
 31
0.0
  0
LINE
  5
2b9
100
AcDbEntity
  8
Layer_1
 62
1
100
AcDbLine
 10
124.854300
 20
270.576200
 30
0.0
 11
112.854300
 21
270.576200
 31
0.0
  0
LINE
  5
2ba
100
AcDbEntity
  8
Layer_1
 62
1
100
AcDbLine
 10
112.854300
 20
270.576200
 30
0.0
 11
112.854300
 21
285.576200
 31
0.0
  0
LINE
  5
2bb
100
AcDbEntity
  8
Layer_1
 62
1
100
AcDbLine
 10
112.854300
 20
285.576200
 30
0.0
 11
124.854300
 21
285.576200
 31
0.0
  0
LINE
  5
2bc
100
AcDbEntity
  8
Layer_1
 62
1
100
AcDbLine
 10
124.854300
 20
300.576200
 30
0.0
 11
112.854300
 21
300.576200
 31
0.0
  0
LINE
  5
2bd
100
AcDbEntity
  8
Layer_1
 62
1
100
AcDbLine
 10
112.854300
 20
300.576200
 30
0.0
 11
112.854300
 21
315.576200
 31
0.0
  0
LINE
  5
2be
100
AcDbEntity
  8
Layer_1
 62
1
100
AcDbLine
 10
112.854300
 20
315.576200
 30
0.0
 11
124.854300
 21
315.576200
 31
0.0
  0
LINE
  5
2bf
100
AcDbEntity
  8
Layer_1
 62
1
100
AcDbLine
 10
124.854300
 20
330.576200
 30
0.0
 11
112.854300
 21
330.576200
 31
0.0
  0
LINE
  5
2c0
100
AcDbEntity
  8
Layer_1
 62
1
100
AcDbLine
 10
112.854300
 20
330.576200
 30
0.0
 11
112.854300
 21
345.576200
 31
0.0
  0
LINE
  5
2c1
100
AcDbEntity
  8
Layer_1
 62
1
100
AcDbLine
 10
112.854300
 20
345.576200
 30
0.0
 11
124.854300
 21
345.576200
 31
0.0
  0
LINE
  5
2c2
100
AcDbEntity
  8
Layer_1
 62
1
100
AcDbLine
 10
124.854300
 20
360.576200
 30
0.0
 11
112.854300
 21
360.576200
 31
0.0
  0
LINE
  5
2c3
100
AcDbEntity
  8
Layer_1
 62
1
100
AcDbLine
 10
112.854300
 20
360.576200
 30
0.0
 11
112.854300
 21
375.576200
 31
0.0
  0
LINE
  5
2c4
100
AcDbEntity
  8
Layer_1
 62
1
100
AcDbLine
 10
112.854300
 20
375.576200
 30
0.0
 11
124.854300
 21
375.576200
 31
0.0
  0
LINE
  5
2c5
100
AcDbEntity
  8
Layer_1
 62
1
100
AcDbLine
 10
124.854300
 20
390.576200
 30
0.0
 11
112.854300
 21
390.576200
 31
0.0
  0
LINE
  5
2c6
100
AcDbEntity
  8
Layer_1
 62
1
100
AcDbLine
 10
112.854300
 20
390.576200
 30
0.0
 11
112.854300
 21
405.576200
 31
0.0
  0
LINE
  5
2c7
100
AcDbEntity
  8
Layer_1
 62
1
100
AcDbLine
 10
112.854300
 20
405.576200
 30
0.0
 11
124.854300
 21
405.576200
 31
0.0
  0
LINE
  5
2c8
100
AcDbEntity
  8
Layer_1
 62
1
100
AcDbLine
 10
-253.645700
 20
253.951200
 30
0.0
 11
-238.645700
 21
253.951200
 31
0.0
  0
LINE
  5
2c9
100
AcDbEntity
  8
Layer_1
 62
1
100
AcDbLine
 10
-223.645700
 20
253.951200
 30
0.0
 11
-208.645700
 21
253.951200
 31
0.0
  0
LINE
  5
2ca
100
AcDbEntity
  8
Layer_1
 62
1
100
AcDbLine
 10
-193.645700
 20
253.951200
 30
0.0
 11
-178.645700
 21
253.951200
 31
0.0
  0
LINE
  5
2cb
100
AcDbEntity
  8
Layer_1
 62
1
100
AcDbLine
 10
-163.645700
 20
253.951200
 30
0.0
 11
-148.645700
 21
253.951200
 31
0.0
  0
LINE
  5
2cc
100
AcDbEntity
  8
Layer_1
 62
1
100
AcDbLine
 10
-133.645700
 20
253.951200
 30
0.0
 11
-118.645700
 21
253.951200
 31
0.0
  0
LINE
  5
2cd
100
AcDbEntity
  8
Layer_1
 62
1
100
AcDbLine
 10
-103.645700
 20
253.951200
 30
0.0
 11
-88.645700
 21
253.951200
 31
0.0
  0
LINE
  5
2ce
100
AcDbEntity
  8
Layer_1
 62
1
100
AcDbLine
 10
-73.645700
 20
253.951200
 30
0.0
 11
-58.645700
 21
253.951200
 31
0.0
  0
LINE
  5
2cf
100
AcDbEntity
  8
Layer_1
 62
1
100
AcDbLine
 10
-43.645700
 20
253.951200
 30
0.0
 11
-28.645700
 21
253.951200
 31
0.0
  0
LINE
  5
2d0
100
AcDbEntity
  8
Layer_1
 62
1
100
AcDbLine
 10
-13.645700
 20
253.951200
 30
0.0
 11
1.354300
 21
253.951200
 31
0.0
  0
LINE
  5
2d1
100
AcDbEntity
  8
Layer_1
 62
1
100
AcDbLine
 10
16.354300
 20
253.951200
 30
0.0
 11
31.354300
 21
253.951200
 31
0.0
  0
LINE
  5
2d2
100
AcDbEntity
  8
Layer_1
 62
1
100
AcDbLine
 10
46.354300
 20
253.951200
 30
0.0
 11
61.354300
 21
253.951200
 31
0.0
  0
LINE
  5
2d3
100
AcDbEntity
  8
Layer_1
 62
1
100
AcDbLine
 10
76.354300
 20
253.951200
 30
0.0
 11
91.354300
 21
253.951200
 31
0.0
  0
LINE
  5
2d4
100
AcDbEntity
  8
Layer_1
 62
1
100
AcDbLine
 10
124.854300
 20
405.576200
 30
0.0
 11
124.854300
 21
428.201200
 31
0.0
  0
LINE
  5
2d5
100
AcDbEntity
  8
Layer_1
 62
1
100
AcDbLine
 10
124.854300
 20
428.201200
 30
0.0
 11
127.989300
 21
428.201200
 31
0.0
  0
LINE
  5
2d6
100
AcDbEntity
  8
Layer_1
 62
1
100
AcDbLine
 10
127.989300
 20
428.201200
 30
0.0
 11
127.989300
 21
422.201200
 31
0.0
  0
LINE
  5
2d7
100
AcDbEntity
  8
Layer_1
 62
1
100
AcDbLine
 10
127.989300
 20
422.201200
 30
0.0
 11
142.989300
 21
422.201200
 31
0.0
  0
LINE
  5
2d8
100
AcDbEntity
  8
Layer_1
 62
1
100
AcDbLine
 10
142.989300
 20
422.201200
 30
0.0
 11
142.989300
 21
428.201200
 31
0.0
  0
LINE
  5
2d9
100
AcDbEntity
  8
Layer_1
 62
1
100
AcDbLine
 10
142.989300
 20
428.201200
 30
0.0
 11
146.124300
 21
428.201200
 31
0.0
  0
LINE
  5
2da
100
AcDbEntity
  8
Layer_1
 62
1
100
AcDbLine
 10
146.124300
 20
428.201200
 30
0.0
 11
146.124300
 21
420.576200
 31
0.0
  0
LINE
  5
2db
100
AcDbEntity
  8
Layer_1
 62
1
100
AcDbLine
 10
146.124300
 20
420.576200
 30
0.0
 11
146.124300
 21
405.576200
 31
0.0
  0
LINE
  5
2dc
100
AcDbEntity
  8
Layer_1
 62
1
100
AcDbLine
 10
146.124300
 20
405.576200
 30
0.0
 11
152.124300
 21
405.576200
 31
0.0
  0
LINE
  5
2dd
100
AcDbEntity
  8
Layer_1
 62
1
100
AcDbLine
 10
152.124300
 20
405.576200
 30
0.0
 11
152.124300
 21
390.576200
 31
0.0
  0
LINE
  5
2de
100
AcDbEntity
  8
Layer_1
 62
1
100
AcDbLine
 10
152.124300
 20
390.576200
 30
0.0
 11
146.124300
 21
390.576200
 31
0.0
  0
LINE
  5
2df
100
AcDbEntity
  8
Layer_1
 62
1
100
AcDbLine
 10
146.124300
 20
390.576200
 30
0.0
 11
146.124300
 21
375.576200
 31
0.0
  0
LINE
  5
2e0
100
AcDbEntity
  8
Layer_1
 62
1
100
AcDbLine
 10
146.124300
 20
375.576200
 30
0.0
 11
152.124300
 21
375.576200
 31
0.0
  0
LINE
  5
2e1
100
AcDbEntity
  8
Layer_1
 62
1
100
AcDbLine
 10
152.124300
 20
375.576200
 30
0.0
 11
152.124300
 21
360.576200
 31
0.0
  0
LINE
  5
2e2
100
AcDbEntity
  8
Layer_1
 62
1
100
AcDbLine
 10
152.124300
 20
360.576200
 30
0.0
 11
146.124300
 21
360.576200
 31
0.0
  0
LINE
  5
2e3
100
AcDbEntity
  8
Layer_1
 62
1
100
AcDbLine
 10
146.124300
 20
360.576200
 30
0.0
 11
146.124300
 21
345.576200
 31
0.0
  0
LINE
  5
2e4
100
AcDbEntity
  8
Layer_1
 62
1
100
AcDbLine
 10
146.124300
 20
345.576200
 30
0.0
 11
152.124300
 21
345.576200
 31
0.0
  0
LINE
  5
2e5
100
AcDbEntity
  8
Layer_1
 62
1
100
AcDbLine
 10
152.124300
 20
345.576200
 30
0.0
 11
152.124300
 21
330.576200
 31
0.0
  0
LINE
  5
2e6
100
AcDbEntity
  8
Layer_1
 62
1
100
AcDbLine
 10
152.124300
 20
330.576200
 30
0.0
 11
146.124300
 21
330.576200
 31
0.0
  0
LINE
  5
2e7
100
AcDbEntity
  8
Layer_1
 62
1
100
AcDbLine
 10
146.124300
 20
330.576200
 30
0.0
 11
146.124300
 21
315.576200
 31
0.0
  0
LINE
  5
2e8
100
AcDbEntity
  8
Layer_1
 62
1
100
AcDbLine
 10
146.124300
 20
315.576200
 30
0.0
 11
152.124300
 21
315.576200
 31
0.0
  0
LINE
  5
2e9
100
AcDbEntity
  8
Layer_1
 62
1
100
AcDbLine
 10
152.124300
 20
315.576200
 30
0.0
 11
152.124300
 21
300.576200
 31
0.0
  0
LINE
  5
2ea
100
AcDbEntity
  8
Layer_1
 62
1
100
AcDbLine
 10
152.124300
 20
300.576200
 30
0.0
 11
146.124300
 21
300.576200
 31
0.0
  0
LINE
  5
2eb
100
AcDbEntity
  8
Layer_1
 62
1
100
AcDbLine
 10
146.124300
 20
300.576200
 30
0.0
 11
146.124300
 21
285.576200
 31
0.0
  0
LINE
  5
2ec
100
AcDbEntity
  8
Layer_1
 62
1
100
AcDbLine
 10
146.124300
 20
285.576200
 30
0.0
 11
152.124300
 21
285.576200
 31
0.0
  0
LINE
  5
2ed
100
AcDbEntity
  8
Layer_1
 62
1
100
AcDbLine
 10
152.124300
 20
285.576200
 30
0.0
 11
152.124300
 21
270.576200
 31
0.0
  0
LINE
  5
2ee
100
AcDbEntity
  8
Layer_1
 62
1
100
AcDbLine
 10
152.124300
 20
270.576200
 30
0.0
 11
146.124300
 21
270.576200
 31
0.0
  0
LINE
  5
2ef
100
AcDbEntity
  8
Layer_1
 62
1
100
AcDbLine
 10
124.854300
 20
390.576200
 30
0.0
 11
124.854300
 21
375.576200
 31
0.0
  0
LINE
  5
2f0
100
AcDbEntity
  8
Layer_1
 62
1
100
AcDbLine
 10
124.854300
 20
360.576200
 30
0.0
 11
124.854300
 21
345.576200
 31
0.0
  0
LINE
  5
2f1
100
AcDbEntity
  8
Layer_1
 62
1
100
AcDbLine
 10
124.854300
 20
330.576200
 30
0.0
 11
124.854300
 21
315.576200
 31
0.0
  0
LINE
  5
2f2
100
AcDbEntity
  8
Layer_1
 62
1
100
AcDbLine
 10
124.854300
 20
300.576200
 30
0.0
 11
124.854300
 21
285.576200
 31
0.0
  0
LINE
  5
2f3
100
AcDbEntity
  8
Layer_1
 62
1
100
AcDbLine
 10
124.854300
 20
270.576200
 30
0.0
 11
124.854300
 21
255.576200
 31
0.0
  0
LINE
  5
2f4
100
AcDbEntity
  8
Layer_1
 62
1
100
AcDbLine
 10
127.989300
 20
253.951200
 30
0.0
 11
142.989300
 21
253.951200
 31
0.0
  0
LINE
  5
2f5
100
AcDbEntity
  8
Layer_1
 62
1
100
AcDbLine
 10
152.124300
 20
125.106200
 30
0.0
 11
158.124300
 21
125.106200
 31
0.0
  0
LINE
  5
2f6
100
AcDbEntity
  8
Layer_1
 62
1
100
AcDbLine
 10
158.124300
 20
125.106200
 30
0.0
 11
158.124300
 21
128.241200
 31
0.0
  0
LINE
  5
2f7
100
AcDbEntity
  8
Layer_1
 62
1
100
AcDbLine
 10
158.124300
 20
128.241200
 30
0.0
 11
164.624300
 21
128.241200
 31
0.0
  0
LINE
  5
2f8
100
AcDbEntity
  8
Layer_1
 62
1
100
AcDbLine
 10
164.624300
 20
128.241200
 30
0.0
 11
179.624300
 21
128.241200
 31
0.0
  0
LINE
  5
2f9
100
AcDbEntity
  8
Layer_1
 62
1
100
AcDbLine
 10
179.624300
 20
128.241200
 30
0.0
 11
179.624300
 21
134.241200
 31
0.0
  0
LINE
  5
2fa
100
AcDbEntity
  8
Layer_1
 62
1
100
AcDbLine
 10
179.624300
 20
134.241200
 30
0.0
 11
194.624300
 21
134.241200
 31
0.0
  0
LINE
  5
2fb
100
AcDbEntity
  8
Layer_1
 62
1
100
AcDbLine
 10
194.624300
 20
134.241200
 30
0.0
 11
194.624300
 21
128.241200
 31
0.0
  0
LINE
  5
2fc
100
AcDbEntity
  8
Layer_1
 62
1
100
AcDbLine
 10
194.624300
 20
128.241200
 30
0.0
 11
209.624300
 21
128.241200
 31
0.0
  0
LINE
  5
2fd
100
AcDbEntity
  8
Layer_1
 62
1
100
AcDbLine
 10
209.624300
 20
128.241200
 30
0.0
 11
209.624300
 21
134.241200
 31
0.0
  0
LINE
  5
2fe
100
AcDbEntity
  8
Layer_1
 62
1
100
AcDbLine
 10
209.624300
 20
134.241200
 30
0.0
 11
224.624300
 21
134.241200
 31
0.0
  0
LINE
  5
2ff
100
AcDbEntity
  8
Layer_1
 62
1
100
AcDbLine
 10
224.624300
 20
134.241200
 30
0.0
 11
224.624300
 21
128.241200
 31
0.0
  0
LINE
  5
300
100
AcDbEntity
  8
Layer_1
 62
1
100
AcDbLine
 10
224.624300
 20
128.241200
 30
0.0
 11
239.624300
 21
128.241200
 31
0.0
  0
LINE
  5
301
100
AcDbEntity
  8
Layer_1
 62
1
100
AcDbLine
 10
239.624300
 20
128.241200
 30
0.0
 11
239.624300
 21
134.241200
 31
0.0
  0
LINE
  5
302
100
AcDbEntity
  8
Layer_1
 62
1
100
AcDbLine
 10
239.624300
 20
134.241200
 30
0.0
 11
254.624300
 21
134.241200
 31
0.0
  0
LINE
  5
303
100
AcDbEntity
  8
Layer_1
 62
1
100
AcDbLine
 10
254.624300
 20
134.241200
 30
0.0
 11
254.624300
 21
128.241200
 31
0.0
  0
LINE
  5
304
100
AcDbEntity
  8
Layer_1
 62
1
100
AcDbLine
 10
254.624300
 20
128.241200
 30
0.0
 11
269.624300
 21
128.241200
 31
0.0
  0
LINE
  5
305
100
AcDbEntity
  8
Layer_1
 62
1
100
AcDbLine
 10
269.624300
 20
128.241200
 30
0.0
 11
269.624300
 21
134.241200
 31
0.0
  0
LINE
  5
306
100
AcDbEntity
  8
Layer_1
 62
1
100
AcDbLine
 10
269.624300
 20
134.241200
 30
0.0
 11
284.624300
 21
134.241200
 31
0.0
  0
LINE
  5
307
100
AcDbEntity
  8
Layer_1
 62
1
100
AcDbLine
 10
284.624300
 20
134.241200
 30
0.0
 11
284.624300
 21
128.241200
 31
0.0
  0
LINE
  5
308
100
AcDbEntity
  8
Layer_1
 62
1
100
AcDbLine
 10
284.624300
 20
128.241200
 30
0.0
 11
299.624300
 21
128.241200
 31
0.0
  0
LINE
  5
309
100
AcDbEntity
  8
Layer_1
 62
1
100
AcDbLine
 10
299.624300
 20
128.241200
 30
0.0
 11
299.624300
 21
134.241200
 31
0.0
  0
LINE
  5
30a
100
AcDbEntity
  8
Layer_1
 62
1
100
AcDbLine
 10
299.624300
 20
134.241200
 30
0.0
 11
314.624300
 21
134.241200
 31
0.0
  0
LINE
  5
30b
100
AcDbEntity
  8
Layer_1
 62
1
100
AcDbLine
 10
314.624300
 20
134.241200
 30
0.0
 11
314.624300
 21
128.241200
 31
0.0
  0
LINE
  5
30c
100
AcDbEntity
  8
Layer_1
 62
1
100
AcDbLine
 10
314.624300
 20
128.241200
 30
0.0
 11
329.624300
 21
128.241200
 31
0.0
  0
LINE
  5
30d
100
AcDbEntity
  8
Layer_1
 62
1
100
AcDbLine
 10
329.624300
 20
128.241200
 30
0.0
 11
329.624300
 21
134.241200
 31
0.0
  0
LINE
  5
30e
100
AcDbEntity
  8
Layer_1
 62
1
100
AcDbLine
 10
329.624300
 20
134.241200
 30
0.0
 11
344.624300
 21
134.241200
 31
0.0
  0
LINE
  5
30f
100
AcDbEntity
  8
Layer_1
 62
1
100
AcDbLine
 10
344.624300
 20
134.241200
 30
0.0
 11
344.624300
 21
128.241200
 31
0.0
  0
LINE
  5
310
100
AcDbEntity
  8
Layer_1
 62
1
100
AcDbLine
 10
344.624300
 20
128.241200
 30
0.0
 11
359.624300
 21
128.241200
 31
0.0
  0
LINE
  5
311
100
AcDbEntity
  8
Layer_1
 62
1
100
AcDbLine
 10
359.624300
 20
128.241200
 30
0.0
 11
359.624300
 21
134.241200
 31
0.0
  0
LINE
  5
312
100
AcDbEntity
  8
Layer_1
 62
1
100
AcDbLine
 10
359.624300
 20
134.241200
 30
0.0
 11
374.624300
 21
134.241200
 31
0.0
  0
LINE
  5
313
100
AcDbEntity
  8
Layer_1
 62
1
100
AcDbLine
 10
374.624300
 20
134.241200
 30
0.0
 11
374.624300
 21
128.241200
 31
0.0
  0
LINE
  5
314
100
AcDbEntity
  8
Layer_1
 62
1
100
AcDbLine
 10
374.624300
 20
128.241200
 30
0.0
 11
389.624300
 21
128.241200
 31
0.0
  0
LINE
  5
315
100
AcDbEntity
  8
Layer_1
 62
1
100
AcDbLine
 10
389.624300
 20
128.241200
 30
0.0
 11
389.624300
 21
134.241200
 31
0.0
  0
LINE
  5
316
100
AcDbEntity
  8
Layer_1
 62
1
100
AcDbLine
 10
389.624300
 20
134.241200
 30
0.0
 11
404.624300
 21
134.241200
 31
0.0
  0
LINE
  5
317
100
AcDbEntity
  8
Layer_1
 62
1
100
AcDbLine
 10
404.624300
 20
134.241200
 30
0.0
 11
404.624300
 21
128.241200
 31
0.0
  0
LINE
  5
318
100
AcDbEntity
  8
Layer_1
 62
1
100
AcDbLine
 10
404.624300
 20
128.241200
 30
0.0
 11
419.624300
 21
128.241200
 31
0.0
  0
LINE
  5
319
100
AcDbEntity
  8
Layer_1
 62
1
100
AcDbLine
 10
419.624300
 20
128.241200
 30
0.0
 11
419.624300
 21
134.241200
 31
0.0
  0
LINE
  5
31a
100
AcDbEntity
  8
Layer_1
 62
1
100
AcDbLine
 10
419.624300
 20
134.241200
 30
0.0
 11
434.624300
 21
134.241200
 31
0.0
  0
LINE
  5
31b
100
AcDbEntity
  8
Layer_1
 62
1
100
AcDbLine
 10
434.624300
 20
134.241200
 30
0.0
 11
434.624300
 21
128.241200
 31
0.0
  0
LINE
  5
31c
100
AcDbEntity
  8
Layer_1
 62
1
100
AcDbLine
 10
434.624300
 20
128.241200
 30
0.0
 11
449.624300
 21
128.241200
 31
0.0
  0
LINE
  5
31d
100
AcDbEntity
  8
Layer_1
 62
1
100
AcDbLine
 10
449.624300
 20
128.241200
 30
0.0
 11
449.624300
 21
134.241200
 31
0.0
  0
LINE
  5
31e
100
AcDbEntity
  8
Layer_1
 62
1
100
AcDbLine
 10
449.624300
 20
134.241200
 30
0.0
 11
464.624300
 21
134.241200
 31
0.0
  0
LINE
  5
31f
100
AcDbEntity
  8
Layer_1
 62
1
100
AcDbLine
 10
464.624300
 20
134.241200
 30
0.0
 11
464.624300
 21
128.241200
 31
0.0
  0
LINE
  5
320
100
AcDbEntity
  8
Layer_1
 62
1
100
AcDbLine
 10
464.624300
 20
128.241200
 30
0.0
 11
479.624300
 21
128.241200
 31
0.0
  0
LINE
  5
321
100
AcDbEntity
  8
Layer_1
 62
1
100
AcDbLine
 10
479.624300
 20
128.241200
 30
0.0
 11
479.624300
 21
134.241200
 31
0.0
  0
LINE
  5
322
100
AcDbEntity
  8
Layer_1
 62
1
100
AcDbLine
 10
479.624300
 20
134.241200
 30
0.0
 11
494.624300
 21
134.241200
 31
0.0
  0
LINE
  5
323
100
AcDbEntity
  8
Layer_1
 62
1
100
AcDbLine
 10
494.624300
 20
134.241200
 30
0.0
 11
494.624300
 21
128.241200
 31
0.0
  0
LINE
  5
324
100
AcDbEntity
  8
Layer_1
 62
1
100
AcDbLine
 10
494.624300
 20
128.241200
 30
0.0
 11
509.624300
 21
128.241200
 31
0.0
  0
LINE
  5
325
100
AcDbEntity
  8
Layer_1
 62
1
100
AcDbLine
 10
509.624300
 20
128.241200
 30
0.0
 11
509.624300
 21
134.241200
 31
0.0
  0
LINE
  5
326
100
AcDbEntity
  8
Layer_1
 62
1
100
AcDbLine
 10
509.624300
 20
134.241200
 30
0.0
 11
524.624300
 21
134.241200
 31
0.0
  0
LINE
  5
327
100
AcDbEntity
  8
Layer_1
 62
1
100
AcDbLine
 10
524.624300
 20
134.241200
 30
0.0
 11
524.624300
 21
128.241200
 31
0.0
  0
LINE
  5
328
100
AcDbEntity
  8
Layer_1
 62
1
100
AcDbLine
 10
524.624300
 20
128.241200
 30
0.0
 11
546.124300
 21
128.241200
 31
0.0
  0
LINE
  5
329
100
AcDbEntity
  8
Layer_1
 62
1
100
AcDbLine
 10
546.124300
 20
128.241200
 30
0.0
 11
546.124300
 21
125.106200
 31
0.0
  0
LINE
  5
32a
100
AcDbEntity
  8
Layer_1
 62
1
100
AcDbLine
 10
546.124300
 20
125.106200
 30
0.0
 11
552.124300
 21
125.106200
 31
0.0
  0
LINE
  5
32b
100
AcDbEntity
  8
Layer_1
 62
1
100
AcDbLine
 10
552.124300
 20
125.106200
 30
0.0
 11
552.124300
 21
110.106200
 31
0.0
  0
LINE
  5
32c
100
AcDbEntity
  8
Layer_1
 62
1
100
AcDbLine
 10
552.124300
 20
110.106200
 30
0.0
 11
546.124300
 21
110.106200
 31
0.0
  0
LINE
  5
32d
100
AcDbEntity
  8
Layer_1
 62
1
100
AcDbLine
 10
546.124300
 20
110.106200
 30
0.0
 11
546.124300
 21
106.971200
 31
0.0
  0
LINE
  5
32e
100
AcDbEntity
  8
Layer_1
 62
1
100
AcDbLine
 10
546.124300
 20
106.971200
 30
0.0
 11
539.624300
 21
106.971200
 31
0.0
  0
LINE
  5
32f
100
AcDbEntity
  8
Layer_1
 62
1
100
AcDbLine
 10
539.624300
 20
106.971200
 30
0.0
 11
524.624300
 21
106.971200
 31
0.0
  0
LINE
  5
330
100
AcDbEntity
  8
Layer_1
 62
1
100
AcDbLine
 10
179.624300
 20
106.971200
 30
0.0
 11
158.124300
 21
106.971200
 31
0.0
  0
LINE
  5
331
100
AcDbEntity
  8
Layer_1
 62
1
100
AcDbLine
 10
158.124300
 20
106.971200
 30
0.0
 11
158.124300
 21
110.106200
 31
0.0
  0
LINE
  5
332
100
AcDbEntity
  8
Layer_1
 62
1
100
AcDbLine
 10
158.124300
 20
110.106200
 30
0.0
 11
152.124300
 21
110.106200
 31
0.0
  0
LINE
  5
333
100
AcDbEntity
  8
Layer_1
 62
1
100
AcDbLine
 10
194.624300
 20
106.971200
 30
0.0
 11
209.624300
 21
106.971200
 31
0.0
  0
LINE
  5
334
100
AcDbEntity
  8
Layer_1
 62
1
100
AcDbLine
 10
224.624300
 20
106.971200
 30
0.0
 11
239.624300
 21
106.971200
 31
0.0
  0
LINE
  5
335
100
AcDbEntity
  8
Layer_1
 62
1
100
AcDbLine
 10
254.624300
 20
106.971200
 30
0.0
 11
269.624300
 21
106.971200
 31
0.0
  0
LINE
  5
336
100
AcDbEntity
  8
Layer_1
 62
1
100
AcDbLine
 10
284.624300
 20
106.971200
 30
0.0
 11
299.624300
 21
106.971200
 31
0.0
  0
LINE
  5
337
100
AcDbEntity
  8
Layer_1
 62
1
100
AcDbLine
 10
314.624300
 20
106.971200
 30
0.0
 11
329.624300
 21
106.971200
 31
0.0
  0
LINE
  5
338
100
AcDbEntity
  8
Layer_1
 62
1
100
AcDbLine
 10
344.624300
 20
106.971200
 30
0.0
 11
359.624300
 21
106.971200
 31
0.0
  0
LINE
  5
339
100
AcDbEntity
  8
Layer_1
 62
1
100
AcDbLine
 10
374.624300
 20
106.971200
 30
0.0
 11
389.624300
 21
106.971200
 31
0.0
  0
LINE
  5
33a
100
AcDbEntity
  8
Layer_1
 62
1
100
AcDbLine
 10
404.624300
 20
106.971200
 30
0.0
 11
419.624300
 21
106.971200
 31
0.0
  0
LINE
  5
33b
100
AcDbEntity
  8
Layer_1
 62
1
100
AcDbLine
 10
434.624300
 20
106.971200
 30
0.0
 11
449.624300
 21
106.971200
 31
0.0
  0
LINE
  5
33c
100
AcDbEntity
  8
Layer_1
 62
1
100
AcDbLine
 10
464.624300
 20
106.971200
 30
0.0
 11
479.624300
 21
106.971200
 31
0.0
  0
LINE
  5
33d
100
AcDbEntity
  8
Layer_1
 62
1
100
AcDbLine
 10
494.624300
 20
106.971200
 30
0.0
 11
509.624300
 21
106.971200
 31
0.0
  0
ENDSEC
  0
SECTION
  2
OBJECTS
  0
DICTIONARY
  5
C
330
0
100
AcDbDictionary
  3
ACAD_GROUP
350
D
  3
ACAD_MLINESTYLE
350
17
  0
DICTIONARY
  5
D
330
C
100
AcDbDictionary
  0
DICTIONARY
  5
1A
330
C
100
AcDbDictionary
  0
DICTIONARY
  5
17
330
C
100
AcDbDictionary
  3
STANDARD
350
18
  0
DICTIONARY
  5
19
330
C
100
AcDbDictionary
  0
ENDSEC
  0
EOF
