<?xml version="1.0" encoding="UTF-8" standalone="no"?>
<!-- Created with Inkscape (http://www.inkscape.org/) -->

<svg
   width="210mm"
   height="297mm"
   viewBox="0 0 210 297"
   version="1.1"
   id="svg5"
   xml:space="preserve"
   inkscape:export-filename="hitboxlayout.png"
   inkscape:export-xdpi="96"
   inkscape:export-ydpi="96"
   sodipodi:docname="hitboxlayout6mm.svg"
   inkscape:version="1.2.2 (b0a8486541, 2022-12-01)"
   xmlns:inkscape="http://www.inkscape.org/namespaces/inkscape"
   xmlns:sodipodi="http://sodipodi.sourceforge.net/DTD/sodipodi-0.dtd"
   xmlns="http://www.w3.org/2000/svg"
   xmlns:svg="http://www.w3.org/2000/svg"><sodipodi:namedview
     id="namedview7"
     pagecolor="#ffffff"
     bordercolor="#000000"
     borderopacity="0.25"
     inkscape:showpageshadow="2"
     inkscape:pageopacity="0.0"
     inkscape:pagecheckerboard="0"
     inkscape:deskcolor="#d1d1d1"
     inkscape:document-units="mm"
     showgrid="false"
     inkscape:zoom="0.12694895"
     inkscape:cx="-1437.5857"
     inkscape:cy="-701.06921"
     inkscape:window-width="1920"
     inkscape:window-height="1017"
     inkscape:window-x="1072"
     inkscape:window-y="418"
     inkscape:window-maximized="1"
     inkscape:current-layer="layer1-6" /><defs
     id="defs2" /><g
     inkscape:label="Layer 1"
     inkscape:groupmode="layer"
     id="layer1"><path
       id="path738-1-9"
       style="fill:none;stroke:#000000;stroke-width:0.264999"
       class="UnoptimicedTransforms"
       d="m -79.114439,34.628106 c 14.198261,-3.125892 19.844345,6.757172 18.940879,13.061181 0.157597,3.722252 7.502504,4.807298 17.503069,-0.02262 11.428242,-2.711434 21.043643,-1.920913 31.961634,-1.3958 11.55261915,0.555636 20.823843,7.751371 29.635828,7.074655 7.728283,0.01486 15.124424,6.766246 15.092693,15.921667 -1.967993,9.23349 -3.562535,17.816333 -1.424247,24.404165 0.158706,0.488957 0.677198,2.572159 0.677198,4.938985 10e-7,8.328251 -4.981656,21.790771 -20.210531,16.950151 -10.7242684,-3.23883 -16.146031,-6.28977 -23.421407,-7.34822 v 0 c -9.62125,-0.18625 -17.403164,-0.96544 -26.252898,0.053 -8.849733,1.01847 -12.852785,4.56869 -17.406432,10.65699 -4.553647,6.08829 -4.313721,14.65895 -4.283194,24.22219 0.03053,9.56323 -8.205107,17.79886 -18.364275,17.79886 -10.159168,0 -18.394801,-8.23563 -18.394804,-18.3948 -1e-6,-4.86797 1.890933,-9.29429 4.126686,-11.44474 2.769423,-5.29547 7.922922,-16.91854 7.433188,-18.22563 -0.326452,-0.86194 -7.521191,-4.30157 -11.333371,-4.47346 -3.812181,-0.17189 -7.875197,-0.36492 -11.267167,-6.55172 -3.61809,-5.667871 -7.12252,-6.57934 -15.35841,-9.536871 -8.84285,-1.474897 -18.12719,-1.043991 -26.15158,1.516902 -8.41517,0.900069 -15.49221,-7.512142 -15.49221,-15.840396 0,-8.328255 5.96847,-16.369157 14.47615,-15.297228 8.46162,2.499605 18.34099,3.510885 21.88493,1.412316 3.54395,-2.098568 4.06304,-6.551634 3.76935,-12.491395 -3.01749,-11.290252 6.40503,-19.054826 16.34426,-17.686966 3.55018,0.725777 19.349487,4.377328 27.514661,0.698788 z m 1.245415,58.525043 v -3e-6 m 53.322765,0.01972 v -3e-6"
       sodipodi:nodetypes="cccsccsscccsccssccccccscccccccccc"
       transform="matrix(1.0028911,0,0,1.0028911,-8.0904938,27.006039)" /><g
       id="svgGroup"
       stroke-linecap="round"
       fill-rule="evenodd"
       font-size="12px"
       stroke="#000"
       stroke-width="0.25mm"
       fill="none"
       style="fill:none;stroke:#000000;stroke-width:0.25mm"
       transform="translate(-247.18289,-151.17526)"><g
         inkscape:label="Layer 1"
         id="layer1-6"
         transform="translate(-1.5715753,200.21092)"><circle
           style="fill:none;stroke:#000000;stroke-width:0.326145;stroke-dasharray:none;stroke-opacity:0.992366"
           id="path383-8"
           cx="-22.087496"
           cy="10.191999"
           r="1.0869274" /><circle
           style="fill:none;stroke:#000000;stroke-width:0.326145;stroke-dasharray:none;stroke-opacity:0.992366"
           id="path383-3-8"
           cx="163.25806"
           cy="10.191999"
           r="1.0869274" /><circle
           style="fill:none;stroke:#000000;stroke-width:0.326145;stroke-dasharray:none;stroke-opacity:0.992366"
           id="path383-3-5-9"
           cx="163.258"
           cy="169.72099"
           r="1.0869274" /><circle
           style="fill:none;stroke:#000000;stroke-width:0.326145;stroke-dasharray:none;stroke-opacity:0.992366"
           id="path383-0-9"
           cx="-22.087496"
           cy="169.72139"
           r="1.0869274" /><circle
           style="fill:none;stroke:#000000;stroke-width:0.326145;stroke-dasharray:none;stroke-opacity:0.992366"
           id="path383-34-9"
           cx="358.05447"
           cy="10.191999"
           r="1.0869274" /><circle
           style="fill:none;stroke:#000000;stroke-width:0.326145;stroke-dasharray:none;stroke-opacity:0.992366"
           id="path383-34-2-6"
           cx="358.05399"
           cy="169.72099"
           r="1.0869274" /></g><g
         id="svgGroup-7"
         stroke-linecap="round"
         fill-rule="evenodd"
         font-size="12px"
         stroke="#000"
         stroke-width="0.25mm"
         fill="none"
         style="fill:none;stroke:#000000;stroke-width:0.25mm"
         transform="translate(-33.96274,19.973797)"><path
           d="m 0,172.625 v 30.25 h 6 v 15 H 0 v 15 h 6 v 15 H 0 v 15 h 6 v 15 H 0 v 15 h 6 v 15 H 0 v 15 h 6 v 15 H 0 v 15 7.625 h 27.5 v -6 h 15 v 6 h 15 v -6 h 15 v 6 h 15 v -6 h 15 v 6 h 15 v -6 h 15 v 6 h 15 v -6 h 15 v 6 h 15 v -6 h 15 v 6 h 15 v -6 h 15 v 6 h 15 v -6 h 15 v 6 h 15 v -6 h 15 v 6 h 15 v -6 h 15 v 6 h 15 v -6 h 15 v 6 h 15 v -6 h 15 v 6 h 15 12.5 v -37.625 -30 -30 -30 -30 -15 -45.25 M 27.5,180.25 H 0 12.5 M 406,337.875 h -12 v -15 h 12 m 0,-15 h -12 v -15 h 12 m 0,-15 h -12 v -15 h 12 m 0,-15 h -12 v -15 h 12 m 0,-15 h -12 v -15 h 12 M 372.5,174.25 v 12 h -15 v -12 m -15,0 v 12 h -15 v -12 m -15,0 v 12 h -15 v -12 m -15,0 v 12 h -15 v -12 m -15,0 v 12 h -15 v -12 m -15,0 v 12 h -15 v -12 m -15,0 v 12 h -15 v -12 m -15,0 v 12 h -15 v -12 m -15,0 v 12 h -15 v -12 m -15,0 v 12 h -15 v -12 m -15,0 v 12 h -15 v -12 m -15,0 v 12 h -15 v -12 m 345,6 H 400 m -57.5,0 h 15 m -45,0 h 15 m -45,0 h 15 m -45,0 h 15 m -45,0 h 15 m -45,0 h 15 m -45,0 h 15 m -45,0 h 15 m -45,0 h 15 m -45,0 h 15 m -45,0 h 15"
           id="front_outsideCutPath"
           stroke="#FF0000"
           stroke-width="0.1"
           style="stroke:#ff0000;stroke-width:0.1"
           vector-effect="non-scaling-stroke" /><path
           d="m 427.27,157.625 v 30.25 15 h 6 v 15 h -6 v 15 h 6 v 15 h -6 v 15 h 6 v 15 h -6 v 15 h 6 v 25.22 m 0,19.78 h -6 V 360.5 h -3.135 v -6 h -15 v 6 H 406 v -7.625 -15 m 27.27,-30 h -6 v 15 h 6 v 28.49 M 424.135,174.25 v 12 h -15 v -12 M 406,202.875 v -30.25 m 0,45.25 v 15 m 0,15 v 15 m 0,15 v 15 m 0,15 v 15 M 424.135,180.25 h 3.135 m -21.27,0 h 3.135"
           id="left_outsideCutPath"
           stroke="#FF0000"
           stroke-width="0.1"
           style="stroke:#ff0000;stroke-width:0.1"
           vector-effect="non-scaling-stroke" /><path
           d="m 805.77,321.23 v 12 h 21.5 v 3.135 h 6 v 15 h -6 v 3.135 h -6.5 -15 v 6 h -15 v -6 h -15 v 6 h -15 v -6 h -15 v 6 h -15 v -6 h -15 v 6 h -15 v -6 h -15 v 6 h -15 v -6 h -15 v 6 h -15 v -6 h -15 v 6 h -15 v -6 h -15 v 6 h -15 v -6 h -15 v 6 h -15 v -6 h -15 v 6 h -15 v -6 h -15 v 6 h -15 v -6 h -15 v 6 h -15 v -6 h -21.5 v -3.135 h -6 m 0,-15 h 6 v -3.135 h 6.5 15 v -12 m 330,0 v 12 h -15 v -12 m -15,0 v 12 h -15 v -12 m -15,0 v 12 h -15 v -12 m -15,0 v 12 h -15 v -12 m -15,0 v 12 h -15 v -12 m -15,0 v 12 h -15 v -12 m -15,0 v 12 h -15 v -12 m -15,0 v 12 h -15 v -12 m -15,0 v 12 h -15 v -12 m -15,0 v 12 h -15 v -12 m -15,0 v 12 h -15 v -12 m 315,6 h 15 m -45,0 h 15 m -45,0 h 15 m -45,0 h 15 m -45,0 h 15 m -45,0 h 15 m -45,0 h 15 m -45,0 h 15 m -45,0 h 15 m -45,0 h 15 m -45,0 h 15 m -45,0 h 15"
           id="top_outsideCutPath"
           stroke="#FF0000"
           stroke-width="0.1"
           style="stroke:#ff0000;stroke-width:0.1"
           vector-effect="non-scaling-stroke" /><path
           d="m 0,172.625 v -15 h 6 v -15 H 0 v -15 h 6 v -15 H 0 v -15 h 6 v -15 H 0 v -15 h 6 v -15 H 0 v -15 h 6 v -15 H 0 V 0 h 12.5 15 v 6 h 15 V 0 h 15 v 6 h 15 V 0 h 15 v 6 h 15 V 0 h 15 v 6 h 15 V 0 h 15 v 6 h 15 V 0 h 15 v 6 h 15 V 0 h 15 v 6 h 15 V 0 h 15 v 6 h 15 V 0 h 15 v 6 h 15 V 0 h 15 v 6 h 15 V 0 h 15 v 6 h 15 V 0 h 15 v 6 h 15 V 0 H 400 v 7.625 15 30 30 30 30 m 6,15 h -12 v -15 h 12 m 0,-15 h -12 v -15 h 12 m 0,-15 h -12 v -15 h 12 m 0,-15 h -12 v -15 h 12 m 0,-15 h -12 v -15 h 12 M 27.5,174.25 h 15 m 15,0 h 15 m 15,0 h 15 m 15,0 h 15 m 15,0 h 15 m 15,0 h 15 m 15,0 h 15 m 15,0 h 15 m 15,0 h 15 m 15,0 h 15 m 15,0 h 15 m 15,0 h 15"
           id="back_outsideCutPath"
           stroke="#FF0000"
           stroke-width="0.1"
           style="stroke:#ff0000;stroke-width:0.1"
           vector-effect="non-scaling-stroke" /><path
           d="M 406,22.625 V 0 h 3.135 v 6 h 15 V 0 h 3.135 v 7.625 15 h 6 v 15 h -6 v 15 h 6 v 15 h -6 v 15 h 6 v 15 h -6 v 15 h 6 v 15 h -6 v 15 h 6 v 15 h -6 M 406,37.625 v 15 m 0,15 v 15 m 0,15 v 15 m 0,15 v 15 m 0,15 v 15 m 3.135,1.625 h 15"
           id="right_outsideCutPath"
           stroke="#FF0000"
           stroke-width="0.1"
           style="stroke:#ff0000;stroke-width:0.1"
           vector-effect="non-scaling-stroke" /><path
           d="m 433.27,303.095 h 6 v -3.135 h 6.5 15 v -6 h 15 v 6 h 15 v -6 h 15 v 6 h 15 v -6 h 15 v 6 h 15 v -6 h 15 v 6 h 15 v -6 h 15 v 6 h 15 v -6 h 15 v 6 h 15 v -6 h 15 v 6 h 15 v -6 h 15 v 6 h 15 v -6 h 15 v 6 h 15 v -6 h 15 v 6 h 15 v -6 h 15 v 6 h 15 v -6 h 15 v 6 h 21.5 v 3.135 h 6 v 15 h -6 v 3.135 h -6.5 -15 m -345,0 h -21.5 v -3.135 h -6 m 42.5,3.135 h 15 m 15,0 h 15 m 15,0 h 15 m 15,0 h 15 m 15,0 h 15 m 15,0 h 15 m 15,0 h 15 m 15,0 h 15 m 15,0 h 15 m 15,0 h 15 m 15,0 h 15"
           id="bottom_outsideCutPath"
           stroke="#FF0000"
           stroke-width="0.1"
           style="stroke:#ff0000;stroke-width:0.1"
           vector-effect="non-scaling-stroke" /></g></g></g></svg>
